<?xml version="1.0" encoding="utf-8"?>
<!-- Generator: Adobe Illustrator 26.2.1, SVG Export Plug-In . SVG Version: 6.00 Build 0)  -->
<svg version="1.1" id="Layer_1" xmlns="http://www.w3.org/2000/svg" xmlns:xlink="http://www.w3.org/1999/xlink" x="0px" y="0px"
	 viewBox="0 0 1920 1080" style="enable-background:new 0 0 1920 1080;" xml:space="preserve">
<style type="text/css">
	.st0{fill:#E8F0EC;stroke:#7B6F6F;stroke-width:0.4036;}
	.st1{fill-opacity:0.5;stroke:#000000;stroke-width:1.6146;stroke-opacity:0;}
	.st2{fill:#FF0000;fill-opacity:0.5;}
	.st3{fill:#FF0000;fill-opacity:0.5;stroke:#000000;stroke-width:1.6146;stroke-opacity:0;}
</style>
<g id="regions-layer">
	<path class="st0" d="M559.6,335.6l62.6-34.8l12.2,23.2l-34,18.6l3,20.6l0.4,5.1l-3.2,0.9l-5.5-4.5l-2.6,1.2L580,347.1l-8.8,6.3
		l6.5,9.2l4.8,8.5l7.5,13l-0.7,1l-0.4,1l-0.7,1.3l-7,9.1l-4.8-3.2l-3-2.2l-8.1-5.1l-3.3-2.2l-4.4-3.7l-0.7-1l-2.2-1l-3.8-3.7
		l-10.2-9.7l-4.8-6.9l-1.1-1.9l-4-7.8l-2.2-5.1l4.9-2.3l1.7-0.9l4.8-7.8l6.7-0.4l2.6-0.4l3.7,1h1.9L559.6,335.6z"/>
	<path class="st0" d="M600.6,343.1l59.3-32.7l7.5,1.3l5.9,1.4l2.2,5.5l0.4,1.9l1.6,6.9l-0.7,2.2l-1.3,2l-8.4-2.8l-52,26.5l3.8,17.9
		l-0.6,16.4l-27.2-6.2l-0.9,1.2l-7.5-13.3l12.5-6.2l5.5,4.5l3.2-0.9l-0.4-5.1L600.6,343.1z"/>
	<path class="st0" d="M505,259.1l5.5,1.2l2.7,0.6l2.1,0.3l3,0.4l2.4,0.1l1.6-0.1l1.6-0.4l5.7-2.2l1.6-0.4l1.6-0.7l0.7-0.7l0.5-1.1
		l0.9-2.6l0.4-2.2l1.9-8.7l0.9-2.2l1-2.3l0.4-0.5l0.9-0.7l2.6-1l8.9-2.2l2.2-1.3l2.6-1.3l3-3.7l-16.2-24.9l3-10.4l21.2,25.3l0.7,0.4
		l1.4,1.3l3.3,4.1l1.1,1.6l1.3,1.7l3,4.6l-0.1,0.4l-0.6,2l4.2,5.8l-20.4,36.3V275l-6.6-5.5l-4-1.2l-12,2l-14,6.7l-11.4-2.9l-3.8-4.9
		l-4.7-8.9L505,259.1z"/>
	<path class="st0" d="M513.7,273.9l11.4,2.9l14-6.8l12-2l4,1.2l6.5,5.5v0.4l-3.7,15.2l-1.1,6.9l-0.4,6.2l-0.3,5.7l2.6,9.1l-4.7,14.4
		l-1.9-3.7l-7.3-12.8l-1.3-2.2l-8.1-8.7l-7-10.1l-1.4-2.2l-3-5.5l-2.1-3.2L513.7,273.9z"/>
	<path class="st0" d="M313.3,309.6l0.5,2l-6.8,1.7h-1.9l-1.1,1l-0.7-2.8l-1.1-3.2l-2.2-8.2l-0.7-2.2l-1.9-7.8l-1.4-6.4l-0.7-3.2
		l-1.1-3.7l-1.1-4.1l-1.1-2.8l-0.4-1.9l-0.4-2.8l-1.1-4.6l-1.4-5.1l-0.7-1.3l10.4-3.2l0.5,2l0.4,1.6l0.7,3.1l0.4,1.6l0.9,3.6
		l0.4,1.3l0.5,2l0.3,0.9l0.6,2.7l0.5,1.9l0.6,2.3l1,4.1l0.9,3.3l1.1,4.1l0.6,2.2l0.5,2.2l1.4,5.1l0.7,2.8l1,3.7l0.5,2.2l0.4,1.3
		l0.4,2L313.3,309.6z"/>
	<path class="st0" d="M331.5,279.9v2.5l-3.3,2.2l-3,1.3l-7.8,4.6l-8.1,4.1l-1.4-5.1l-0.5-2.2l-0.6-2.2l-1.1-4.1l-0.9-3.3l-1-4.1
		l-0.6-2.3l-0.5-1.9l-0.6-2.7l-0.3-0.9l-0.5-2l-0.4-1.3l-0.9-3.6l-0.4-1.6l-0.7-3.1l-0.4-1.6l8.3-2.5l1.1,1.9l0.7,4.1v1.3l3.3-1
		l0.4,2.2l0.6,2.2l1,3.9l0.4,1.9l1.9-0.4l6.7-1.3l6.7-0.9v2.5l1,4.6l0.3,3.7l0.3,1.7l0.3,2.4L331.5,279.9z"/>
	<path class="st0" d="M358,307.1l2,3.2h-1.1l-1.8,0.4L351,312l-7.4,1.3l-5.8,1.9l-2.4,0.4l0.5-2.1l-2.2-0.1l-2.3-31.2v-1.7l-0.1-1.1
		l-0.3-2.6l-0.3-1.9l-0.3-4.1l-1-5V264l0.3-0.1l3.7-0.9l0.7,2.2l0.3,4.1l0.3,1.3l1.8-0.4l7.4-1.3l3-0.4l3.4-0.4h1l0.3,2.7l0.7,4.1
		l0.7,3.6l0.3,4.1l0.7,3.2l0.3,3.2l0.3,2.7l1,3.6l0.3,3.6l1,3.6L358,307.1z"/>
	<path class="st0" d="M554.4,496.3l-1.1,1.9l-0.7,2.8v1.9l-1.1,1.9l-1.1,4.1l3.7,1.3l3.9,2.2l-2.6,4.1l-6.9-2.2l-0.4,1l-0.7,2.8
		l-0.7,2.8l-1.1,3.2l-1.1,2.8l-0.7,3.2l-1.1,2.2l-0.7,3.2l-0.4,1l-0.7,2.2l-0.4,1.3l-1.1,2.8v1l-1.1,2.2l-0.4,2.8l-0.4,1.3l-1.1,2.2
		l-1.3,5.1l-3.2-1.3l-3-1.3h-1.1h-3.2l-4.4-0.4l3-3.7l2.6-3.7l2.2-2.8l-3-1.9l5.6-7.3l-2.6-2.2l2.6-3.7l4.8-6l1.5-4.1l1.7-6.9
		l-5.6-1.9l0.7-1l1.5-4.1l2.1,0.5l1.2,0.4l3.9-12.3l-2.2-2.8l0.4-2.3l0.1-0.4l0.4-1.2l1,0.4l8,2.2l5.6,2l-0.4,2l-0.4,0.4
		L554.4,496.3z"/>
	<path class="st0" d="M479.3,506.2l-1.1,0.4l-3.7,1.9l-3.3,2.8l-0.7,1l-2.6,2.2l-2.2,1.9l-1.6,1l-0.4,1l-3,2.2l-1.1,1l-2.6,2.2
		l-0.7,1l-1.4,1.9h-1.1l-1.1,1.3l-1.9,1.9l-2.2,2.2l-4-1.9l3.3-3.2l-4.8-5.1l-3-3.7l-4-3.7l-3-3.2l-3.3-3.7l-3-3.2l-3.4-3.7l-3-3.7
		l3.3-2.8l3.3-3.2l3.3-3.2l3.7,3.7l3.3,4.1l3.3,3.2l3.7-2.2l4-3.2l3.7-2.8l3.3-2.8l4-3.2l3.3-2.2l3,3.2l2.2,2.8l3.7,3.7l3.3,4.1
		l3.3,2.8l5.2,5.5h-1.1l-2.2,1.3L479.3,506.2z"/>
	<path class="st0" d="M321.5,470.8l0.1,0.6l-0.6,0.4l-0.7,0.5l-0.5,0.4l-0.5,0.6l-1.1,3.2l-4-2.2l-4.7-2.2l-0.4,0.9l-0.7,1.3
		l-0.4,3.2l-0.6,2.3l-0.1,0.4l-1.1,4.1l-0.7,2.8l2.2,0.4l3.7,2.2l4.5,2.2l-3.3,6.4l-1.3,2.7l-1.3-1.2l-7.3-0.6l-9.3-1l-3.4-0.5
		l0.4-3.5l-2.5-0.6l-4.2,10.5l-2.8-1.7l1-5.2l-2-0.4l-2.1,6.1l-2.2,2.6l-1.6-2.6l-2.1,0.7l0.3,2.8l-8.6,2.2l-35.5-0.4l-24.4-5.1
		l-25.2-6.5l-29.9-7.7l-17.4-9.7l1.5-2.2l1.4-0.3l3.4-0.6l11-0.4l5.9-15.1l1.1-6l0.7-4.6l-7.7-2.2l-1.3-0.4l-3.3-1.1l-4.8,3.3
		l-11,7.7l-17.6,7.1l-9.6,3.6L95,460l29.9-25.6h1.4h3.3l17.3,1l17,1.4l11.2,1l16.6,1.9l11.2,1.4l6.8-0.9l2,0.5l18,22.5l6.6,5.8
		l7.2,3.3l8.4,2l8.5,0.7l2.2,0.1l3.1-0.4l2.4-0.7l2-10l0.4-1.9l1.6-4.6h-0.5l3.7,1h2.2l2.6,1.2l-3-5.1l-1.3-1.3l1.2-0.1l1.4,0.4
		l-0.7-0.7l-0.9-1.6l-0.5-1.1l-0.5-5.7l5.5,1.2l2.3,0.5l2.6,1.3l4.5,1l3.7,1l4.4,1.3l4,1l3.3,1l4,1.3l3.7,1l0.9,0.1l2.1,0.1l0.7-0.7
		l3.3,1.9l2.2,1l1.9,1l-2.7,5.8l-0.5,2.5l-0.3,2.6V470.8z"/>
	<path class="st0" d="M441.5,437.1l-4,3.2l-1.9,1.3l-1.6,1.3l-2.2,0.4l-1.9-1.9l-2.6,1.9l-9.2,4.6l-8.6,0.4l-1.1-2.8l-0.7-4.6
		l0.7-2.2l-4.5-0.4l-4.4-1l-3-1.9l-1.1-1l-2.6-3.2l-1.1-1l-0.7-2.8l-0.1-1.1l-0.3-2.1l5.2-2.2l2.6-3.2l10.4-8.2l11-7.8l0.4-0.4
		l1.9-1.5l1.1,1.9l0.3,0.4l1.3,2l3.9,8.5l0.4,1.1l2.3,9.7l0.4,1.1l1.6,1.9l4,4.6l6.3,5.9L441.5,437.1z"/>
	<path class="st0" d="M632.3,545.6l-1.4,1l-1.9,1l-4.5,2.8l-3.3,1.9l-2.6,1.9l-2.6,1.3l-3.7,2.2l-2.6,1.9l-3.3,2.2l-3.3,1.9l-4-4.6
		l-0.9-1.1l-1.3-1.6l-2.8-3.1l-2.6-2.9l-4.5-4.6l-2.3-2.7l-1.2-1.5l-2.3-2.7l1.6-1.9l4.5-3.2l4-2.8l3-2.2l3-1.9l1.1-1l1.4-1.3l1.1-1
		l1.9-1l2.6-2.2l1.4-1l5.8,6.9l4.9,5.9l2.1,2l3.7,3.8l0.7,0.5l2.1,2l1.9,1.1l1.4,0.9l4.5,2.2L632.3,545.6z"/>
	<path class="st0" d="M728,667.9l-5.9,3.7l-7,4.1l-6.3,4.1l-6.3,3.7l-7.8,4.1l-3.7-1.9l-4.5-2.8l-3.3-2.2l-3-1.3l-2.2-1.3l-0.9-0.6
		l-1.7-1.2l-0.7-0.4l-2.1-1.1l-2.7-1.6l-3.7-2l9.3-7.8l3-2.2l3.3-2.8l1.6-1.3l2.2-1.3l3-2.2l3-2.2l1.9-1.9l1.9-1.3l1.1-1l2.2-1.9
		l2.6-2.2l2.6-1.9l5.9,3.7l1.6,2.2l2.2,2.8l2.2,2.2l1.9,2.2l2.2,2.8l1.1,1.3l3,3.2l2.2,3.2L728,667.9z"/>
	<path class="st0" d="M703.5,640.8l-2.6,1.9l-2.6,2.2l-2.2,1.9l-1.1,1l-1.9,1.3l-1.9,1.9l-7.5-9.7l-1.9-1.9l-1.6-2.2l-10.8,8.7
		l-11,8.7l1.1,1.3l-7.8,6.9l-3.3-2.2l-3.3-2.2l-1.9-1l-1.6-1l-2.2-1.3l-1.1-0.4l-3.3-1.9l1.1-1.3l3-2.2l4.8-3.7l3.7-3.2l1.6-1.3
		l0.4-0.4l3-2.5l2.7-2.2l3.9-3.2l-1.7-2.3l-2.2-2.2l-1.1-1l-1.6-1.9l-2.2-2.8l-2.6-2.2l-3.9-4.3l0.7-4.6l2.4,0.5l7.9,2l4,1l4,0.4
		l4.8,1.3l4.8,1h3.3l9.9,2.2l8.1,1l4,1l4,0.4l5.2,0.4l14.8,3.2l-5.2,3.7l-8.1,7.3l-3.7,2.8l-0.7,0.4L703.5,640.8z"/>
	<path class="st0" d="M582.2,536.9l-1.6,1.9l-3.3,1.9l-2.6,2.2l-2.6,1.9l-1.9,1l-2.2,1.9l-1.1,1l-2.6-3.7l-3.3-3.2l-1.6-1.9l0.4-2.2
		l-1.1-0.4l1.6-2.8l2.6,1.3l2.6-2.8l3.3-1.9l6.3-2.8l2.2,2.8l2.2,3.2L582.2,536.9z"/>
	<path class="st0" d="M489.6,484.2l-1.9,2.2l-0.7,1l-1.9,2.8l-2.2,3.7l-1.9,2.2l-2.6,2.8l-3.3-2.8l-3.3-4.1l-3.7-3.7l-2.2-2.8
		l10.8-9.1l0.7-0.4l5.2-2.8l5.2,1.9l2.2,1.3l3.7,3.7l-3.3,3.2L489.6,484.2z"/>
	<path class="st0" d="M696.1,786.7l-0.6,1.2l-2.1,4.3l-1.3,2.6l-5.3,10.6l-0.4,0.6l-1.4,2.8l-1.1,2.2l-0.3,0.4l-3.3,6.5l-1.6,3.3
		l-16.3-22.4l-1.1-1.3l-0.4-1.3l-0.7-1l-1.1-1.3l-17-23.8l-2-2.7l3.3-3.7l1.9,0.4l1.6,0.4l5.9,1.9l11,4.1l7-18.8l17.1,18.3l1.9,2.2
		l0.4,0.4l2.2,1.9l1.9,2.2l0.7,1l1.6,3.7v0.5L696.1,786.7z"/>
	<path class="st0" d="M393.7,243.5l-0.7,4.6l-1.1,4.1l-0.4,3.7l0,2.8v3.2l-0.7,3.2l-0.3,3.2v4l-0.7,2.9l-0.3,3.7v2.1v3.7l-0.5,2.7
		l-0.5,2.7v1.8l-0.4,1.3l-3.7,2.2l-1.2,0.9l-2.2,2.2l-2.1,2.8l-2.2,3.2l-1.9,4.6l-3,12.8l-3-4.1l-2.2-3.2l-3.3-4.1l-2.2-3.2
		l-0.7-4.6l-1.1-3.7l-0.4-3.7l-1.1-3.7l-0.4-2.8l-0.4-3.2l-0.7-3.2l-0.4-4.1l-0.7-3.7l-0.7-4.1l-0.4-2.8l7.3-1.9v-1.4l-2-3.7v-1.9
		l2-1h2.4l-0.4-1.8l-0.7-3.7l-0.4-2.2l-0.4-2.8l-0.4-2.8l3.7-0.8h3.3l3.3-1.2l16-1.9l5.7-0.4L393.7,243.5z"/>
	<path class="st0" d="M707.5,506.4l1-0.6l1.9-5.1l0.6-2l2.6-0.6l1.4-0.4l2.6,4.6l4,1.9l1.3-1.9l2-2.7l33,28.9l35.9,13.3l3.2,5.2
		l9,5.9l10.7,5.7h9l7.7,7.3l7.6-6.4l-55.9,50.4l-3.3,1.3l-2.2,1.9l-4.5-5.1l-5.8-4.3l-0.4-0.4l-10.4-5.9l-0.4-0.3l-7.5-4.4l-5.7-4.1
		l-1.6-1l-0.6-0.4l-3.6-2.3l-3.6-2.3l-1.7-1.2l6.6-6.9l-31-63.9L707.5,506.4z"/>
	<path class="st0" d="M759.8,684.2l1.1,3.2l3.6,12.8l2.6,7.3l1.9,3.2l2.2,4.1l-1.9,1h-0.7l-1.4,1l-3.3,1.9l-4.8,3.2l-3.7-6.8
		l-3.7-6.8l-4.4-6.8l-2.1-4.6h-0.4l-1.5-2.8l-1.9-3.5l-1.9-2.9l-1.5-2.8l-1.6-2.8l-2.1-3.6l-2-3.5l-2.1-3.5l-2.6-3.6l5.2-3.2l1.5-1
		l4.6-2.8l2.2-1.3l2.2-2.2l4-2.2l2.2,2.8l2.6,2.8l1.5,2.2l5.2,18.2L759.8,684.2z"/>
	<path class="st0" d="M808.6,736.4l1.1-0.4l-0.7-2.8l3.3-2.8l2.2-1.9l4.5-2.8l5.7-4.1l2.6-1.6l1.2-0.7l4,5.5l3.7-2.8l16-9l11.5-6.5
		l3.7-1.9l3-2.2l3-1.9l2.6-1.3l4-2.2l2.2-1.9l5.2-2.8l7.8-4.6l5.9-3.7l9.9-6l2.2-0.6l8.6,17.2l8.9,19.2l0.4,4.6l7.5-5.1l6.4,12.7
		l-8.4,36.1l-1.4,10.5l-3.3,1l-3.7,8.2l-4-1.3l-7.8,7.3l-7,6.4l-4.5-5.1l1.9,10.5l-3.3,6.9l1.6,3.7l-3.3,1.9l-1.6,0.4l-10.4-1.9
		l-13.9-8.2l-2.2-1.2l0.7-2.2l1.1-3.7l1.1-2.3l1.3-1.5l-0.5-0.4l0.4-1.9l-0.4-1.9l-0.4-0.4l-5.3,1.6l5.3-1.6l1.2-4.9l-7.8-6
		l-22.8-8.6l-3.8,2L841,773l-2.6-2.2h-1.9h-1.8l-1.6-1l-1.1-1l-3.3-3.7l-1.2-1.6l-3.9-5.3l-2.2-3.7l-2.2-3.2l-1.7-4.1L808.6,736.4z
		 M843.8,768.5l-0.4,0.7l-0.4,0.9l0.4-0.9L843.8,768.5z"/>
	<path class="st0" d="M378.9,497.1l-1.9,3.2l-1.6,3.7l-0.7,1l-4-2.2l-4-2.2l-4.4-2.1l-4-2.5l-4.9-2.1l-2.1-1.1l-1.9-1l-4.4-2.2
		l-4.8-1.9l0.7-1.3l1.6-3.2l1.9-3.2l1.6-3.7l1.6-2.8l1.6-3.2l4.8,2.2l4,2.2l4.4,1.9l4.5,2.2l4,1.9l4.4,2.8l4,1.9l-1.6,2.8l4.5,2.8
		l-1.6,2.8L378.9,497.1z"/>
	<path class="st0" d="M394,489l2.2,1.3l-0.4,6.8l-5.6-2.7l-8.5-4.2l-4.4-2.7l1.5-2.7l-4-1.9l-4.4-2.7l-4-1.9l-4.4-2.2l1.5-3.2
		l1.5-3.2l1.5-3.2l4.4,2.2l4.8,2.2l4,2.2l4,2.2h1.1l1.9,3.2l2.6,4.1l1.5,1.3l5.2,2.7l1.5,0.4l1.9,1.3h-2.4L394,489z"/>
	<path class="st0" d="M546.8,191.4l-3,10.4l16,24.9l-3,3.7l-2.6,1.3l-2.2,1.3l-8.9,2.2l-2.6,1l-0.9,0.7l-0.4,0.5l-0.5,1.2
		l-21.9-18.4l-25,14.5l-0.5-5.8l-0.4-4.6l-0.4-3.2l-0.7-1.9l-10.4,1l-3.3-0.4l-2.2,0.4H470l-5.5-0.4l-1.2-1l-0.9-0.7l-1-0.6
		l-3.3-4.6l-1.9,1l0.4-2.2l-0.1-0.6l-0.6-6.2l3-1l4,1.9l1.4-0.4l2.7-0.9l13.1-6.3l2.4-1.2l1.6-0.7l2.2-0.4l7.8-3.2l4.8-4.6l1-1.1
		l1.6-1.7l3.7-4.1l0.4-0.4l11.7-11.1l2.7-2.6l9.9-9.5l5.2,5.5l5.9-1.3l11.9,10.1l-5.2,3.2l-8.6,10.1l4,2.8L546.8,191.4z"/>
	<path class="st0" d="M332.6,383.2l0.6,2.1h-2.7l-4-1l-3.7-1.3l-4.6-1.1l-3-1.3l-4.5-1l-4.5-1l-3-1l-1.6,2.2l-3.3,3.7l-2.6,4.1
		l-1.9,3.2l-4,6.4l-2.2,4.1l-0.4,2.8l-1.4-0.4l-4.8-2.8l-4.4-2.8l-4.8-2.8l-2.1-1.6l-0.9-0.6l-1-0.6l-2.3-1.5l-0.4-0.3l-2.1-1.2
		l5.3-5.5l1.7-2l1.4-1.6l0.6-1.2l2.2-2.9l1.3-1.3l1.3-4.4l2-6.8l0.5-3.6v-1v-0.9l0.4,0.3l0.4-1.2l0.6-1.6l-1.4-0.9v-1.3l0.3-5.5
		l0.1-3.9l-1-1.3l-0.6-1.1l1.6,0.4l4,1.3l4.8,1.3l2.2,0.6l2.3,0.7l4.8,1.3l2.6,1.3l1.9,0.4l9.2,3.2l1.6,0.4l3.3,1l1.1-0.4l4.5,1.9
		l3.7,1l0.3,0.9l0.4,1.2l0.4,2.3l1,4.4l0.4,1.9l0.6,2.2l1.1,3.7l0.9,3.6l0.4,1.5l0.5,2.2L332.6,383.2z"/>
	<path class="st0" d="M480.8,468.4l-5.7,1.3l-3.7,0.4l-6.7,1.1l-1.9,0.4l-6.7,2.2l-5.7,1.3l-3,0.4l-2.2,1h-1.6l-3.3,1.3l-4.5,0.4
		l-0.7,0.4l-3.7,1l-1.2,0.3L429,480l-5.9,1.3l-6.7-3.7l-1.9-1v-6l1.6-2.2l3.3-5.9l6.7-1.9l2.6-3.2l2.6,1l-3.9-2l4.5-13.3l2.1-0.4
		l1.4-1.3l1.9-1.3l4-3.2l2.2,1l12,2l5.7,1.9l3,0.7l1.2,0.6l14,7.6l4,2.6l3.7,2.5l7.8,7.3l-1.9,1.9l-2.4,2l-3,0.4L480.8,468.4z"/>
	<path class="st0" d="M666,671.1l-4.5,7.8l-6.3,5.5l-6.7,5.5l-6.3,5.1l-7.5,5.5l-3-1l-4-5.1l-4.5-4.6l-7.5-7.3l1.1-1.3l8.1-8.7
		l3.3-3.2l3.7-2.8l1.9-1.3l1.4-1.2l4.5-3.7l3.4-2.9l1.9,1l3.3,2.2l3.3,2.2l2.6,1.3l3,1.9l1.9,1l1,0.6l2,1.2l1.1,0.9L666,671.1z"/>
	<path class="st0" d="M663.4,770.8l-20.4-6.9l-3.3,3.7l-2.6-3.2l-1.9-2.9l-0.6-1.1l-2.1-3.1l-1.7-2.3l-3.7-5.5L613,730.3l-20.3-28.5
		l-1.4-2.2l-3.7-5.7l-5-7.1l-3.4-4.6l-5.7-7.3l-1.9-2.2l4.8-1.9l-4.5-10.1h-8.9l-1.4-2l-0.4-0.4l-7.1-12.3l-2.4-3.9l-5.4-8.7
		l-2.2-4.6l3.7-3.7l3.3-2.8l3.7-3.7l2.2,2.8l3,3.2l2.6,2.8l2.6,2.8l1.6,1.3l3.3,3.7l3.3,3.2l2.2,2.2l2.2,2.2l2.2,2.8l2.6,1.9l0.9-1
		l3-2.8l3-2.2l11-8.7l4,2.2l7.8,4.6l-19.9,17.2l5.7,6l-0.7,1l17.8,19.2l7.6,7.2l4.5,4.6l4,5.1l3,1l-0.4,12.8l5,5.5l1.6,1.7
		l12.3,13.3l17.1,18.3L663.4,770.8z"/>
	<path class="st0" d="M676.8,823.8L656.5,811l-9.7-5.1l-9.6-5.1l-0.7-16l7.7-11.4l14.5,20.6l1.1,1.3l0.7,1l0.4,1.3l1.1,1.3
		l16.3,22.4l4,5.1L676.8,823.8z"/>
	<path class="st0" d="M755.6,723.7l-3.7,1.9l-4,2.8l-4,2.8l-3.3,1.9l-4,2.2l-3.7,2.2l-4,2.8l-2.2-3.2l-1.9-3.7l-1.9-2.8l-1.9-3.2
		l-2-3.7l-1.9-2.8l-0.5-1.3l-1.1-2l-1.3-2.1l3.7-2.2l1.9-1l2.6-1.3l3.7-2.2l3.7-2.2l3-1.9l1.4-1l3.7-1.9l1.1-1l3.3-1.9l1.6-1
		l1.4-1.3l2.2,4.6l4.3,6.9l3.7,6.9l3.7,6.9L755.6,723.7z"/>
	<path class="st0" d="M673.7,489.5l24.6-23.9l3.7,2.8l3.3-3.2l4.8,2.2l-1.6,4.1l11.7,7.1l2.6,1.6l3.7,2.2l-1.6,5.5l-0.4,11l-2,2.8
		l-1.3,1.9l-4-1.9l-2.6-4.6l-1.4,0.4l-2.6,0.6l-0.6,2l-1.9,5.1l-5.2,3.2l-7.7-6.4l-1.6-1.3l-4.4-0.7l-4-0.6l-0.7-1.9l-3-4.6
		l-6.7-3.2H673.7z"/>
	<path class="st0" d="M540.4,422l-2.2,3.7l-2,2l-2.1,2.1l-1.3,1.3l-4.3,4.6l-3.7,2.2l-2.2,1.9l-9.2,6.4l-9.7,3.2l0.4-3.2l3.7-7.3
		l-0.7-0.4l-1.9-2.2l-4.8,1H499l-1.6,0.4l-5.5-6.3l-2.2,1.9l-1.9-2.8l-0.7-1.9l-0.7-3.2l-2.2-4.5l-2.3-1.3l-0.4,4.1l-4.4-2.2
		l-3.7-2.2l1.1-1.3l2.6-2.8l0.7-1l3.3,1.9l15.2,1l3.7,0.4l1.1,1.3l-1-1.3l-3-7.3l3.3-1.3l9.9,2.8l14.7,4.1l8.1,2.2l1.6,0.4l5.2,1.3
		l4.5,1.3L540.4,422z"/>
	<path class="st0" d="M603.7,503.3l-2.2,2.2l-2.6,2.2l-1.6,2l-5.5-4.3l-4.7-2.9l-1.6-1.1l-2.2-1.5l-3.7-1.3l-11.9-3.7l-7-1.9l-3-1
		l-2.1-0.6l0.6-2l0.4-1l0.4-1.9l1.9-5.1h1.6l2.6,1l3.3,1.3l4.5,1.3l3.7,1.3l3.7,1l3.7,1.3l4,1.3l3-1l11,5.5l5.9,6.4L603.7,503.3z"/>
	<path class="st0" d="M384,437.2l-1.1,4.1l-0.4,6.9l-4.6-5.1l-3.8,7.3l-2,5.1l-3.4,6.4l-2.7,4.6l-1.6,3.2l-1.6,3.2l-1.6,3.2
		l-4.5-1.9l-4.1-2.2l-5-2.2L346,473l-4.6-2.2l-4.5-2.2l-4.1-1.9l1.6-3.2l2-3.2l1.6-2.8l1.6-3.7l4.6,1.9l1.1-2.8l2-3.2l1.1-1.9l0.8-1
		l7.2,1.9l1.1-3.7v-2.2l0.4-1l0.8-3.2l0.4-2.8l0.8-3.2l0.8-2.2v-1.3l0.8-2.8l4.1,1.3l3.8,0.4l4.6,1.3l4.1,1h4.1h4.1l-0.8,1.9l-0.4,1
		L384,437.2z"/>
	<path class="st0" d="M783.1,761.6l1.6,3.7l-6.3,1.3l-4.8,2.2h-0.4l-5.7,1.9l-1.6,0.4l-5.7,2.8l-8.6,4.6l-4-6.9l-0.7-1.3l-1.1-1.3
		l-1.6-2l-1.6-3.5l-1.6-2.9l-1-1.7l3.7-1.3l1.1-0.4l5.2-1.3l8.6-3.2l9.3-2.8l-1.1-3.2l5.7-2.2l1.3,2.1l4.3,6.9l1.9,2.8l1.6,3.2
		L783.1,761.6z"/>
	<path class="st0" d="M446.7,535.5l-1.9,1.3l-5.9-1.9l-6.3-2.8l-2.2-1l-3.3-2.8l-5.2-2.8l-4.5-1.3l-4.8-2.2l-1.9-1.3l-1.6-1.3
		l-3-3.2l-0.9-0.9l-2.6-2.8l3.7-3.2l3.3-3.2l3.7-3.2l3-2.8l3.7-3.2l3,3.7l3.3,3.7l3,3.2l3.3,3.7l3,3.2l4,3.7l3,3.7l4.8,5.1l-3.3,3.2
		l4,1.9l-0.7,1.9L446.7,535.5z"/>
	<path class="st0" d="M743.5,657.3l-2.2,2.2l-2.2,1.3l-4.5,2.8l-1.4,1l-5.2,3.2l-2.2-3.2l-2.2-3.2l-3-3.2l-1.1-1.3l-2.2-2.8
		l-1.9-2.2l-2.2-2.2l-2.2-2.8l-1.6-2.2l-5.9-3.7l1.1-1l0.7-0.4l3.7-2.8l8.1-7.3l5.2-3.7l2.6,1.9l2.2,1.9l0.4,0.4l3,2.8l2.2,2.2
		l3,2.2l2.2,2.8l2.2,3.2l2.2,3.2l1.1,1.9l0.4,0.6l3.7,6.2L743.5,657.3z"/>
	<path class="st0" d="M785.7,629.4l-3.3,1.3l-3,1l-3-5.1l-2.2,4.6l0.7,6l-8.1-0.9l6.3,4.1l-1.6,1l-2.4,1.3l-4.8-1.3l-2.2,2.2
		l1.6,3.2l-1.4,0.4l-4.8,2.8l-4,2.4l-2.2,1.3l-3.3,1.9l-3.7-6.2l-0.4-0.6l-1.1-1.9l-2.2-3.2l-2.2-3.2l-2.2-2.8l-3-2.2l-2.2-2.2
		l-3-2.8l-0.4-0.4l-2.2-1.9l-2.6-1.9l4-3.7l3.7-4.1l0.7-2.2l2.6-5.5l0.7-1l-3.3-7.3l0.7-1h2.6l3.3,1.3l4.5-1.9l1.1-1.9l0.7-1
		l5.2-4.6l1.9-0.4l7.5,4.4l0.4,0.3l10.4,5.9l0.4,0.4l5.8,4.3l2.6,7.8l2.6,1.9l1.9,2.2l4.5,8.2L785.7,629.4z"/>
	<path class="st0" d="M726.5,736.9l2.2,3.2l-6.7,3.2l-2.6,1.9l-3.7,2.2l-3.3,1.9l-3.3,1.9l-3,1.9l-1.6,1l-3.3,3.2l-2.2,2.2l-3.7,3.7
		l-1.1,1.3l-0.7,0.4l-1.1,1l-2.2,2.2l-2.6,2.2L670.5,752l-17.1-18.3l1.1-1.3l5.2-4.1l16,16.5l0.7-1l9.7-5.5l1.9-0.9l3-1.9l2.6-1.3
		l1.1-0.4l3.3-1.9l3-1.9l3.3-1.9l6.3-3.7l6.3-3.7l1.9,2.8l2.2,3.7l1.9,3.2l1.9,2.8L726.5,736.9z"/>
	<path class="st0" d="M629.8,604.6l4,3.6l-9.6,0.4h-4h-4.4h-4h-3.7h-8.5l2.2-4.1l1.1-1.3l1.9-3.6h3l-2.2-8.7l-1.9-5.5l-0.7-3.2
		l-1.9-1.9l-3.3-3.6l-3-3.2l1.1-1.3l1.1-1.3l1.4-1.9l1.3-1.9l1.3-1.9l1.9-2.2l2.2,1.3l4.4,5.5l2.2,2.2l2.2,2.2l3,2.7l3.7,5l-2.2,1.9
		l-3.7,3.2l2.2,2.2l1.9,2.2l1.1,1.3l1.1,1l3,3.2l1.5,2.2L629.8,604.6z"/>
	<path class="st0" d="M628.8,614.2l-2.6,2.2l-1.6,0.4l-0.7,1.9l-3,1.9l-0.7,1l-1.9,1.3l-1.9,2.8l-3,1.9l-0.7,1l-1.6,1.3l-2.2,1.3
		l-4,4.1l-4-2.2l-2.6-1.9l-1.9-1l-3.3-2.2l7.8-13.7l-1.1-1v-3.7h8.6h3.7h4h4.5h4l9.7-0.4l-3,2.8L628.8,614.2z"/>
	<path class="st0" d="M419.4,250.9l0.3,4.6L414,266l-3.4,6l-3.4,5.1l-3,5.1l-1,1.3l-0.7,1.3l-1.3,1.9l-2,1l-6.4,3.2l-1.6,1l-3.1,1.9
		l0.3-1.3V291l0.5-2.9l0.5-2.9v-4.5v-1.4l0.3-3.7l0.7-2.9v-4l0.5-3.2l0.5-3.2v-3.3l0.2-2.8l0.4-3.7l1.1-4.1l0.7-4.6l-0.4-2.2l7-1.3
		l4-1h2.7l3.7-1l3.4-0.4l2-0.4l1.3,10.1l-0.3,1.3l2-1L419.4,250.9z"/>
	<path class="st0" d="M696.3,688.9l-8.9,5.5l-8.9,5.1l-3,1.9l-1.6-2.8l-26,15.6l-0.7,1l-5.2,4.6l-1.1,1l-1.6-1.7l-5-5.5l0.4-10.5
		v-2.2l7.5-5.5l6.3-5.1l6.7-5.5l6.3-5.5l4.5-7.8l3.7,2l2.7,1.6l2.1,1.1l0.7,0.4l1.7,1.2l0.9,0.6l2.2,1.3l3,1.3l3.3,2.2l4.5,2.8
		l3.7,1.9L696.3,688.9z"/>
	<path class="st0" d="M816.8,747.9l-1.9,3.2l-0.7,1.5l-0.4,0.9l-1.1,0.4l0.7,1l-2.6,1.3l-2.4-0.4l-0.9-0.1l-2.6-1.9l-3-1.9l-3.7-2.8
		l-2.2-2.2l-1.1-1l-1.6-2.2l-3.3-3.2l-5.2-4.1l-3.9-3.6l-2.2-4.1l-1.1-1.3l-0.7-1.9l4-1.3l4-1l1.4-0.6l1.9-0.7l7-1.9l3.3-1.3l2.6-1
		l0.9,2.2l3,6.9l3.7,9.1l8.7,11L816.8,747.9z"/>
	<path class="st0" d="M634.6,325.7l-12.6-24l-31-11.6l2.6-0.7l-6.8-45.5l7.6,1.3l9.5,1.9l2.2,3.3l7,10.9l4.2,4.8l5.4,4.2l6.1,5.7
		l2,1.4l5.9,5.7v3.8l-2,2.3l1.4,0.7l0.6,0.7l0.6,0.6l0.9,0.4l0.8,0.4l0.4,0.7l0.4,0.6l0.3,0.6l0.1,0.4l0.8,0.4l0.4,0.1l0.4,0.4
		l0.1,0.4v0.6v0.4l8.2,4.4l0.8,1l7.3,7.6l2.8,1.8L634.6,325.7z"/>
	<path class="st0" d="M599.5,609.3l0.1,3.7l1.1,1l-7.8,13.7l-3.3-1.9l-3.3-1.9l-2.2-1.3l-1.1-1l-1.9-1l-1.9-1.3l-1.6-1L577,618
		l-1.4-1l-4.5-2.8l-3.7-1.9l-3-2.2l-4.8-2.8l-0.7-0.4l1.9-2.2l2.6-2.8l2.6-2.8l2.2-1.9l2.2-2.2l6.3-0.4l2.8-0.4l3.3-4.5l5.9-7.3
		l4.5-6l1.4-2.2l3,3.2l3.3,3.7l1.9,1.9l0.7,3.2l1.9,5.5l2.2,8.7h-3l-1.9,3.7l-1.1,1.3L599.5,609.3z"/>
	<path class="st0" d="M718.2,623l4,2.8l-14.8-3.3l-5.2-0.4l-4-0.4l-4-1l-8.1-1l-9.9-2.2h-3.3l-4.8-1l-4.8-1.3l-4-0.4l-4-1l-7.8-1.9
		l-2.6-0.4l-3-1l-7.5-1.9l2.2-1.9l1.4-1l1.1-1.3l1.1-1l1.6-1.3l1.9-1.3l1.9-2.2l2.6-1.9l3.7-3.2l3-2.2l2.6-2.2l1.1-1l1.6-1l2.6-2.8
		l1.6,2.2l2.6,2.8l1.9,2.2l2.2,2.2l4-0.4l3.3-1.9l3,1.9l3.3,2.2l3.7,2.2l2.2,1.9l3.3,2.8l1.6,1.9l3,2.2l2.6,2.2l5.2,6.4l3.7,2.8
		L718.2,623z"/>
	<path class="st0" d="M559.7,607.3l-5.2,4.6l-1.6,1.2l-1.1,0.6l-0.7,0.4l-1.1,1l-4,3.7l-2.6,1.9l-2.6,1.9l-0.4-0.6l-0.4-0.7
		l-2.6-3.2l-2.1-2.3l-2.1-1.2l-17.5-7.6l0.4-1.2l2.1-6.9l0.7-1.3l0.4-1.9l0.4-1l1.9-4.6l1.6-4.1l4.8,2.8l2.6,1.3l0.7,0.4l3.3,2.2
		l2.6,1.3l1.1,1l3.3,1.9l3.3,1.9l3.7,2.2l3.3,1.9l3.3,2.2l1.6,1l1.9,1L559.7,607.3z"/>
	<path class="st0" d="M334.5,313.9l-8.1-1.2l-1.1-0.3l-0.7-0.3l-1.7-0.4l-3,0.7l-1.6,0.4l-1.2,0.4l-2.4,0.6l-0.4-2.1l-0.1-0.5
		l-0.5-2l-0.6-2.7l-0.4-2l-0.4-1.3l-0.5-2.2l-1-3.7l-0.7-2.8l8.1-4.1l7.8-4.6l3-1.3l3.3-2.2L334.5,313.9z"/>
	<path class="st0" d="M561.3,451.8l0.4,2l0.4,2.9l-1.4,2.5l-1.6,2.9l-1.6,4.4l-3.8,7.8l-1,2v3.2l2.2,0.4l4,1.9l-1.9,5.1l-0.4,1.9
		l-0.4,1l-0.5,2l-5.7-2l-8.1-2.2l-1-0.4l-7.8-2l-4-1.2l-3.6-0.7l-7.3-1.5l-6.3-1.9l-1.4-1l-7.5-7.7l2.2-1.3l1.4-1.9l4.8-4.1l0.7-1.3
		l7.5-3.7l3-1.9l1.1-1l3-1.3l-2.2-5.1l5.7-2.2l1.1-1l-6.3-8.2l3.7-2.2l4.3-4.6l1.3-1.3l2.1-2.1l2-2l2.2-3.7l4-1.3l8.8,2.5l4.3,1.2
		l5.2,0.4l0.7-1l3.3,1.9l1.6,1.3l-2.2,2.8l-2.7,4.2l-0.5,0.9l-1,3.5l-0.7,6.3l-0.1,4.3l0.1,1.3L561.3,451.8z"/>
	<path class="st0" d="M753,651.8l4-2.2l4.8-2.8l1.6-0.4l-1.6-3.2l2.2-2.2l4.8,1.3l2.4-1.3l1.6-1l-6.3-4.1l8.1,0.9l-0.7-6l2.2-4.6
		l3,5.1l3-1l3.3-1.3l1.1-1l-4.5-8.2l-1.9-2.2l-2.6-1.9l-2.6-7.8l4.5,5.1l4.5,5.9l3,4.1l8.6,17.8l11.5,19.2l2.2,4.6l2.6,8v1.1
		l-0.3,1.3l-0.4,1.6l-0.5,2l-1,2l-1.4,2.3l-4.7,6.3l-1,1.2l-1.9,3.8l-1.1,2.6l-2.6-1.3l-1.9-3.2l-1.1-1.3l-1.9-1.9l-3.2-4.7
		l-3.8-5.8l-0.7-4.1l-3-5.5l-5.2-3.7l-6.7-5.9l-3.6-0.9l-2.1-0.5l-8.9-1.3l-4.5-3.7L753,651.8z"/>
	<path class="st0" d="M439.4,428.7l-1,1.6l-0.4,1.9l-4-4.6l-1.6-1.9l-0.4-1.1l-2.2-9.4l-0.3-0.4l-0.4-1.1l-3.9-8.5l-1.3-2l-0.3-0.4
		l-1.1-1.9l-4.8-8.2l-1-0.7l-1.2-1.1l-0.7-0.4l1.1-0.4l1.1-0.4l2.6-2.8l8.1-4.1l5.9-1.9l4.2-1.2l3.7,2.9l6.8,7.4l3,1.9l2.2,1.9
		l-1.1,2.2v2.2l-0.7,1.9l-2.1,6.5l-0.4,1.2l-1.1,1.3l-0.4,1.3l-1.9,5.1l-0.4,1L439.4,428.7z"/>
	<path class="st0" d="M584.8,554.3l-3,2.2l-3,2.8l-8.1,7.8l-8.1,6.9l-3,2.8l-3,2.8l-2.6-2.8l-0.9-1l-1.1-1.3l-3-2.8l-1.1-3.7
		l-0.4-3.2l1.4-1.9l1.6-1.9l3.3-3.2l2.2-1.9l4.5-3.7l2.2-1l0.7-1l1.4-1l1.9-1.3l1.1-1l2.2-1.9l1.9-1l2.6-1.9l2.6-2.2l3.3-1.9
		l2.3,2.7l1.2,1.5l2.3,2.7l4.5,4.6l-3,1.9L584.8,554.3z"/>
	<path class="st0" d="M523.2,585.8l-1.6,4.1l-1.9,4.6l-3.3-3.2l-3-2.8l-3-1.9l-4-3.2l-11.5-11l-3.3-2.8l-1.4-1l-2.3-2.1l-1.4-1.1
		l-3.7-2.8l3.3-4.1l3.7,2.8l1.6,1.9l2.2,1.3l4.8,3.7l4,2.8l2.6,1.9l3,2.2l5.9-7.3l2.6-3.2l7.5-10.1h3.3h1.1l3,1.3l3.3,1.3l-1.9,4.6
		l-1.4,3.7l-0.7,2.8l-0.7,1.3l-1.9,4.1l-0.7,2.2l-1.9,4.6l-1.4,3.2L523.2,585.8z"/>
	<path class="st0" d="M685.2,655.5l-2.2,1.3l-1.4,1.3l-3.3,2.8l-3,2.2l-9.3,7.8l-2.6-1.5l-1.1-0.9l-2-1.2l-1-0.6l-1.9-1l-3-1.9
		l-2.6-1.3l7.8-6.9l-1.1-1.3l11-8.7l10.8-8.7l1.6,2.2l1.9,1.9l7.5,9.7l-3,2.2L685.2,655.5z"/>
	<path class="st0" d="M715.2,717.5l1.1,2l0.5,1.3l-6.3,3.7l-6.3,3.7l-3.3,1.9l-3,1.9l-3.3,1.9l-1.1,0.4l-2.6,1.3l-3,1.9l-1.9,0.9
		l-9.7,5.5l-0.7,1l-16-16.5l0.7-1l6.3-4.6l2.6-2.2l3.3-1.9l-0.7-1.9l7.5-4.1l5.7-3.2l5.7-3.7l6.3-3.2l6.7-4.1l1.6,2.2l1.1,1.9l0.6,1
		l0.9,1.6l0.5,0.7l1.2,2.1l0.6,1l1.4,2.3l0.4,0.7l1.2,2.1l0.6,1.1L715.2,717.5z"/>
	<path class="st0" d="M516.2,519.6l-2.2,2.8l-0.7,1l-2.2,2.8l-3.3,2.2l-3.3,3.2v1l-2.6,2.8l-5.2-4.1l-4-3.2l-4-2.2l-3.7-3.2
		l-3.7-2.8l-4-2.8l-4.1-3.2l-2.6-1.3l0.7-1l3.3-2.8l3.7-1.9l1.1-0.4l1.1-0.4l2.2-1.3l1.9,1.3l4.8-1l1.1-0.4l4-1.3l5.2-0.4l1.1-1
		l7.8,6.4l3.3,2.8l4,1.9l3.7,1L516.2,519.6z"/>
	<path class="st0" d="M491.7,235l25.1-14.4l21.8,18.5l-0.4,1.1l-0.9,2.2l-1.9,8.7l-0.4,2.2l-0.9,2.6l-0.5,1.1l-0.7,0.7l-1.6,0.7
		l-1.6,0.4l-5.7,2.2l-1.6,0.4l-1.6,0.1l-2.4-0.1l-3-0.4l-2.1-0.3l-2.7-0.6l-5.5-1.2l-0.1-0.4l-2.2-2.5l-1.1-1.2l-4-6l-1.1-1.9
		l-2.6-3.2l-1.7-2l-0.4-5.1L491.7,235z"/>
	<path class="st0" d="M361.1,375.7l-1.1,4.5l-0.4,2.1l-0.4,2l-0.3,1.2l-1.2,6.9l-0.4,2l-0.1,0.4l-1.3,9.5l-0.7,4.1l-1.1,2.2
		l-5.2,7.3l-4,5.9l-1.9-1l-1.1-5.1l-1.4-4.1l-0.7-1l-0.6-3.1l-0.4-2l-0.4-1.3l-0.6-2.2l-0.4-1.2l-0.5-2.3l-0.7-3.7l-0.5-2l-0.5-2.7
		l-1-4.4l-0.7-2.5l-0.6-2.1l-0.5-2.3l-0.5-2.2l-0.4-1.5l-0.9-3.6l-1.1-3.7l-0.6-2.2l-0.4-1.9l-1.2-4.4l-0.4-2.3l12,3.7l0.7,0.3
		l3.7,1.3l9.7,2.2l3,0.9l3.3,1l1.9,0.5l1.9,0.4l-0.4,1.3l-0.1,0.4l-0.3,0.6l-0.7,2.9L361.1,375.7z"/>
	<path class="st0" d="M770.4,741l1.9,3.2l-5.7,2.2l1.1,3.2l-9.3,2.8l-8.6,3.2l-5.2,1.3l-1.1,0.4l-3.7,1.3l-0.5-1l-1.3-2.2l-1-1.3
		l-0.9-1.2l-1.9-2.8l-1.1-1.3l-0.7-1.3l-1.3-2.6l-0.9-1.6l-1.9-3.2l4-2.8l3.7-2.2l4-2.2l3.3-1.9l4-2.8l4-2.8l3.7-1.9l3.3-1.9
		l3.3,5.5l3,4.6l3.3,5.1l0.7,1.9L770.4,741z"/>
	<path class="st0" d="M448.5,493.8l-4,3.2l-3.7,2.2l-3.3-3.2l-3.3-4.1l-3.7-3.7l-3-3.7l-4-2.2l5.9-1.3l1.3-0.3l1.2-0.3l3.7-1
		l0.7-0.4l4.5-0.4l3.3-1.3h1.6l2.2-1l3-0.4l5.7-1.3l6.7-2.2l1.9-0.4l6.7-1l3.7-0.4l5.7-1.3l7-1l-0.4,2.2l3.3,2.2l-3,2.8l-5.2-1.9
		l-5.2,2.8l-0.7,0.4l-10.8,9.1l-3-3.2l-3.3,2.2l-4,3.2l-3.3,2.8L448.5,493.8z"/>
	<path class="st0" d="M598.5,569.5l-1.6,1.9l-1.1,1.3l-1.1,1.3l-1.6,2.2l-4.5,6l-5.9,7.3l-3.3,4.6l-3,0.4l-6.3,0.4l-0.4-1l-3-2.8
		l-2.6-3.2l-0.7-0.4l-1.9-2.2l-2.6-3.2l-2.6-2.8l3-2.8l3-2.8l8.1-6.9l8.1-7.8l3-2.8l3-2.2l3.3-2.2l3-1.9l2.6,2.9l2.8,3.1l1.3,1.6
		l0.9,1.1l4,4.6l-1.9,2.2l-1.3,2L598.5,569.5z"/>
	<path class="st0" d="M497,417l-15.2-1l-3.3-1.9l-0.7,1l-2.6,2.8l-1.1,1.3l-2.2,2.3l-3,2.2l-1.1,1l-3.7,5.9l-2.2,1l-2.2,1l-8.1,2.2
		l-2.6-0.4h-1.9l-1.6,0.4l-1.1,3.7l-6.3-5.9l0.4-1.9l1.1-1.3l6.3-11.9l0.4-1l1.9-5.1l0.4-1.3l1.1-1.3l0.4-1.2l1.9-6.6l0.7-1.9v-2.2
		l1.1-2.2l3,1.9l2.6,1l4,1.3l6.7,1.9l4,1.3l6.7,1.9l3.3,0.4l5.2,1l4.8,1.3l2.2,1l4.7,1.3l-3.3,1.2l3,7.3L497,417z"/>
	<path class="st0" d="M384,475.9l-4-2.2l-4-2.2l-4.8-2.2l-4.4-2.2l2.6-4.6l3.3-6.4l1.9-5.1l3.7-7.3l4.5,5.1l0.4-6.9l1.1-4.1l1.1-4.1
		l0.4-1l2.6-1.9l2.2,0.4l3,0.4l2.6,3.2l1.1,1l3,1.9l4.4,1l4.5,0.4l-0.7,2.2l0.7,4.6l1.1,2.8l-1.9,3.2l-0.4,3.7l-8.1,3.7l-9.2-10.1
		l-0.7-15.9l-3,1.3l-2.6,9.7l3.7,11.9l3.3,3.7l1.1,1.3l-3,20.1l8.6,5.1l2.6-2.8l1.9-1.9l8.9-1.9l3.7-10.5l4.7-7.1l0.4,0.6l-3.3,6
		l-1.6,2.2v6.4l-2.2,2.8l-1.4,1l-2.2-1l-5.2,1.9l-4.8,4.6l-1.1,1h-1.8l-5.2-2.8l-1.6-1.3l-2.6-4.1l-1.9-3.2L384,475.9z"/>
	<path class="st0" d="M810.9,756l-1.3,0.3l-6.5,1.2l-3.3,1.3l-3.3,1.9l-4.8,1.9l-7,2.8l-1.6-3.7l-1.9-2.2l-1.6-3.2l-1.9-2.8
		l-4.3-6.9l-1.3-2.1l-1.9-3.2l-1.1-2.2l-0.7-1.9l-3.3-5.1l-3-4.6l-3.3-5.5l4.8-3.2l3.3-1.9l1.4-1h0.7l1.9-1l2.6,5.1l1.1,2.2l1.9,3.2
		l0.7,1.9l1.1,1.3l2.2,4.1l4,3.7l5.2,4.1l3.3,3.2l1.6,2.2l1.1,1l2.2,2.2l3.7,2.8l3,1.9l2.6,1.9l0.9,0.1L810.9,756z"/>
	<path class="st0" d="M634.1,536.4l4,5.1l-1.9,1.3l-3,1.9l-4.5-2.2l-1.4-0.9l-1.9-1.1l-2.1-2l-0.7-0.5l-3.7-3.8l-2.1-2l-4.9-5.9
		l-5.8-6.9l-2.2-3.7l-2.6-2.2l-2.6-2.2l-1.6-1.2l1.6-2l2.6-2.2l2.2-2.2l2.2-1.9l3.7,3.7l4,4.1l2.6,3.2l1.9,3.2l2.6,2.2l0.7,1.3
		l1.4,1.9l2.2,3.2l1.1,1.3l0.7,1l3.3,4.1L634.1,536.4z"/>
	<path class="st0" d="M707.5,506l2.2,4.6l31,63.9l-6.6,6.9l-6.1-4.2l-2.3-1.6l-1-0.6l-4.8-2.8l-3.3-5.1l-3.3-2.8l-4.5-4.1l-3.7-3.2
		l-5.2-5.5l1.9-3.2l1.6-5.5l-2.6-6.4l-1.1-1.9l-1.1-1l-4-5.1l-0.4-1l-0.7-1.3l0.7-6.9l-0.4-4.6l-0.7-1.9l-3.7-6.4l-10.8-11.9
		l-2.6-2.8l-2.2-2.2h1.6l6.7,3.2l3,4.6l0.7,1.9l4,0.6l4.4,0.7l1.6,1.3l7.7,6.4L707.5,506z"/>
	<path class="st0" d="M645.3,459.2l-3.3-1.9l-3,1.3l1.6,2.8l4.8,7.8l-5.2,1l-2.4,2.9l-0.3,0.4l-0.4,0.4l-0.7,1l-0.6,0.9l-0.6,0.7
		l-5.7,6.8l-3.7,2.2l-1.4-1.9l-2.6,2.8l-7.5-8.2l-2.6,2.2l-11-7.3l-3.7-2.2l-3.3-1.9l0.7-1.3l-9.2-6.4l2.2-2.8l2.2-2.8l1.9-1.9
		l1.9-1l3.3-2.8l7.8-6l9.2-8.7l8.9,1h1.9l1.4-1l1.1-1l9.7,9.7l1.9,2.8l13,15.1L645.3,459.2z"/>
	<path class="st0" d="M641.9,656.4l1.6,1l-3.4,2.9l-4.5,3.7l-1.4,1.2l-1.9,1.3l-3.7,2.8l-3.3,3.2l-8.1,8.7l-1.1,1.3l-17.8-19.2
		l0.7-1l-5.7-6l19.5-17l12.2,7.1l1.1,1l3,1.9l3.3,1.9l1.9,1.2l1.1,0.6l3.3,1.9l1.1,0.4L641.9,656.4z"/>
	<path class="st0" d="M366.9,346l-0.4,3.1l-0.6,4.1l-0.7,5.2l-0.4,1.5l-0.5,2L363,367l-0.6,2.5l-1.9-0.4l-1.9-0.5l-3.3-1l-3-0.9
		l-9.7-2.2l-3.7-1.3l-0.7-0.3l-12-3.7l-0.4-1.2l-0.3-0.9l1.9,0.4l-0.7-2.2l-1.1-4.1v-1.3l0.7-3.2l0.7-3.7l1.6-4.1l1.6-4.1l1.1-3.7
		l0.7-2.8l1.1-3.7l0.7-2.8l1.1-3.2l1.1-2.2l2.6-0.4l6.3-1.9l8.1-1.3l6.7-1.3l1.9-0.4h1.1l3.3,4.1l2.2,3.2l3,4.1l-0.7,2.8l-0.4,3.7
		l-0.4,2.7l-0.7,3.6l-0.5,3.2l-0.7,4.2L366.9,346z"/>
	<path class="st0" d="M516.7,482.7l-3.3,2.2l-3.3,3.2l-0.7,3.3l-1.1,1.9l-1.9,1l-9.9,4.6l-3.3,1.3l-1.1,0.4l-3.7,1.9h-1.1l-3.3,1.9
		l-5.2-5.5l2.6-2.8l1.9-2.2l2.2-3.7l1.9-2.8l0.7-1l1.9-2.2l0.7-1l3.3-3.2l-3.7-3.7l-2.2-1.3l3-2.8l-3.3-2.2l0.4-2.2l3-0.4l2.6-2.2
		l1.9-1.9l7.8,7.8l7.5,7.7l1.4,1l6.3,1.9L516.7,482.7z"/>
	<path class="st0" d="M662.2,584.5l-2.6,2.8l-1.6,1l-1.1,1l-2.6,2.2l-3,2.2l-3.7,3.2l-2.6,1.9L643,601l-1.9,1.3l-1.6,1.3l-1.1,1
		l-1.1,1.3l-1.4,1l-2.2,1.9l-4-3.7l-4.5-5.1l-1.6-2.2l-3-3.2l-1.1-1l-1.1-1.3l-1.9-2.2l-2.2-2.2l3.7-3.2l2.2-1.9l-3.7-5.1l-3-2.8
		l-2.2-2.2l-2.2-2.2l-4.5-5.5l-2.2-1.3l3.3-1.9l3.3-2.2l2.6-1.9l3.7-2.2l2.6-1.3l2.6-1.9l3.3-1.9l4.5-2.8l1.9-1l1.6-1l1.1-1l9.7,5.1
		l2.7,1l2.8,0.9l8.6,2.2l2.6,0.7l4,1.1l-1.9,1.3l0.7,2.2l0.7,2.8l3,9.7l0.4,7.3L662.2,584.5z"/>
	<path class="st0" d="M287.5,404.2l0.4-2.8l2.2-4.1l4-6.4l1.9-3.2l2.6-4.1l3.3-3.7l1.6-2.2l3,1l4.5,1l4.5,1l3,1.3l4.5,1l3.7,1.3l4,1
		h2.7l0.7,2.5l1,4.4l0.5,2.7l0.5,2l0.7,3.7l0.5,2.3l0.4,1.2l0.6,2.2l0.4,1.3l0.4,2l0.6,3.1l0.7,1l1.4,4.1l1.1,5.1l-2.6-1l-4.8-1.3
		l-4.8-2.2l-3.3-2.2l-1.4-0.4l-4.5-1.3l-3.7-0.4l-3.7-1.3l-4-1l-4-1.3l-3.7-1l-3.7-1.3l-3.7-1l-3.3-1L287.5,404.2z"/>
	<path class="st0" d="M596.3,629.8l1.9,1l2.6,1.9l-11,8.7l-3,2.2l-3,2.8l-0.9,1l-2.6-1.9l-2.2-2.8l-2.2-2.2l-2.2-2.2l-3.3-3.2
		l-3.3-3.7l-1.6-1.3l-2.6-2.8l-2.6-2.8l-3-3.2l-2.2-2.8l9.4-8.2l3,2.2l3.7,1.9l4.5,2.8l1.4,1l0.7,0.4l1.4,1l1.9,1.3l1.9,1l1.1,1
		l2.2,1.3l3.3,1.9l3.3,1.9L596.3,629.8z"/>
	<path class="st0" d="M430.3,488l-3.3,3.2l-3.3,3.2l-3.3,2.8l-3.7,3.2l-3,2.8l-3.7,3.2l-3.3,3.2l-3-3.7l-6.3-6.4l-1-1.2l-0.4-0.5
		l0.4-6.9l-2.2-1.3h2.6h2.6l-1.9-1.3l0.4-0.4l1.1-1l4.8-4.6l5.2-1.9l2.2,1l1.4-1l2.2-2.8l1.9,1l6.7,3.7l4,2.2L430.3,488z"/>
	<path class="st0" d="M592.4,289.9l29.9,11.2l-62.6,34.8l-5.2-3.2l4.7-14.4l-2.6-9.1l0.3-5.7l0.4-6.2l1.1-6.9l3.7-15.2l20.3-36.4
		l4,5.7l2.1,0.4l6.5,44.2L592.4,289.9z"/>
	<path class="st0" d="M715.2,573.1l-4,1.3l-5.9,1l-5.9,1l-4.5,0.7l-3.3,0.5l-5.2,6.9l-2.6,2.8l-2.6,2.8l-3.3,1.9l-3.3,1.9l-4,0.4
		l-2.2-2.2l-1.9-2.2l-2.6-2.8l-1.6-2.2l4.5-5.5l-0.4-7.3l-3-9.7l-0.7-2.8l-0.7-2.2l1.9-1.3l8,0.7l8.8,0.6l3.9-0.6l5.3,1h3.3l3.9,0.6
		l3.2,1.3l6.7,3.2l3.7,3.6l5.2,3.3l4.5,2.8l4.8,2.8l-4.8-1L715.2,573.1z"/>
	<path class="st0" d="M749,593.6l-5.2,4.6l-0.7,1l-1.1,1.9l-4.5,1.9l-3.3-1.3h-2.7l-0.7,1l3.3,7.3l-0.7,1l-2.6,5.5l-0.7,2.2
		l-3.7,4.1l-4,3.7l-4-2.8l-8.9-4.6l-3.7-2.8l-5.2-6.4l-2.6-2.2l-3-2.2l-1.6-1.9l-3.3-2.8l-2.2-1.9l-3.7-2.2l-3.3-2.2l-3-1.9l3.3-1.9
		l2.6-2.8l2.6-2.8l5.2-6.9l3.3-0.5l4.5-0.7l5.7-0.9l6.3-1l4-1.3l4.8,1l4.8,1l1,0.6l2.3,1.6l7.9,5.3l3.6,2.3l3.6,2.3l0.6,0.4l1.6,1
		l5.7,4.1L749,593.6z"/>
	<path class="st0" d="M592.6,366.3l-9.9,4.9l-4.8-8.2l-6.5-9.2l8.7-6.2L592.6,366.3z"/>
	<path class="st0" d="M404.5,361.5l-0.8,2l-3.5,7.3l-5.5,9.6l-2-0.7l-4-1.2l-3.9-1.1l-7.2-2.3l-2.5-0.9l-0.4-0.1l-2.8-0.8l-6-1.4
		l-2.2-0.7l-1-0.4l-1.1-0.4l-0.7-0.3l0.7-2.6l1.4-5.4l0.6-2.1l0.4-1.6l0.8-5.5l0.7-4.3l0.4-3.3h0.8l1.2,0.4l9.1,1.4l5.1,1.4l4.3,0.4
		l5.1,1.4h3.5l3.5,1l4.6,1.4l4,2L404.5,361.5z"/>
	<path class="st0" d="M481.5,565.1l1.1-1.7l0.4-0.4l3.7,2.8l1.4,1.1l2.3,2.1l1.4,1l3.3,2.8l11.5,11l3.9,3.2l3,1.9l3,2.8l3.3,3.2
		l-0.4,1l-0.4,1.9l-0.7,1.3l-2.2,6.9l-0.4,1.2l-0.6-0.4l-12.5-5.3l-3.6-1.1l-1.4-0.4l-1.2-0.4l-1.4-1l-2.6-1.7l-3.4-2.9l-3.2-2.6
		l-1.6-1.5l-0.9-1.1l-1.2-1.6l-0.7-2l-3-9.8l-0.4-5.3l1.6-2.2L481.5,565.1z M519.4,597.3l-0.7,1.3l-2.2,6.9l-0.4,1.2l0.4-1.2
		l2.2-6.9L519.4,597.3l0.3-1.9l0.4-1l-3.3-3.2l-3-2.8l-3-1.9l-4-3.1l4.2,3.1l3,1.9l3,2.8l3.3,3.2l-0.4,1L519.4,597.3z"/>
	<path class="st0" d="M746.5,769l1.1,1.3l-3.3,1.9l-19.3,11l5.7,11.4v3.2l-5.2-5.1l-2.2-2.8l-3-2.8l-2.2-1.9l-1.9-2.2l-3.3-2.2
		l-3.3-1.9l-2-1.6l-2.4-2l-0.6-0.7l-0.9-1.1l-4.5-5.1l-1.4-2l-3-2.1l1.1-1.3l3.7-3.7l2.2-2.2l3.3-3.2l1.6-1l3-1.9l3.3-1.9l3.3-1.9
		l3.7-2.2l2.6-1.9l6.7-3.2l1.9,3.2l0.9,1.6l1.3,2.6l0.7,1.3l1.1,1.3l1.9,2.8l0.9,1.2l1,1.3l1.3,2.2l0.5,1l1,1.7l1.6,2.9l1.6,3.2
		L746.5,769z"/>
	<path class="st0" d="M375.3,417l-1.6,3.2l-2.6,5.5l-1.9,2.8l-3.7-0.4l-4-1.3l-3-0.4l-3.9-0.5l-7-1.3l-2.6-0.4l4-5.9l5.2-7.3
		l1.1-2.2l0.7-4.1l0.7,0.4l0.7,0.4l7.3,2.2l14.1,2.8l-1.9,3.2L375.3,417z"/>
	<path class="st0" d="M653,815.5l-0.4,0.3l-3.8,3.3l-1.3-1.7l-0.6-0.9l-1.9,0.9l-12.3,5.5l-1.5-3.2l-2.7,1.2l1.5,4.6l2.3,6.9
		l1.1,1.2l6,6.8l0.6,0.6l3.7,3.2l14.5,15.1l-2.6,2.2l-11.8,4.1l-2.3-4.9l-4.3,1.5l3.2,6.6l-11.4,2.2l-6.6,8.2l-40.4,12.3l-5.2,7.8
		l2.6,33.8L568.6,945L462,850.5l-12.9-2.8l-21.1-19.2l-0.5-0.7l-0.5-1.2l0.7-2.7l2.2-2.8l0.6-0.6l0.4-0.4l0.4-0.4l0.4-0.3l0.4-0.3
		l0.4-0.3l0.4-0.3h0.5l13.7,3.2l34.4,30.1l3,1.9l27.6-34.9l0.9-1.2l1.2-1.5l6.5,1.3l-1.2-17.4l1.7-2.9l1.4-1.9l0.4-1.3l0.4-0.9
		l1.5-58.6v-0.6l-1.2-0.3l-3.9-0.6l-0.4-0.1l1.1-8.4h3.7l-0.4,6l0.4-0.1l12.6-2.2l27.3,28.3l4,9.1l12.5,31.8l2.5,1.6l0.5-1.3l3.9,2
		l-13.7-34.2l0.7-4.5l0.4-3.1l-1.4-2.8l-4.3-3.7l-16.9-34.8l1.1-0.3l2.2,1.2l4.9,3.9l6.1,4.4l4.3,3.8l3.8,3.8l2.2,5.9l-0.3,4.3
		l2.7,2.1l0.6,0.5l0.7,1.2l2.2,3.2l4.2-3.3L566.2,715l0.4-0.7l0.7-1.2l0.7-2l1.2-1.7l8.6-6.4l11.7-4.1l-7.6,1.2l-4.8,2l-2.7,2.2
		l-4.6,2.2l-0.4-2.5l-3.6-0.4l-3.6-21.9l-2.4-5.8l-4.5-7l6.3-7.3l2.3-0.4l5.6,7.8l-1.1,1l-3,8.7l5.2-6.4l0.4-0.4l1.9,2.2l5.6,7.3
		l3.4,4.6l5,7.1l3.6,5.5l1.4,2.2l20.2,28.4l14,19.1l3.6,5.5l1.7,2.3l11.7,16.3l-7.6,11.4l0.7,16l9.6,5.1l9.7,5.1L653,815.5z"/>
	<path class="st0" d="M552.3,663.9l-7.3,2.9l-9.2,5.5l-4.9-18.5l-2.6-9.4l2.4-2.5l6-6.4l2.4-2.5l3-2.9l0.7-0.9l1.2-0.9l2.2,4.6
		l5.4,8.7l2.4,3.9l7.1,12.3l0.4,0.4l1.4,2l-2.6-0.9l-7.8,4.1L552.3,663.9z"/>
	<path class="st0" d="M639.2,434.3l30.2-53l1.3,6.4l16.7,5.5l16.7,15.1l7,8.7l1.6,11.9l0.7,5.9l-4,11.9l-3.3,4.6l-6.7,13.7l-0.7,1
		l-1.6-6.4l-3-7.8l-4-6.9l-10.5-6l-6.7,0.4h-14.8l-10.8-1l-3-1.9L639.2,434.3z"/>
	<path class="st0" d="M455,180.9l41.7,10l-2.1,2l-7.8,3.2l-2.2,0.4l-1.6,0.7l-2.4,1.2l-13.1,6.3l-2.7,0.9l-1.4,0.4l-4-1.9l-3,1.1
		v-1.9l-0.7-7.8l-0.1-2.2l-0.1-2.3l-0.3-4.7L455,180.9z"/>
	<path class="st0" d="M555.6,169.4l-2.6,2.2l-11.9-10l-5.9,1.3l-5.2-5.5L520,167l-2.2,2.1l-7.1-5.1l-2.1,2.6l-3.2-1.6l-6.4,1.1
		l-6,5.8l-3.8,5.9l-21.3-10.6L461,167l-7.5-2.3v-0.4v-1.5l-0.4-10l-0.4-3.2l-0.3-2.3l-1-10.5l-0.4-5.5l-1.2-11.9l-0.4-5.5v-1.8
		l0-4.5l-0.4-4.1l-0.6-6.9V95l2.2,1.9l5.2,5.1l7.9,6l2.2-1l5.7-3.7l4.3-1.9l7,2.2l4,1.3l4.8,1.3l12.6,4.1l19.3,9.7l7,4.1l9.2,13.7
		l14.8,16.5l4,13.3L555.6,169.4z"/>
	<path class="st0" d="M422.4,324.7l0.7-1.9l2.6-4.6l1.9-3.2l0.7-1.9l0.7-1.9h4.9l5.8-1.9l5.8-1.4l2.3-1.2l8.3-3.9l6.1-1.9l11.3-5.7
		h2.3h2.7l6.4,4.9l3,2.3l4.4,4.7l4.9,5.1l12,8.3l4.5-2.2l2.1,0.9l-2.8,8.9l2.3,3.1h-0.8l-15.5,5.9l-7.5,1.7l-4.6,1.1l-1.9,0.4
		l-3.3,1.3l-7.4,1l-15.1,2.7l-1.1-1l-1.5-1.9l-6.6-7.3l-4.4-3.2l-3.3-2.2l-1.9,1.9l-2.1,2l-4.6,4.3l-3.3-2.7l1.4-3.2l-2.2-4.6
		L422.4,324.7z"/>
	<path class="st0" d="M481.9,565.5l-1.8,2.3l-1.6,2.2l0.1,5.3l-3.9,1.1l-4.1,0.4l-6.8,0.7l-1.4,0.3l-6,1v-6.7l2.7-3.2l-3.1-5.1
		l2.7-1l-0.4-4.6l-3.4,1.4l-11.2-12.8l-0.4-0.4l-1.1-1.9h-1.6l-2.2,1l-19.1-7.8l-7,3.1l-2-4.1l-1.4-3.2l3.3-3.7l1-1l-1.1-6.4
		l4.9,2.2l4.5,1.3l5.3,2.8l3.3,2.8l2.2,1l6.4,2.8l6,1.9l1.9-1.3l1.1-1.9l0.7-1.9l3.3,1.9l3.8,2.2l4.1,3.2l4.1,2.8l3.8,3.2l3.8,2.8
		l4.1,3.2l3.3,2.8l4.1,2.2l3.8,2.8l-3.3,4.1l-0.4,0.4L481.9,565.5z"/>
	<path class="st0" d="M276.4,444.8l1.6-6.4l1.1-3.2l1.1-4.1l0.1-0.4l1.7-4.2l0.4-2.2l1.1-1l0.4-4.6l4,1.3l3.7,1l3,0.4l7.5,3.2
		l4.4,1.3l4,1l3.3,1.3l4,1.3l3.7,0.4v0.4l-0.4,2.2l2.8-0.5l1.1,0.4l1,0.4l0.6,0.4l0.7,0.4l0.7,0.4l4.8,2.2l1.4,0.4l1.3,0.5l-1.3,3.1
		l-4.5,8.7l-1.1,2.2l-1.9,3.2l-1.6,3.7l-1.9-1l-2.2-1l-3.3-1.9l-0.7,0.7l-2.1-0.1l-0.9-0.1l-3.7-1l-4-1.3l-3.3-1l-4-1l-4.5-1.3
		L291,448l-4.5-1l-2.6-1.3l-2.3-0.5L276.4,444.8z"/>
	<path class="st0" d="M514,568.1l-5.9,7.3l-3-2.2l-2.6-1.9l-4-2.8l-4.8-3.7l-2.2-1.3l-1.6-1.9l-3.7-2.8l3-3.2l3.3-3.7l4,0.4l3,0.4
		l4.8-0.2h1.6h1.9l4,1h3.7l4,0.3l4.5,0.4l-7.5,10.1L514,568.1z"/>
	<path class="st0" d="M420.1,403.4l-11,7.8l-10.4,8.2l-2.6,3.2l-5.2,2.2l-2.2-1.9l-5.2-9.1l-0.4-1.3l-4-2.2l1.9-3.7l2.2-4.6l3.3-6
		l4-8.2v-1l1.6-1.3l1.6-4.1l0.7-2.2l4,1.9l4-2.8l1.4-1.3l3-1.9l2.6,2.2l0.7,1.3l1.9,1.9l2.2,2.8l0.4,4.6l0.4,1.3l-0.4,1.9l0.7,0.4
		l1.2,1.1l1,0.7l4.8,8.2L420.1,403.4z"/>
	<path class="st0" d="M591,454.3l-1.9,1.9l-2.2,2.8l-2.2,2.8l-2.2,2.8l-2.2,3.2l-2.6-2.2l-4.5,2.8l-2.2-0.4l-3-0.4l-4-0.4l-2.6-0.4
		l-1.9-1.7l0.9-2.8l1.6-2.9l0.5-2l-0.4-2.5l-0.9-2.2l-0.6-1.6l-0.1-1.3l0.1-4.3l0.7-6.3l1-3.5l0.5-0.9l2.7-4.2l2.2-2.8l-1.6-1.3
		l-3.3-1.9l3.3-3.7l5.7-15.1l8.9-8.2l7-9.1l0.7-1.3l0.4-1l0.7-1l0.7-1.3l2.6,4.1l1.4,1.9l1.9,2.2l6,9.2l16.2,25l3,3.9l2.2,2.9
		l2.6,2.2l-1.1,1l-1.4,1h-1.9l-8.9-1l-9.2,8.6l-7.8,6l-3.3,2.8L591,454.3z"/>
	<path class="st0" d="M356.9,497.9l-1.9,3.2l-1.6,2.8l-1.9,3.7l-1.1,1.9l-0.4,1l-3,6l-1.6,1.3l-2.2-4.6l-1.9,1.9l-2.2-1.3l-1.1-1.3
		l-3.7-1.9l-4.5-2.9l-8.2-4.7l-2,0.1l-3-1.1l0.5-1.2l-3.6-1.6l-3.3,2.9l1.3-2.7l3.3-6.4l-4.4-2.2l-3.7-2.2l-2.2-0.4l0.7-2.8l1.1-4.1
		l0.1-0.4l0.6-2.3l0.4-3.2l0.7-1.3l0.4-1l4.8,2.2l4,2.2l1.1-3.1l0.5-0.6l0.5-0.4l0.7-0.5l0.6-0.4l-0.1-0.6l-0.1-2l0.4-2.3l0.5-2.5
		l2.7-5.8l1.6-3.7l1.9-3.2l1.1-2.2l1.9,1l3.7,1.3l5.2,2.2l-1.4,3.5l-1.6,2.8l-1.9,3.2l-1.6,3.2l4,1.9l4.4,2.2l4.5,2.2l-1.6,2.8
		l-1.6,3.7l-1.9,3.2l-1.6,3.2l-0.7,1.3l4.8,1.9l4.4,2.2l1.9,1l2.1,1.1l4.9,2.1l-0.7,1.3L356.9,497.9z"/>
	<path class="st0" d="M453.5,164.8l7,2.3l7.5,0.1l21.3,10.2l3.8-5.9l6-5.8l6.4-1.1l3.2,1.6l2.1-2.6l7.1,5.1l-0.5,0.5l-11.7,11.1
		l-0.4,0.4l-3.7,4.1l-1.6,1.7l-1,1.1l-2.7,2.6l-41.7-9.9l0.4-3.7l-1.1-3.7l0.4-1.9l-0.7-3.7V164.8z"/>
	<path class="st0" d="M561.6,525.5l-0.7,1.3l-1.6,1.9l-0.4,1l-1.9,2.8l-1.6,3.2l-1.9,2.8l-1.6,1.9l-0.7,1.3l-1.6,2.8l-1.1,1.9
		l-1.9,2.8l-3.3,5.5l-1.9,2.8l-1.9,2.8l-1.6-0.4l-3.7-1.9l1.4-5.1l1.1-2.2l0.4-1.3l0.4-2.8l1.1-2.2v-1l1.1-2.8l0.4-1.3l0.7-2.2
		l0.4-1l0.7-3.2l1.1-2.2l0.7-3.2l1.1-2.8l1.1-3.2l0.7-2.8l0.7-2.8l0.4-1l7,2.2l8.6,4.6l-2.2,3.2L561.6,525.5z"/>
	<path class="st0" d="M565.5,532.9l-2.6,2.8l-2.6-1.3l-1.6,2.8l1.1,0.4l-0.4,2.2l1.6,1.9l3.3,3.2l2.6,3.7l-1.9,1.3l-1.4,1l-0.7,1
		l-2.2,1l-4.5,3.7l-2.2,1.9l-3.3,3.2l-1.6,1.9l-1.4,1.9l-2.6-2.2l-1.6-1l-1.4-0.4l-2.2-1.3l1.9-2.8l1.9-2.8l3.3-5.5l1.9-2.8l1.1-1.9
		l1.6-2.8l0.7-1.3l1.6-1.9l1.9-2.8l1.6-3.2l1.9-2.8l0.4-1l1.6-1.9l0.7-1.3l0.4-1l2.2-3.2l10.9,6.6l-6.3,2.8L565.5,532.9z"/>
	<path class="st0" d="M409.2,519.6l1.4,1.3l1.9,1.3l1,6.4l-13.7-5.1l-4.8-2.2l-5.2-2.2l-1.7-1.2l-1.9-1.3l-0.7-1.1l-2.1-2.6l-4-5.1
		l-4.5-2.8l0.7-1l1.6-3.7l1.9-3.2l1.6-3.7l1.6-2.8l8.6,4.2l5.7,2.7l0.4,0.6l1,1.2l6.3,6.4l3,3.7l-3.7,3.2L409.2,519.6z"/>
	<path class="st0" d="M458.2,344.7l-3,3.7l-2.6,3.2l-1.1,1.3l-0.9,0.7l-1.7,1.5l-1.4,1l-6.4,4.1l-2.6,5.5l-1.1,2.2l-4.5,5.5l2.2,1.3
		l-1.6,2.2l3.7,2.9l-4.2,1.2l-5.9,1.9l-8.1,4.1l-2.6,2.8l-1.1,0.4l-1.1,0.4l0.4-1.9l-0.4-1.3l-0.4-4.6l-2.2-2.8l-1.9-1.9l-0.7-1.3
		l-2.4-2.1l-2.8,1.9l-1.4,1.3l-4,2.8l-4-1.9l5.2-9.1l3.2-6.9l0.7-1.9l3-6l2.2-4.1l3.3-6.4l1.1-1.9l2.2-4.6l5.2-9.7v-1l1.9-3.2
		l7.3,3.2l2.2,4.6l-1.4,3.2l3.3,2.8l4.7-4.4l2.1-2l1.9-1.9l3.3,2.2l4.4,3.2l6.7,7.3L458.2,344.7z"/>
	<path class="st0" d="M590.9,383.6l27.2,6.2l0.6-16.4l-3.8-17.9l52-26.5l8.4,2.8l-3.6,5.3l-1.1,2.8l-2.2,3.7l-1.9,4.1l-0.4,3.7
		l0.4,6.4l2.2,3.2l2.2,5.1l-1.9,6l-1.1,3.2l1.3,6.4l-30.2,53h-1.4l-6.7-1.3l-3,1l-1.4,1l-2.6-2.2l-2.2-2.9l-3-3.9l-16.1-25.1l-6-9.2
		l-1.9-2.2l-1.4-1.9L590.9,383.6z"/>
	<path class="st0" d="M393.4,381.4l-1.6,4.1l-1.4,1.3v1l-4,8.2l-3.3,6l-2.2,4.6l-1.9,3.7l-14.1-2.8l-7.3-2.2l-0.7-0.4l-0.7-0.4
		l1.3-9.5l0.1-0.4l0.4-2l1.2-6.9l0.3-1.2l0.4-2l0.4-2.1l1.1-4.5l0.1-1l0.7-2.9l0.3-0.6l0.1-0.4l0.4-1.3l0.6,0.3l1,0.4l0.9,0.4
		l2.1,0.6l5.7,1.3l2.6,0.7l0.4,0.1l2.4,0.9l6.8,2.1l3.7,1.1l3.7,1.2l1.9,0.6L393.4,381.4z"/>
	<path class="st0" d="M285.2,412.4l-1.9,6.4l-0.4,4.6l-1.2,0.9l-0.4,2.2l-1.7,4.2l-0.1,0.4l-1.1,4.1l-1.1,3.2l-1.4,6.4l0.5,5.7
		l0.5,1.1l0.9,1.7l0.7,0.6l-1.4-0.4l-1.2,0.1l1.3,1.3l2.8,5.1l-2.6-0.6h-2.2l-3.7-1h-0.6h-5.2l-4-1.9l-3.7-1l-3.7-1l-4.5-1.4
		l-5.8-1.4l-5.7-1l-5.2-1.4l-3.4-1.1l-2.2-0.7l-2.6-1.3l-1.2-0.5l-8.6-3.3l-5.7-1.4l-6.7,0.9l-11-1.4l-16.3-1.9l-11-1l-16.7-1.4
		l-17-1h-3.3h-3l1.9-1.9l38.5,1.4l2.2-4.2l6.7-13.6l4-3.8l20.9-19.9l4,0.4l13.3,0.4l0.7-9.3l-14.8-5.2l-11.9,1.9l-12.9,13V382
		l-33.4,5.5l-2.7,0.4l-0.9-5.2v-0.4l31.6-11l12.6-17l11.1-6.9l14.1,6.9l4.8,2.8l34.9-4.1V342l15.7,5.5l-8.9-14.7l13.7,5.3l1.4,1.6
		l0.7,1l1.7,0.4l3.9,1l0.6,1.1l1,1.3l-0.1,3.9l-0.7,5.5v1.3l1.8,0.9l-0.6,1.6l-0.4,1.2l-0.8-0.3v0.9v1l-0.1,3.6l-2,6.8l-1.3,4.4
		l-1.3,1.3l-2.2,2.9l-0.6,1.2l-1.4,1.6l-1.7,2l-5.3,5.5l2.1,1.2l0.4,0.3l2.3,1.5l1,0.6l0.9,0.6l2.1,1.6l4.8,2.8l4.4,2.8l4.8,2.8
		l1.4,0.4L285.2,412.4z"/>
	<path class="st0" d="M399.9,523.6l13.7,5.1l-1,1l-3.3,3.7l3.6,7.3l-12.7,5.5l-10.8-4.6l9.9-10.5l-2.2-2.2l-4.5,2.3l-7.7,4.1l-5.7,1
		l4-4.1l-4.8,1l0.7-3.7l-3.3,1l4-6l3.3-1.3l-4.4-1.3l-15.2,6.9l1.1-2.2l-9.9-1.3l-8.9-6.9l1.6-1.3l3-6l0.4-1l1.1-1.9l1.9-3.7
		l1.6-2.8l1.9-3.2l0.4-0.9l0.7-1.3l4,2.5l4.4,2.1l4,2.2l4,2.2l4.5,2.8l4,5.1l2.1,2.6l0.9,1.1l1.9,1.5l1.7,1.2l5.2,2.2L399.9,523.6z"
		/>
	<path class="st0" d="M283.7,418.8l1.9-6.4l2.2-7.8l4,1.3l3.3,1l3.7,1l3.7,1.3l3.7,1l4,1.3l4,1l3.7,1.3l3.7,0.4l4.5,1.3l1.4,0.4
		l3.3,2.2l4.8,2.2l4.8,1.3l2.6,1l1.9,1l-1.3,2l-0.9,1.7l-1.6,1.9l-1.6,1.3l-0.7,1.3l-3.6,5.5l-1.3-0.5l-1.4-0.4l-4.8-2.2l-0.7-0.4
		l-0.7-0.4l-0.6-0.4l-1-0.4l-1.1-0.4l-2.8,0.5l0.4-2.2v-0.4l-3.7-0.4l-4-1.3l-3.3-1.3l-4-1l-4.5-1.3l-7.3-3.2l-3-0.4l-3.7-1
		L283.7,418.8z"/>
	<path class="st0" d="M498.9,544.3l-3.3,3.7l-3,4.1l-3.3,3.7l-3,3.2l-3.7-2.8l-4-2.2l-3.3-2.8l-4-3.2l-3.7-2.8l-3.7-3.2l-4-2.8
		l-4-3.2l-3.7-2.2l-3.3-1.9l2.2-2.2l1.9-1.9l1.1-1.3h1.1l1.4-1.9l0.7-1l2.6-2.2l1.1-1l3-2.2l0.4-1l1.6-1l2.2-1.9l2.6-2.2l2.6,1.3
		l4,3.2l4,2.8l3.7,2.8l3.7,3.2l4,2.2l4,3.2l5.2,4.1l-1.1,4.6L498.9,544.3z"/>
	<path class="st0" d="M720,571.7l-4.5-2.8l-5.2-3.3l-3.7-3.6l-6.7-3.2l-3.2-1.3l-3.9-1h-3.3l-5.3-0.1l-3.9,0.1l-8.8-0.6l-2.7-0.7
		l5.9-0.4l-0.7-1.3l-1.9-11.4l-1.1-7.3l-0.7-4.1l-3.7-2l-4.5-2.8l-1.1,1.3l-4.5,2.2l-1.6,1l-1.1-1.9l-5.2-5.5l-5.7-5.9l-4-3.7
		l4.8-3.7l-2.2-2.2l-2.2-3.2l-2.2-3.2l-2.2-2.8l-2.2-3.2l-2.2-2.8l-4.3,2.9l-3.2,2.1l-1.9,1.9l-1.9,1l-1.6-1l-1.6-1.9l1.4-3.2
		l1.1-2.8l2.2-5.5l2.6-2.8l1.4,1.9l3.7-2.2l5.7-6.8l0.6-0.7l0.6-0.9l0.7-1l0.4-0.4l0.3-0.4l2.4-2.9l5.2-1l-4.8-7.8l-1.6-2.8l3-1.3
		l3.3,1.9l5.9,2.8l9.8,12.2l1.1,1.3l6.9,8.8l4.8,5.1l2.2,2.2l2.6,2.8l10.7,12l3.7,6.4l0.7,1.9l0.4,4.6l-0.7,6.9l0.7,1.3l0.4,1l4,5.1
		l1.1,1l1.1,1.9l2.6,6.4l-1.6,5.5l-1.9,3.2l5.2,5.5l3.7,3.2l4.5,4.1l3.3,2.8L720,571.7z"/>
	<path class="st0" d="M536.4,519.2l-1.6,4.1l-4.8,6l-2.6,3.7l2.6,2.2l-5.7,7.3l3,1.9l-2.2,2.8l-2.6,3.7l-3,3.7l-4-0.9h-3.7h-4h-1.9
		h-1.6l-4.8-0.2l-3-0.4l-4-0.4l3-4.1l3.3-3.7l1.9-4.6l1.1-4.6l2.8-2.8v-1.2l3.1-3.2l3.3-2.2l2.2-2.8l0.7-1l2.2-2.8l3.3-6l1.1-5.1
		l1.1-4.1l1.4-4.6l2.6-7.3l1.4-3.7l1.4-5.1l4,1.2l7.8,2l-0.4,1.2l-0.1,0.4l-0.4,2.3l2.2,2.8l-4,12.3l-1.2-0.4l-2.1-0.5l-1.6,4.1
		l-0.7,1l3.3,1l2.3,0.9L536.4,519.2z"/>
	<path class="st0" d="M457.3,252.1l-1.9,0.4l2.7,5.6l-1.3,2.5l-0.6,1.2l-0.4,1l-0.4,1.3l-0.6,1.5l-1,1.6l-0.4,0.6l-0.3,0.4l-3,4.8
		l-2.6,4.7l-0.9,1.3l5.5,3l-2,3l-1.7,3.3l-3.8,1.9l-5.1,1.4l1.7,2.8l-4.5,10.1l-3,6.9h-5.1l-0.6,1.5l-0.7,1.9l-0.8-3.2v-4.1l-2-10.1
		v-3.7l1-3.7l0-2.9v-3.2v-2.9V280l-0.8-1.3l-8.1,2.8l-5.9,2.2l-4.5,1.9l-4,1l1.4-1.9l0.7-1.3l1.1-1.3l3.3-5.1l3.7-5.1l3.7-6
		l6.3-10.5l0-4.6v-3.5h5.3l7.8-1h3.7l4.8-0.5l4-0.5h2.7h1.6h3.3l7.8-1.3v2.8l-1.9,3.7L457.3,252.1z"/>
	<path class="st0" d="M360.5,429.1v1.4l-0.8,2.3L359,436l-0.4,2.8l-0.8,3.3l-0.4,1v2.3l-1.1,3.8l-7.2-1.9l-0.8,1l-1.1,1.9l-2,3.3
		l-1.1,2.8l-4.6-1.9l-5.3-2.3l-3.8-1.4l-2-1l4.6-9l1.3-3.2l3.7-5.7l0.8-1.4l1.6-1.4l1.6-1.9l0.9-1.7l1.3-2l2.7,0.4l7.2,1.4l4,0.5
		l3.1,0.4L360.5,429.1z"/>
	<path class="st0" d="M574.4,504.9l-2.6,3.2l-5.9,8.7l-0.4,1.3l-1.4,3.2l-8.6-4.6l2.6-4.1l-4-2.2l-3.7-1.3l1.1-4.1l1.1-1.9v-1.8
		l0.7-2.8l1.1-1.9l0.4-2.2l0.4-0.4l0.4-2l2.1,0.6l3,1l7,1.9l11.9,3.7l-1.4,1.3l-1.9,2.2L574.4,504.9z"/>
	<path class="st0" d="M611.1,629.3l1.6-1.3l0.7-1l3-1.9l1.9-2.8l1.9-1.3l0.7-1l3-1.9l0.7-1.9l1.6-0.4l2.6-2.2l2.6-2.2l3-2.8l7.5,1.9
		l3,1l-0.7,4.6l3.9,4.3l2.6,2.2l2.2,2.8l1.6,1.9l1.1,1l2.2,2.2l1.9,2.2l-9.9,8.2l-1.6,1.3l-3.7,3.2l-4.8,3.7l-3,2.2l-1.1,1.3
		l-1.1-0.6l-1.9-1.2l-3.3-1.9l-3-1.9l-1.1-1L618,642l-1.2-0.5l-3.7-2l-3.7-2.2l-4-2.2l4-4.1L611.1,629.3z"/>
	<path class="st0" d="M874,605.4l18.1,25.7l14.5,32.9l6.4,13l-2.2,0.6l-9.9,6l-5.9,3.7l-7.8,4.6l-5.2,2.8l-2.2,1.9l-4,2.2l-2.6,1.3
		l-3,1.9l-3,2.2l-3.7,1.9l-11.5,6.5l-16,9l-3.7,2.8l-4-5.5l-1.2,0.9l-2.6,1.6l-5.7,4.1l-4.5,2.8l-2.2,1.9l-3.3,2.8l0.7,2.8l-1.1,0.4
		l-3.7-9.1l-3-6.9l-3.4-9.2l-0.5-1.9l-0.1-1.3l0.1-3.7l0.4-2l1.3-4.7l1.1-2.6l1.9-3.8l1-1.2l4.7-6.3l1.4-2.3l1-2l0.5-2l0.4-1.6
		l0.3-1.3v-1.1l-2.6-8l-2.2-4.6l-11.5-19.2l-8.6-17.8l-3-4.1l-4.5-5.9l2.2-1.9l3.3-1.3l3.3,0.4l-3.2-0.5l55.9-50.4l18.3,23.9
		l2.6-1.3l2.6,3.7l-2.2,1.9l7,9.7L874,605.4z"/>
	<path class="st0" d="M426.7,311.3l0.7,3.6l-1.9,3.2l-2.6,4.6l-4-2.2l-3-1.9l-4.4-1.9l-4-1.3l-7-1.3l-4.4-0.4l-3-1.5h-1.9l-5.2-0.8
		l-7-3.2l-1.4,0.4l-1,0.4l-1.9,0.4l1.9-4.6l2.2-3.2l2.1-2.8l2.2-2.2l1.2-0.9l3.7-2.2l3.4-1.9l1.7-1l7-3.2l2.2-1l4-1l4.5-1.9l5.9-2.2
		l8.1-2.8l-0.2,1.3v0.9l1,2.9v3.2l0,2.9l0,3.7v3.7l1,10.1v4.1H426.7z"/>
	<path class="st0" d="M877.4,786.9l-5.5,1.7l-8.5-3.7l-0.7,0.4l-1.6,1l-8,10.9l-3.4,2.3l-2.7,1l-0.4-1.9l2-1l-2.7-8.5l-1.3-0.6
		l-0.6-4.7l-1.4,1.1h-1.2h-0.7l-1.4-7.1l-0.1-0.4l-2.3-3.8l-2.7-3.8h1.6h2l2.7,2.3l2.9-3.4l4-2l23.6,8.8l8,6.2L877.4,786.9z"/>
	<path class="st0" d="M725.2,499.5l0.4-11l1.6-5.5l7.5,3.2v-6l1-1.3l-0.4-2.2l-3,0.4l-1.9-2.8l-1.9-2.8l-0.7-11l13.1-3.9l1.2,0.4
		l0.4,0.1l6.7,2.1l1.1,3.2l-1,0.1l-4.9,0.7l2.4,1.3v0.4v1.7v2l-0.1,1.9l1.5,1.5l-0.4,1l1.2,1.2l0.1,0.6l-0.4,1.7l0.1,0.4l2.2,4.2
		l-0.4,4.6l-0.4,2.8l5.6-1l-0.4-3.2l1.9-1.9l3,0.4l6.6,1l5.6,7.3l-2.6,3.2l2.6,2.2l2.6-1.9l3.7,2.2v1.9l19.7,0.4l1.1,18.3l18,0.4
		l2.8,3.3l6,7.1l3.7-3.7l4.4,4.1l-6.9,12.8l12.9,17.3l-7.5,6.4l-7.6-7.3h-8.4l-10.7-5.4l-9-5.9l-2.7-4.8l-35.9-13.3L725.2,499.5z"/>
	<path class="st0" d="M727.2,814.8l-0.6-0.1l-1.7,0.4l-0.9,0.7l-0.7,1.1l-0.6,1L722,819l-1.7,1l-3.4,0.4l-1.1,0.4l-0.6,0.7l-1.3,1.3
		l-1.2,1.5l-0.4,0.3l-3,2.2l-4,0.3l-7,0.4l-1.7-4.3l-3.6,0.4l-0.7,0.1l-0.6,0.6l-3.7,3.6h-1h-2.7l-1.6-1l-4-5.1l1.7-3.3l3.3-6.6
		l0.3-0.4l1.1-2.2l1.4-2.8l0.4-0.6l5.3-10.7l1.3-2.6l2.1-4.3l0.6-1.3l0.4-4.6V782l-1.6-3.7l1.7,1.6l1.1,1.3l0.6,0.7l3,2.8l2.7,2.8
		l3.3,3.7l1.6,2.2l3,3.2l2,1.7l0.6,0.5h-2.2l1.6,1.3l1.9,1.9l12.6,11.7l1.2,1.1h-0.6L727.2,814.8z"/>
	<path class="st0" d="M555.7,618l-0.7,0.4l-3.7,3.7l-3.3,2.8l-3.7,3.7l-1.2,0.9l-0.9,0.9l-3,2.9l-2.4,2.5l-6,6.4l-2.4,2.5l-19.5-21
		l-1.7-0.4l-3.9-1.2l-0.4-0.1l-4.8-2.9l-0.4-0.3l-13-6.9l-6.9-6.4l-5.9-5.5l-2.6-2.2l-12.9-18.9l5.9-1l1.4-0.3l6.7-0.7l4-0.4
		l3.9-1.2l3,9.8l0.7,2l1.2,1.6l1,1.1l1.4,1.3l3.3,2.8l3.4,2.9l2.6,1.7l1.6,1l1.2,0.4l1.4,0.4l3.6,1.1l12.5,5.3l0.6,0.4l17.3,7.4
		l2.1,1.2l2.2,2.3l2.6,3.2l0.9,1.3l5.2-3.7l4-3.7l1.1-1l0.7-0.4l1.1-0.6l1.6-1.2l5.2-4.6l4.8,2.8L561,613l-2.2,1.9L555.7,618z"/>
	<path class="st0" d="M271.1,457.6l-0.9,2.8l-1,3.7l-1.2,6.3l-0.7,3.6l-2.3,0.7l-1.4,0.1l-3.7,0.1l-8.4-0.7l-5.2-1.2l-10-3.7
		l-6.5-5.7L212,441.2l3.7,0.9l9.7,3.7l2.6,1.2l5.4,1.7l5.2,1.3l5.7,1l5.8,1.2l4.7,1.3l3.7,0.9l3.7,1l4.2,2L271.1,457.6z"/>
	<path class="st0" d="M728.4,798l-11.9,1.3l-2.6-1l-0.6-0.5l-2-1.7l-3-3.2l-1.6-2.2l-3.3-3.7l-2.6-2.8l-3-2.8l-0.6-0.7l-0.9-1.1
		l-1.9-1.9l-0.7-1l-1.7-2.2l-2.3-2l-0.4-0.4l-1.9-2.2l2.6-2.2l2.2-2.2l1.1-1l0.7-0.4l3,2.1l1.4,2l4.5,5.1l0.9,1.1l0.6,0.7l2.4,2
		l2,1.6l3.3,1.9l3.3,2.2l1.9,2.2l2.2,1.9l3,2.8l2.2,2.8l5.2,5.1H729L728.4,798z"/>
	<path class="st0" d="M568.1,597.3l-2.2,1.9l-2.6,2.8l-2.6,2.8l-1.9,2.2l-1.9-1l-1.4-1l-3.3-2.2l-3.3-1.9l-3.7-2.2l-3.3-1.9
		l-3.3-1.9l-1.1-1l-2.6-1.3l-3.3-2.2l-0.7-0.4l-2.6-1.3l-4.8-2.8l0.7-1.9l1.4-3.2l1.9-4.6l0.7-2.2l1.9-4.1l0.7-1.3l0.7-2.8l1.4-3.7
		l1.9-4.6l3.7,1.9l1.6,0.4l2.2,1.3l1.4,0.4l1.6,1l2.6,2.2l0.4,3.2l1.1,3.7l3,2.8l1.1,1.3l0.9,1l2.6,2.8l2.6,2.8l2.6,3.2l1.9,2.2
		l0.7,0.4l2.6,3.2l3,2.8l0.4,1L568.1,597.3z"/>
	<path class="st0" d="M420.5,327.8v-0.3l-5.2,10.3l-2.2,4.9l-1.1,2l-3.3,6.8l-2.2,4.3l-3.7-2l-4.4-1.4l-3.3-1h-3.3l-4.8-1.4l-4-0.4
		l-4.8-1.4l-8.6-1.4l-1.1-0.4h0l0.6-3.6l0.7-4.1l0.5-3.2l0.5-3.6l0.4-2.6l0.4-3.6l0.7-2.7l3-12.7l1.9-0.4l1.1-0.4l1.4-0.4l6.9,3.2
		l5.1,1h1.9l3,1.3l4.3,0.4l6.9,1.3l4,1.3l4.3,1.8l3,1.8l4,2.2l-0.7,1.8L420.5,327.8z"/>
	<path class="st0" d="M798.6,718.5l-3.3,1.3l-7,1.9l-1.9,0.7L785,723l-4,1l-4,1.3l-1.9-3.2l-1.1-2.2l-2.6-5.1l-2.2-4.1l-1.9-3.2
		l-2.6-7.3l-3.3-12.8l-1.1-3.2l-1.1-3.2l-5.2-18.3l-1.6-2.2l-2.6-2.8l-2.2-2.8l3.3-1.9l4.5,3.7l8.9,1.3l2.1,0.5l3.6,0.9l6.7,5.9
		l5.2,3.7l3,5.5l0.7,4.1l3.8,5.8l3.2,4.7l1.9,1.9l1.1,1.3l1.9,3.2l2.6,1.3l-1.3,4.7l-0.4,2l-0.1,3.7l0.1,1.3l0.5,1.9l2.6,6.9
		L798.6,718.5z"/>
	<path class="st0" d="M524.4,449.5l2.2,5.1l-3,1.3l-1.1,1l-3,1.9l-7.5,3.7l-0.7,1.3l-4.8,4.1l-1.4,1.9l-2.2,1.3l-7.8-7.8l-7.8-7.3
		l-3.7-2.5l-4-2.6l-14-7.6l-1.2-0.6l-3-0.7l-5.7-1.9l-12-2l1.1-3.7l1.4,0.1h1.9l2.6-0.1l8.1-2.2l2.2-1l2.2-1l3.7-6l1.2-0.7l3-2.2
		l2.2-2.2l3.7,2.2l4.5,2.2l0.4-4.1l2.2,1.3l2.2,4.6l0.9,3.3l0.7,1.9l1.7,2.7l2.2-1.9l5.7,6.4l1.6-0.3h1.4l4.8-1l1.9,2.2l0.7,0.4
		l-3.7,7.3l-0.4,3.2l9.7-3.2l9.2-6.4l2.2-1.9l6.3,8.2l-1.1,1L524.4,449.5z"/>
	<path class="st0" d="M526.1,491.9l-2.6,7.8l-1.6,5l-1.1,4.4l-1.1,5.4l-3.7-1l-4-2l-3.3-3l-7.8-6.9l-1.1,1l-5.2,0.4l-4,1.4l-1.1,0.4
		l-4.8,1l-1.9-1.4h1.1l3.3-2h1.1l3.7-2l1.1-0.4l3.3-1.4l9.9-5l1.9-1l1.1-2l0.7-3.4l3.3-3.4l3.3-2.4l1.6-1.4l7.3,1.6l3.6,0.8
		l-1.4,5.4L526.1,491.9z"/>
	<path class="st0" d="M674,554l0.7,1.3l-5.9,0.4l2.7,0.7l-8-0.7l-4-1.1l-2.6-0.7l-8.6-2.2l-2.8-0.9l-2.7-1l-9.7-5.1l3-1.9l1.9-1.3
		l-3.9-5.2l-3.7-5.5l-3.3-4.1l-0.7-1l-1.1-1.3l-2.2-3.2l-1.4-1.9l-0.7-1.3l-2.6-2.2l-1.9-3.2l-2.6-3.2l-4-4.1l-3.7-3.7l2.2-2.2
		l2.2-2.2l3-2.2l3.3,3.2l1.4,1.9l1.6,1l1.9-1l1.9-1.9l3.2-2.1l4.3-2.9l2.2,2.8l2.2,3.2l2.2,2.8l2.2,3.2l2.2,3.2l2.2,2.2l-4.8,3.7
		l4,3.7l5.7,5.9l5.2,5.5l1.1,1.9l1.3-0.9l4.5-2.2l1.1-1.3l4.5,2.8l3.7,1.9l0.7,4.1l1.1,7.3L674,554z"/>
	<path class="st0" d="M604.1,516l2.2,3.7l-1.4,1l-2.6,2.2l-1.9,1l-1.1,1l-1.4,1.3l-1.1,1l-3,1.9l-3,2.2l-4,2.8l-4.5,3.2l-2.6-2.8
		l-2.2-3.2l-2.2-2.8l-11-6.9l1.4-3.2l0.4-1.3l5.9-8.7l2.6-3.2l1.9-2.2l1.9-2.2l1.4-1.3l3.7,1.3l2.2,1.5l1.6,1.1l4.7,2.9l5.5,4.3
		l1.6,1.2l2.6,2.2L604.1,516z"/>
	<path class="st0" d="M546,332.2l-6.5,0.3l-4.7,7.7l-1.7,0.9l-4.8,2.3l-1.9-3.1l-3.1-2.6l-1.6-1.3l-3.2-1.8l-3.2-3.1h0.1l-2.3-3.1
		l2.8-8.9l-2.1-0.9l-4.5,2.2l-12-8.3l-4.9-5.1l-4.4-4.7l-3-2.3l-6.4-4.9h-2.7h-3l-11.1,5.6l-6,1.9l-8.1,3.9l-2.3,1.2l-5.7,1.3
		l-5.7,1.9l3-6.9l4.5-10.2l-1.9-2.8l5.2-1.3l3.8-1.9l1.7-3.3l2-3l-5.7-2.8l0.9-1.3l2.6-4.7l3-4.9l0.3-0.4l0.4-0.6l1-1.6l0.6-1.5
		l0.4-1.3l0.4-1l0.6-1.2l1.3-2.5l-2.7-5.6l1.9-0.4l4.4-1.9l1.9-3.7v-2.1h2.5l1.6,0.2l16.7-1.2h1.5l6.6-0.4l1.9,1.9l2.6,3.2l1.1,1.9
		l4,5.9l1.1,1.2l2.2,2.5l0.6,1.2l4.6,8.9l11.9,15.5l2.1,3.2l3,5.5l1.4,2.2l7,10l8.1,8.7l1.3,2.2l7.3,12.8l1.9,3.6h-2.2l-3.7-1
		L546,332.2z"/>
	<path class="st0" d="M391.9,431.1l1.1,1l-3-0.4l-2.2-0.4l-2.6,1.9l0.7-1.9h-3.9h-4l-4-1l-4.5-1.3l1.9-2.8l2.6-5.5l1.6-3.2l1.9-3.7
		l1.9-3.2l4,2.2l0.4,1.3l5.2,9.1l2.2,1.9l0.3,2.1l0.1,1.1L391.9,431.1z"/>
	<path class="st0" d="M744.8,696.7l-1.6,1.3l-1.4,1l-3.2,1.7l-1.1,1l-3.7,1.9l-1.4,1l-3,1.9l-3.7,2.2l-3.7,2.2l-2.6,1.3l-1.9,1
		l-3.7,2.2l-0.6-1.1l-1.2-2.1l-0.4-0.7l-1.4-2.3l-0.6-1l-1.2-2.1l-0.5-0.7l-0.9-1.6l-0.6-1l-1.1-1.9l-1.6-2.2l-0.9-1.7l-1-1.6
		l-0.7-1.7l-1.1-1.9l-1.1-1.3l-2.2-1.3l-1.9-1.3l7.8-4.1l6.3-3.7l6.3-4.1l6.9-4.1l5.9-3.7l2.6,3.7l2.1,3.5l2,3.5l2.1,3.6l1.6,2.8
		l1.6,2.8l1.9,2.9l1.9,3.5L744.8,696.7z"/>
	<path class="st0" d="M701.6,695.2l1,1.6l0.9,1.7l-6.7,4.1l-6.3,3.2l-5.7,3.7l-5.7,3.2l-7.5,4.1l0.7,1.9l-3.3,1.9l-2.6,2.2l-6.3,4.6
		l-0.7,1l-5.2,4.1l-1.1,1.3l-12.3-13.3l1.1-1l5.2-4.6l0.7-1l26-15.6l1.6,2.8l3-1.9l8.9-5.1l8.9-5.5l2.2,1.3l1.1,1.3l1.1,1.9
		L701.6,695.2z"/>
	<path class="st0" d="M698.1,465.7l-24.3,23.4l-4.9-4.8l-6.8-8.7l-1.1-1.3l-9.6-12l-12.8-14.9l-1.9-2.7l-9.5-9.6l1.3-1l3-1l6.6,1.3
		h1.5l5.1,2.2l3,1.8l10.6,1h14.6l6.6-0.4l10.3,5.8l4,6.8l3,7.7L698.1,465.7z"/>
	<path class="st0" d="M617.8,494.4l-1.4,3.2l-3.3-3.2l-3,2.2l-2.2,2.2l-2.2,2.2l-5.9-6.4l-11-5.5l-3,1l-4-1.3l-3.7-1.3l-3.7-1
		l-3.7-1.3l-4.5-1.3l-3.3-1.3l-2.6-1h-1.4l-4-1.9l-2.2-0.4V476l1-2l3.8-7.8l1.6-4.4l1.6-2.9l1.4-2.5l-0.4-2.9l-0.4-2l0.9,2.2
		l0.4,2.5l-0.5,2l-1.6,2.9l-0.9,2.8l1.9,1.7l2.6,0.4l4,0.4l3,0.4l2.2,0.4l4.5-2.8l2.6,2.2l2.2-3.2l2.2-2.8l9.2,6.4l-0.7,1.3l3.3,1.9
		l3.7,2.2l11,7.3l2.6-2.2l7.5,8.2l-2.2,5.5L617.8,494.4z"/>
</g>
<ellipse class="st1" cx="670.6" cy="603.5" rx="1.7" ry="1.7"/>
<ellipse class="st1" cx="600" cy="535.6" rx="1.7" ry="1.7"/>
<ellipse class="st1" cx="481.2" cy="481.6" rx="1.7" ry="1.7"/>
<ellipse class="st1" cx="591.7" cy="483.6" rx="1.7" ry="1.7"/>
<ellipse class="st1" cx="593" cy="632.3" rx="1.7" ry="1.7"/>
<ellipse class="st2" cx="659.6" cy="781.7" rx="8.8" ry="8.6"/>
<ellipse class="st1" cx="741.6" cy="594.9" rx="1.7" ry="1.7"/>
<ellipse class="st3" cx="714.2" cy="508.1" rx="8.8" ry="8.6"/>
<ellipse class="st1" cx="757.5" cy="672.3" rx="1.7" ry="1.7"/>
<ellipse class="st1" cx="458.9" cy="252.1" rx="1.7" ry="1.7"/>
<ellipse class="st1" cx="426.8" cy="274.9" rx="1.7" ry="1.7"/>
<ellipse class="st1" cx="455.9" cy="463.3" rx="1.7" ry="1.7"/>
<ellipse class="st1" cx="643.5" cy="656.8" rx="1.7" ry="1.7"/>
<ellipse class="st2" cx="701" cy="537.4" rx="8.8" ry="8.6"/>
<ellipse class="st1" cx="515.4" cy="430.1" rx="1.7" ry="1.7"/>
<ellipse class="st1" cx="403.2" cy="498.2" rx="1.7" ry="1.7"/>
<ellipse class="st1" cx="713.3" cy="670.3" rx="1.7" ry="1.7"/>
<ellipse class="st1" cx="509.2" cy="465.9" rx="1.7" ry="1.7"/>
<ellipse class="st1" cx="746.1" cy="727" rx="1.7" ry="1.7"/>
<ellipse class="st1" cx="406.9" cy="324.8" rx="1.7" ry="1.7"/>
<ellipse class="st1" cx="670.6" cy="698.6" rx="1.7" ry="1.7"/>
<ellipse class="st1" cx="716.6" cy="768.8" rx="1.7" ry="1.7"/>
<ellipse class="st1" cx="439.9" cy="511.6" rx="1.7" ry="1.7"/>
<ellipse class="st2" cx="717.1" cy="770.8" rx="8.8" ry="8.6"/>
<ellipse class="st1" cx="585.1" cy="602.7" rx="1.7" ry="1.7"/>
<ellipse class="st1" cx="677" cy="615.6" rx="1.7" ry="1.7"/>
<ellipse class="st1" cx="566.8" cy="499.8" rx="1.7" ry="1.7"/>
<ellipse class="st1" cx="486.2" cy="544" rx="1.7" ry="1.7"/>
<ellipse class="st1" cx="549" cy="458.9" rx="1.7" ry="1.7"/>
<ellipse class="st1" cx="569.8" cy="577.8" rx="1.7" ry="1.7"/>
<ellipse class="st2" cx="893.2" cy="697.7" rx="8.8" ry="8.6"/>
<ellipse class="st1" cx="637.9" cy="646.2" rx="1.7" ry="1.7"/>
<path class="st1" d="M497.1,296.6c1,0,1.7,0.8,1.7,1.7c0,0.9-0.8,1.7-1.7,1.7c-1,0-1.7-0.8-1.7-1.7
	C495.4,297.3,496.2,296.6,497.1,296.6z"/>
<ellipse class="st1" cx="343.6" cy="378.2" rx="1.7" ry="1.7"/>
<ellipse class="st2" cx="611.6" cy="601.3" rx="8.8" ry="8.6"/>
<ellipse class="st1" cx="507.5" cy="575.5" rx="1.7" ry="1.7"/>
<ellipse class="st1" cx="612.7" cy="397.5" rx="1.7" ry="1.7"/>
<ellipse class="st1" cx="402.7" cy="500.4" rx="1.7" ry="1.7"/>
<ellipse class="st1" cx="685.3" cy="149" rx="1.5" ry="1.4"/>
<ellipse class="st1" cx="556.6" cy="555" rx="1.7" ry="1.7"/>
<ellipse class="st1" cx="370.2" cy="482.7" rx="1.7" ry="1.7"/>
<ellipse class="st1" cx="648.9" cy="659.4" rx="1.7" ry="1.7"/>
<ellipse class="st1" cx="706.4" cy="810.4" rx="1.7" ry="1.7"/>
<ellipse class="st1" cx="702.9" cy="810.8" rx="1.7" ry="1.7"/>
<ellipse class="st1" cx="528.7" cy="518" rx="1.7" ry="1.7"/>
<ellipse class="st1" cx="528.7" cy="518" rx="1.7" ry="1.7"/>
<ellipse class="st1" cx="696.9" cy="641.6" rx="1.7" ry="1.7"/>
<ellipse class="st1" cx="311.3" cy="457" rx="1.7" ry="1.7"/>
<ellipse class="st1" cx="327.5" cy="395.3" rx="1.7" ry="1.7"/>
<ellipse class="st1" cx="627.2" cy="572.2" rx="1.7" ry="1.7"/>
<ellipse class="st1" cx="403.3" cy="505.4" rx="1.7" ry="1.7"/>
<ellipse class="st1" cx="571.3" cy="341" rx="1.7" ry="1.7"/>
<ellipse class="st1" cx="614" cy="395.4" rx="1.7" ry="1.7"/>
<ellipse class="st1" cx="697.7" cy="702.2" rx="1.7" ry="1.7"/>
<ellipse class="st1" cx="793.8" cy="654.7" rx="1.7" ry="1.7"/>
<ellipse class="st1" cx="483.1" cy="458.9" rx="1.7" ry="1.7"/>
<ellipse class="st1" cx="396" cy="330.4" rx="1.7" ry="1.7"/>
<ellipse class="st1" cx="419.5" cy="336.2" rx="1.7" ry="1.7"/>
<ellipse class="st2" cx="746.2" cy="640.5" rx="8.8" ry="8.6"/>
<ellipse class="st1" cx="401.2" cy="259.2" rx="1.7" ry="1.7"/>
<ellipse class="st1" cx="438" cy="350.4" rx="1.7" ry="1.7"/>
<ellipse class="st1" cx="259.8" cy="443" rx="1.7" ry="1.7"/>
<ellipse class="st1" cx="313" cy="443.2" rx="1.7" ry="1.7"/>
<ellipse class="st1" cx="760.1" cy="727.6" rx="1.7" ry="1.7"/>
<ellipse class="st1" cx="668.4" cy="497.5" rx="1.7" ry="1.7"/>
<ellipse class="st1" cx="697.5" cy="702.6" rx="1.7" ry="1.7"/>
<ellipse class="st1" cx="478.2" cy="530.6" rx="1.7" ry="1.7"/>
<ellipse class="st1" cx="790.1" cy="637.8" rx="1.7" ry="1.7"/>
<ellipse class="st1" cx="380.3" cy="267.6" rx="1.7" ry="1.7"/>
<ellipse class="st1" cx="576.3" cy="472.5" rx="1.7" ry="1.7"/>
<ellipse class="st1" cx="750.5" cy="491.5" rx="1.7" ry="1.7"/>
<ellipse class="st1" cx="790.1" cy="637.8" rx="1.7" ry="1.7"/>
<ellipse class="st1" cx="376.3" cy="401.7" rx="1.7" ry="1.7"/>
<ellipse class="st1" cx="507.5" cy="575.5" rx="1.7" ry="1.7"/>
<ellipse class="st1" cx="576.1" cy="317.6" rx="1.7" ry="1.7"/>
<ellipse class="st1" cx="556.6" cy="555" rx="1.7" ry="1.7"/>
<ellipse class="st1" cx="528.7" cy="564.8" rx="1.7" ry="1.7"/>
<ellipse class="st1" cx="312.3" cy="443" rx="1.7" ry="1.7"/>
<ellipse class="st1" cx="394.2" cy="419.8" rx="1.7" ry="1.7"/>
</svg>
