<?xml version="1.0" encoding="utf-8"?>
<!-- Generator: Adobe Illustrator 26.2.1, SVG Export Plug-In . SVG Version: 6.00 Build 0)  -->
<svg version="1.1" id="Layer_1" xmlns="http://www.w3.org/2000/svg" xmlns:xlink="http://www.w3.org/1999/xlink" x="0px" y="0px"
	 viewBox="0 0 1920 1080" style="enable-background:new 0 0 1920 1080;" xml:space="preserve">
<style type="text/css">
	.st0{fill:#E8F0EC;stroke:#7B6F6F;stroke-width:0.4036;}
	.st1{fill-opacity:0.5;stroke:#000000;stroke-width:1.6146;stroke-opacity:0;}
	.st2{fill:#FF0000;fill-opacity:0.5;stroke:#000000;stroke-width:1.6146;stroke-opacity:0;}
</style>
<path class="st0" d="M278,533.8l-4.4,3l-5.7,3l-13.8,8.7l-10.1,5.7L236,560l-8.1,4.4l-11.4,7.1l-8.1,5.7l-10.1,7.1l-10.1,5.7
	l-12.4-14.5l-2.7-3.4l-4-5l-8.7-9.8l-8.1-9.1l-13.8-14.5l-7.1-8.4l-3.7-4.7l-7.1-8.4l4.7-5.7l13.8-10.1l12.4-8.7l9.1-7.1l9.1-5.7
	l3.4-3l4.4-4.4l3.4-3l5.7-3l8.1-7.1l4.4-3l17.8,21.9l15.1,18.5l6.4,6.1l11.1,12.1l2.4,1.7l6.4,6.1l5.7,3.4l4.4,2.7l13.8,7.1
	L278,533.8z"/>
<path class="st0" d="M508.4,409.7l3-2l5.7-15.8l2-6.1l8.1-2l4.4-1l8.1,14.5l12.4,5.7l4-5.7l6.1-8.4l101.2,90.5l110,41.7l9.8,16.1
	l27.6,18.5l32.6,17.8H871l23.5,22.9l23.2-20.2L746.5,734.6l-10.1,4.4l-6.7,5.7l-13.8-15.8l-17.8-13.5l-1.3-1l-32-18.5l-1-0.7
	l-22.9-13.8l-17.2-12.8l-4.7-3l-2-1.3l-10.8-7.4l-10.8-7.4l-5.4-3.7l20.2-21.9l-95.2-200.5L508.4,409.7z"/>
<path class="st0" d="M404.8,358.9l75.7-75l11.4,8.7l10.1-10.1l14.8,7.1l-4.7,12.8l36,22.2l8.1,5l11.4,7.1l-4.7,17.2l-1,34.3
	l-6.1,8.7l-4,5.7l-12.4-5.7l-8.1-14.5l-4.4,1l-8.1,2l-2,6.1l-5.7,15.8l-15.8,10.1l-23.5-20.2l-5-4.4l-13.5-2.4l-12.4-2l-2.4-5.7
	l-9.1-14.5l-20.5-10.1L404.8,358.9z"/>
<path class="st0" d="M541,777l12.4,8.7l-45.4-10.1l-15.8-1.3l-12.4-1.3l-12.4-3l-24.9-3l-30.6-7.1h-10.1l-14.8-3l-14.8-4.4
	l-12.4-1.3l-12.4-3l-23.9-5.7l-8.1-1.3l-9.1-3l-22.9-5.7l6.7-5.7l4.4-3l3.4-4.4l3.4-3l4.7-4.4l5.7-4.4l5.7-7.1l8.1-5.7l11.4-10.1
	l9.1-7.1l8.1-7.1l3.4-3l4.7-3l8.1-8.7l4.7,7.1l8.1,8.7l5.7,7.1l6.7,7.1l12.4-1.3l10.1-5.7l9.1,5.7l10.1,7.1l11.4,7.1l6.7,5.7
	l10.1,8.7l4.7,5.7l9.1,7.1l8.1,7.1l15.8,20.2l11.4,8.7L541,777z"/>
<path class="st0" d="M283.4,505.2l12.4,15.8l-5.7,4.4l-9.1,5.7l-13.8-7.1l-4.4-2.7l-5.7-3.4l-6.4-6.1l-2.4-1.7l-11.1-12.1l-6.4-6.1
	l-15.1-18.5l-17.8-21.9l-6.7-11.4l-8.1-7.1l-8.1-7.1l-5-4l5-6.1l8.1-7.1l6.7-7.1l6.7-5.7l11.4,11.4l12.4,12.8l8.1,10.1l5.7,10.1
	l8.1,7.1l2.4,4.4l4.4,5.7l6.7,10.1l3.4,4.4l2.4,3l10.1,12.8L283.4,505.2z"/>
<path class="st0" d="M508.4,409.7l6.7,14.5l95.2,200.5l-20.2,21.9l-18.8-13.1l-7.1-5l-3-2l-14.8-8.7l-10.1-15.8l-10.1-8.7
	l-13.8-12.8L501,570.1L485.2,553l5.7-10.1l4.7-17.2l-8.1-20.2l-3.4-5.7l-3.4-3L468.4,481l-1-3l-2.4-4.4l2.4-21.5l-1-14.5l-2.4-5.7
	l-11.4-20.2l-33-37.3l-8.1-8.7l-6.7-7.1h4.7l20.5,10.1l9.1,14.5l2.4,5.7l12.4,2l13.5,2.4l5,4.4l23.5,20.2L508.4,409.7z"/>
<path class="st0" d="M369.5,656.2l-8.1,8.7l-4.7,3l-3.4,3l-8.1,7.1l-9.1,7.1l-11.4,10.1l-8.1,5.7L311,708l-5.7,4.4l-4.7,4.4l-3.4,3
	l-3.4,4.4l-4.4,3l-6.7,5.7l-12.4-11.4l-13.8-15.8l-4.7-7.1l-9.1-10.1l-3.4-3l-3.4-4.4l-5.7-7.1l-6.7-7.1l11.4-10.1l6.7-5.7
	l-11.4-15.8l-9.1-8.7l-6.7-7.1l-6.7-7.1l-13.8-17.2l-6.7-4.4l10.1-5.7l10.1-7.1l8.1-5.7l11.4-7.1l8.1-4.4l8.1-5.7l10.1-5.7l13.8-8.7
	l5.7-3l4.7-3l3.4-3l29.6,15.8l8.4,3l8.7,2.7l26.2,7.1l8.1,2.4l12.4,3.4l-5.7,4.4l2.4,7.1l2.4,8.7l9.1,30.3l1,22.9L369.5,656.2z"/>
<path class="st0" d="M531.9,620.2l-12.4,4.4l-18.2,3l-18.2,3l-13.8,2.4l-10.1,1.7l-15.8,21.5l-8.1,8.7l-8.1,8.7l-10.1,5.7l-10.1,5.7
	l-12.4,1.3l-6.7-7.1l-5.7-7.1l-8.1-8.7l-4.7-7.1l13.8-17.2l-1-22.9l-9.1-30.3l-2.4-8.7l-2.4-7.1l5.7-4.4l24.6,2.4l26.9,2l12.1-0.3
	l16.1,0.3H464l12.1,3l9.8,4.4l20.5,10.1l11.4,11.1l15.8,10.4l13.8,8.7l14.8,8.7l-14.8-3L531.9,620.2z"/>
<path class="st0" d="M635.5,683.5l-15.8,14.5l-2.4,3l-3.4,5.7l-13.8,5.7l-10.1-4.4h-8.1l-2.4,3l10.1,22.9l-2.4,3l-8.1,17.2l-2.4,7.1
	l-11.4,12.8l-12.4,11.4l-12.4-8.7l-27.2-14.5l-11.4-8.7l-15.8-20.2l-8.1-7.1l-9.1-7.1l-4.7-5.7l-10.1-8.7l-6.7-5.7l-11.4-7.1
	l-10.1-7.1l-9.1-5.7l10.1-5.7l8.1-8.7l8.1-8.7l15.8-21.5l10.1-1.7l13.8-2.4l17.2-2.7l19.2-3l12.4-4.4l14.8,3l14.8,3l3,2l7.1,5
	l24.2,16.8l10.8,7.4L617,665l2,1.3l4.7,3l17.2,12.8L635.5,683.5z"/>
<path class="st0" d="M546.7,617.2l-13.8-8.7L517.1,598l-11.4-11.1l-20.5-10.1l-9.8-4.4l-12.1-3h-10.1l-16.1-0.3l-12.1,0.3l-26.9-2
	l-8.4-2.4l18.2-1.3l-2.4-4.4l-5.7-36l-3.4-22.9l-2.4-12.8l-11.1-6.1l-13.8-8.7l-3.4,4.4l-13.8,7.1l-4.7,3l-3.4-5.7l-15.8-17.2
	L311,446l-12.4-11.4l14.8-11.4l-6.7-7.1l-6.7-10.1l-6.7-10.1l-6.7-8.7l-6.7-10.1l-6.7-8.7l-13.1,9.1l-9.8,6.7l-5.7,5.7l-5.7,3
	l-4.7-3l-4.4-5.7l4.4-10.1l3.4-8.7l6.7-17.2l8.1-8.7l4.4,5.7l11.4-7.1l17.2-21.2l2-2.4l2-2.7l2.4-3l1-1l0.7-1l7.4-9.1l15.8-3
	l-14.8-24.6l-4.7-8.7l9.1-4.4l10.1,5.7l18.2,8.7l29.9,38.3l3.4,4.4l21.2,27.6l14.8,15.8l6.7,7.1l8.1,8.7l32.6,37.7l11.4,20.2
	l2.4,5.7l1,14.5l-2.4,21.5l2.4,4.4l1,3l12.4,15.8l3.4,3l3.4,5.7l8.1,20.2l-4.7,17.2l-5.7,10.1l15.8,17.2l11.4,10.1l13.8,12.8
	l10.1,8.7L546.7,617.2z"/>
<path class="st0" d="M562.5,389.2l1.3-34.6l4.7-17.2l23.9,10.1v-18.8l2.4-4.4l-1-7.1l-9.1,1.3l-5.7-8.7l-5.7-8.7l-2.4-34.3
	l40.4-12.4l3.7,1l1.3,0.3l20.5,6.7l3.4,10.1l-3,0.3l-15.1,2.4l5.7,4.4v2v5.4v6.1l-0.3,5.7l4.7,4.7l-1,3l3.7,3.7l0.3,2l-1,5.4l0.3,1
	l6.7,13.1l-1,14.5l-1,8.7l17.2-3l-1-10.1l5.7-5.7l9.1,1.3l20.5,3l17.2,22.9l-8.1,10.1l8.1,7.1l8.1-5.7l11.4,7.1v5.7l61.2,1.3
	l3.4,57.5l55.8,1.3l8.7,10.4l18.8,22.5l11.4-11.4l13.8,12.8L879,522.4l40.4,54.2l-23.2,20.2l-23.5-22.9h-27.6L812.5,556l-27.6-18.5
	l-9.8-16.1l-110-41.7L562.5,389.2z"/>
<path class="st0" d="M405.8,560l2.4,4.4l-18.2,1.3l8.4,2.4l-24.6-2.4l-12.4-3.4l-8.1-2.4l-26.2-7.1l-8.7-2.7l-8.4-3l-29.6-15.8
	l9.1-5.7l5.7-4.4L283,505.2L271.6,488l-10.1-12.8l-2.4-3l-3.4-4.4l-6.7-10.1l-4.4-5.7l-2.4-4.4l-8.1-7.1l-5.7-10.1l-8.1-10.1
	L208,407.7l-11.4-11.4l6.7-7.1l6.7-7.1l9.1-7.1l10.1,10.1l4.4,5.7l4.7,3l5.7-3l5.7-5.7l9.8-6.7l13.1-9.1l6.7,8.7l6.7,10.1l6.7,8.7
	l6.7,10.1l6.7,10.1l6.7,7.1l-14.8,11.4l12.4,11.4l17.2,18.5l15.8,17.2l3.4,5.7l4-2.7l13.8-7.1l3.4-4.4l13.8,8.7l11.4,5.7l2.4,12.8
	l3.4,22.9L405.8,560z"/>
<circle class="st1" cx="395.4" cy="715.8" r="5.4"/>
<circle class="st1" cx="178.8" cy="502.5" r="5.4"/>
<circle class="st1" cx="612.7" cy="688.5" r="5.4"/>
<circle class="st1" cx="528.9" cy="416.1" r="5.4"/>
<circle class="st2" cx="488.6" cy="508.2" r="26.9"/>
<circle class="st1" cx="414.9" cy="753.8" r="5.4"/>
<circle class="st1" cx="276" cy="436.9" r="5.4"/>
<circle class="st1" cx="262.2" cy="617.5" r="5.4"/>
<circle class="st1" cx="388.3" cy="382.8" r="5.4"/>
<circle class="st1" cx="640.2" cy="363.9" r="5.4"/>
</svg>
