<?xml version="1.0" encoding="utf-8"?>
<!-- Generator: Adobe Illustrator 26.2.1, SVG Export Plug-In . SVG Version: 6.00 Build 0)  -->
<svg version="1.1" id="Layer_1" xmlns="http://www.w3.org/2000/svg" xmlns:xlink="http://www.w3.org/1999/xlink" x="0px" y="0px"
	 viewBox="0 0 1920 1080" style="enable-background:new 0 0 1920 1080;" xml:space="preserve">
<style type="text/css">
	.st0{fill:#E8F0EC;stroke:#7B6F6F;stroke-width:0.4036;}
	.st1{fill:#FF8000;fill-opacity:0.5;}
	.st2{fill-opacity:0.5;stroke:#000000;stroke-width:1.6146;stroke-opacity:0;}
	.st3{fill:#FF0000;fill-opacity:0.5;}
	.st4{fill:#3F3B3C;}
</style>
<path class="st0" d="M200.3,140.2l2.5-1.7l4.8-13.2l1.7-5.1l6.7-1.7l3.7-0.8l6.7,12.1l10.4,4.8l3.4-4.8l5.1-7l84.5,75.5l91.8,34.8
	l8.1,13.5l23,15.4l27.2,14.9h23l19.7,19.1l19.4-16.8L399.1,411.5l-8.4,3.7l-5.6,4.8l-11.5-13.2l-14.9-11.2l-1.1-0.8l-26.7-15.4
	l-0.8-0.6l-19.1-11.5l-14.3-10.7l-3.9-2.5l-1.7-1.1l-9-6.2l-9-6.2l-4.5-3.1l16.8-18.3l-79.5-167.4L200.3,140.2z"/>
<path class="st0" d="M334.2,607.5l2.8,8.4l9,33.7l6.7,19.1l4.8,8.4l5.6,10.7l-4.8,2.5h-2l-3.7,2.5l-8.4,4.8L332,706l-9.5-18l-9.5-18
	l-11.2-17.7l-5.3-12.1h-0.8l-3.9-7.3l-4.8-9l-4.8-7.9l-3.9-7.3l-4.2-7.3l-5.3-9.3l-5.1-9l-5.3-9l-6.7-9.5l13.2-8.4l3.9-2.5l11.8-7.3
	l5.6-3.7l5.6-5.9l10.4-5.9l5.6,7.3l6.7,7.3l3.9,5.9l13.2,48L334.2,607.5z"/>
<path class="st0" d="M458.9,743.1l2.8-1.1l-2-7.3l8.4-7.3l5.6-4.8l11.5-7.3l14.3-10.7l6.5-4.2l3.1-2l10.4,14.3l9.5-7.3l40.7-23.6
	l29.5-17.1l9.5-4.8l7.6-5.9l7.6-4.8l6.7-3.7l10.4-5.9l5.6-4.8l13.2-7.3l19.9-12.1l15.2-9.5l25.6-15.7l5.6-1.7l21.9,44.9l22.7,50.3
	l0.8,12.1l19.1-13.2l16.3,33.4l-21.6,94.6l-3.7,27.5l-8.4,2.5l-9.5,21.6l-10.4-3.7l-19.9,19.1l-18,16.8l-11.5-13.2l4.8,27.5l-8.4,18
	l3.9,9.5l-8.4,4.8l-3.9,1.1l-26.7-4.8l-35.4-21.6l-5.6-3.4l2-5.9l2.8-9.5l2.8-6.2l3.4-3.9l-1.4-0.8l1.1-4.8l-0.8-4.8l-0.8-1.1
	l-13.5,4.2l13.5-4.2l3.1-12.9L616.5,847l-58.4-22.5l-9.8,5.1l-7.3,8.7l-6.7-5.9h-4.8h-3.9l-3.9-2.5l-2.8-2.5l-8.4-9.5l-3.1-4.2
	l-10.1-13.8l-5.6-9.5l-5.6-8.4l-4.5-10.7L458.9,743.1z M549.1,828.2l-1.1,2l-0.8,2.2l0.8-2.2L549.1,828.2z"/>
<path class="st0" d="M292.1,536.7l-5.6,5.9l-5.6,3.7l-11.5,7.3l-3.7,2.5l-13.2,8.4l-5.6-8.4l-5.6-8.4l-7.6-8.4l-2.8-3.7l-5.6-7.3
	l-4.8-5.9l-5.6-5.9l-5.6-7.3l-3.9-5.9l-15.2-9.5l2.8-2.5l2-1.1l9.5-7.3l20.8-19.1l13.2-9.5l6.7,4.8l5.6,4.8l0.8,1.1l7.6,7.3l5.6,5.9
	l7.6,5.9l5.6,7.3l5.6,8.4l5.6,8.4l2.8,4.8l0.8,1.7l9.5,16.3L292.1,536.7z"/>
<path class="st0" d="M400.2,462.3l-8.4,3.7l-7.6,2.5l-7.6-13.2l-5.6,12.1l2,15.7l-20.8-2.2l16,10.7L364,494l-6.2,3.7l-12.4-3.7
	l-5.6,5.9l3.9,8.4l-3.7,1.1l-12.4,7.3l-10.4,5.9l-5.6,3.7l-8.4,4.8l-9.5-16.3l-0.8-1.7l-2.8-4.8l-5.6-8.4l-5.6-8.4l-5.6-7.3
	l-7.6-5.9l-5.6-5.9l-7.6-7.3l-0.8-1.1l-5.6-4.8l-6.7-4.8l10.4-9.5l9.5-10.7l2-5.9L268,414l2-2.5l-8.4-19.1l2-2.5h6.7l8.4,3.7
	l11.5-4.8l2.8-4.8l2-2.5l13.2-12.1l4.8-1.1l19.1,11.5l0.8,0.6l26.7,15.4l1.1,0.8l14.9,11.2l6.7,20.5l6.7,4.8l4.8,5.9l11.5,21.6
	L400.2,462.3z"/>
<path class="st0" d="M480,774.3l-4.8,8.4l-2,3.9l-1.1,2.2l-2.8,1.1l2,2.5l-6.7,3.7l-6.2-0.8l-2.2-0.3l-6.7-4.8l-7.6-4.8l-9.5-7.3
	l-5.6-5.9l-2.8-2.5l-3.9-5.9l-8.4-8.4l-13.2-10.7l-10.4-9.5l-5.6-10.7l-2.8-3.7l-2-4.8l10.4-3.7l10.4-2.5l3.7-1.7l4.8-2l18-4.8
	l8.4-3.7l6.5-2.5l2.2,5.9l7.6,18l9.5,23.9l22.2,28.9L480,774.3z"/>
<path class="st0" d="M316.5,522.4l10.4-5.9l12.4-7.3l3.9-1.1l-3.9-8.4l5.6-5.9l12.4,3.7l6.2-3.7l4.2-2.5l-16-10.7l20.8,2.2l-2-15.7
	l5.6-12.1l7.6,13.2l7.6-2.5l8.4-3.7l2.8-2.5L391,437.9l-4.8-5.9l-6.7-4.8l-6.7-20.5l11.5,13.2l11.5,15.4l7.6,10.7l21.9,46.6
	l29.5,50.3l5.6,12.1l6.5,21.1v2.8l-0.6,3.7l-1.1,4.2l-1.4,5.3l-2.5,5.3l-3.7,6.2l-12.1,16.6l-2.5,3.4l-4.8,10.1l-2.8,6.7l-6.7-3.7
	l-4.8-8.4l-2.8-3.7l-4.8-4.8l-8.1-12.4l-9.8-15.2l-2-10.7l-7.6-14.3l-13.2-9.5l-17.1-15.4l-9-2.2l-5.3-1.4l-22.7-3.7l-11.5-9.5
	L316.5,522.4z"/>
<path class="st0" d="M464.8,795.6l-3.4,0.6l-16.6,3.1l-8.4,3.7l-8.4,4.8l-12.4,4.8l-18,7.3l-3.9-9.5l-4.8-5.9l-3.9-8.4l-4.8-7.3
	l-11-18.3l-3.4-5.6l-4.8-8.4l-2.8-5.9l-2-4.8l-8.4-13.2l-7.6-12.1L332,706l12.4-8.4l8.4-4.8l3.7-2.5h2l4.8-2.5l6.7,13.2l2.8,5.9
	l4.8,8.4l2,4.8l2.8,3.7l5.6,10.7l10.4,9.5l13.2,10.7l8.4,8.4l3.9,5.9l2.8,2.5l5.6,5.9l9.5,7.3l7.6,4.8l6.7,4.8l2.2,0.3L464.8,795.6z
	"/>
<path class="st0" d="M200.3,140.2l5.6,12.1l79.5,167.4l-16.8,18.3l-15.7-11l-5.9-4.2l-2.5-1.7l-12.4-7.3l-8.4-13.2l-8.4-7.3
	l-11.5-10.7l-9.5-8.4l-13.2-14.3l4.8-8.4l3.9-14.3l-6.7-16.8l-2.8-4.8l-2.8-2.5l-10.4-13.2l-0.8-2.5l-2-3.7l2-18l-0.8-12.1l-2-4.8
	l-9.5-16.8l-27.5-31.2l-6.7-7.3l-5.6-5.9h3.9l17.1,8.4l7.6,12.1l2,4.8l10.4,1.7l11.2,2l4.2,3.7l19.7,16.8L200.3,140.2z"/>
<path class="st0" d="M219.9,316l-10.4,3.7l-15.2,2.5l-15.2,2.5l-11.5,2l-8.4,1.4l-13.2,18l-6.7,7.3l-6.7,7.3l-8.4,4.8l-8.4,4.8
	l-10.4,1.1l-5.6-5.9l-4.8-5.9l-6.7-7.3l-3.9-5.9L95.8,332L95,312.9l-7.6-25.3l-2-7.3l-2-5.9l4.8-3.7l20.5,2l22.5,1.7l10.1-0.3
	l13.5,0.3h8.4l10.1,2.5l8.1,3.7l17.1,8.4l9.5,9.3l13.2,8.7l11.5,7.3l12.4,7.3l-12.4-2.5L219.9,316z"/>
<path class="st0" d="M306.4,368.8l-13.2,12.1l-2,2.5l-2.8,4.8l-11.5,4.8l-8.4-3.7h-6.7l-2,2.5l8.4,19.1l-2,2.5l-6.7,14.3l-2,5.9
	l-9.5,10.7l-10.4,9.5l-10.4-7.3l-22.7-12.1l-9.5-7.3l-13.2-16.8l-6.7-5.9l-7.6-5.9l-3.9-4.8l-8.4-7.3l-5.6-4.8l-9.5-5.9l-8.4-5.9
	l-7.6-4.8l8.4-4.8l6.7-7.3l6.7-7.3l13.2-18l8.4-1.4l11.5-2l14.3-2.2l16-2.5l10.4-3.7l12.4,2.5l12.4,2.5l2.5,1.7l5.9,4.2l20.2,14
	l9,6.2l9,6.2l1.7,1.1l3.9,2.5l14.3,10.7L306.4,368.8z"/>
<path class="st0" d="M627.4,400.5l46.3,67.4l37.1,86.2l16.3,34.3l-5.6,1.7l-25.6,15.7l-15.2,9.5l-19.9,12.1l-13.2,7.3l-5.6,4.8
	l-10.4,5.9l-6.7,3.7l-7.6,4.8l-7.6,5.9l-9.5,4.8l-29.5,17.1L530,705.2l-9.5,7.3L510,698.2l-3.1,2l-6.5,4.2L486.2,715l-11.5,7.3
	l-5.6,4.8l-8.4,7.3l2,7.3l-2.8,1.1l-9.5-23.9l-7.6-18l-8.7-24.2l-1.4-4.8l-0.3-3.7l0.3-9.8l1.1-5.3l3.4-12.4l2.8-6.7l4.8-10.1
	l2.5-3.4l12.1-16.6l3.7-6.2l2.5-5.3l1.4-5.3l1.1-4.2l0.6-3.7v-2.8l-6.5-21.1l-5.6-12.1l-29.5-50.3L405,446.6l-7.6-10.7l-11.5-15.4
	l5.6-4.8l8.4-3.7l8.4,1.1l-8.1-1.4l142.9-132.3l46.9,62.6l6.7-3.7l6.7,9.5l-5.6,4.8l18,25.3L627.4,400.5z"/>
<path class="st0" d="M633.3,876.2l-13.5,4.2l-21.1-9.3l-1.7,1.1l-3.9,2.5l-19.9,27.5l-8.4,5.9l-6.7,2.5l-0.8-4.8l4.8-2.5l-6.7-21.6
	l-3.4-1.7l-1.4-11.8l-3.7,2.8h-3.1H542l-3.7-18l-0.3-1.1l-5.6-9.5l-6.7-9.5h3.9h4.8l6.7,5.9l7.3-8.7l9.8-5.1l58.4,22.5l19.9,15.7
	L633.3,876.2z"/>
<path class="st0" d="M433.4,697.3l-8.4,3.7l-18,4.8l-4.8,2l-3.7,1.7l-10.4,2.5l-10.4,3.7l-4.8-8.4l-2.8-5.9l-6.7-13.2l-5.6-10.7
	l-4.8-8.4l-6.7-19.1l-8.4-33.7l-2.8-8.4l-2.8-8.4l-13.2-48l-3.9-5.9l-6.7-7.3l-5.6-7.3l8.4-4.8l11.5,9.5l22.7,3.7l5.3,1.4l9,2.2
	l17.1,15.4l13.2,9.5l7.6,14.3l2,10.7l9.8,15.2l8.1,12.4l4.8,4.8l2.8,3.7l4.8,8.4l6.7,3.7l-3.4,12.4l-1.1,5.3l-0.3,9.8l0.3,3.7
	l1.4,4.8l6.7,18L433.4,697.3z"/>
<circle class="st1" cx="287.3" cy="373" r="22.5"/>
<circle class="st2" cx="217.4" cy="145.5" r="4.5"/>
<circle class="st2" cx="328.3" cy="576" r="4.5"/>
<circle class="st3" cx="675.4" cy="642.9" r="22.5"/>
<ellipse transform="matrix(0.1602 -0.9871 0.9871 0.1602 -169.5548 860.6508)" class="st1" cx="421" cy="530" rx="22.5" ry="22.5"/>
<circle class="st2" cx="299.4" cy="492.6" r="4.5"/>
<circle class="st2" cx="411.7" cy="485.6" r="4.5"/>
<circle class="st2" cx="411.7" cy="485.6" r="4.5"/>
<g>
	<g>
		<g>
			<path class="st4" d="M667.9,617.3c-52.5-51.4-109-98.3-168.8-140.7c-30-21.1-60.7-41.3-92.1-60.1c-15.7-9.3-31.7-18.5-47.7-27.2
				c-8.1-4.2-16-8.7-24.2-12.9l-3.4-1.7l5.9-11.2l-21.3,6.7l6.7,21.1l5.9-11.2l3.4,1.7c8.1,4.2,16,8.7,24.2,12.9
				c16,8.7,32,17.7,47.5,27.2c31.5,18.8,62.1,38.8,91.8,59.8c59.5,42.1,115.7,89,167.9,140.1L667.9,617.3z"/>
		</g>
	</g>
</g>
<g>
	<g>
		<g>
			<path class="st4" d="M648.5,639.5c-16.6-9.5-34.5-16.6-52.8-22.5c-18.3-5.9-36.5-10.7-54.5-16.3c-18-5.6-35.7-12.1-52.2-20.8
				c-8.1-4.2-16.3-9.3-23.6-14.9c-2-1.4-3.7-2.8-5.3-4.2c-1.7-1.4-3.7-3.1-5.3-4.5l-2-1.7l8.7-9c-3.4,0.3-7,0.3-10.7,0.3
				s-7.3-0.3-11-0.6c-0.3,3.7-0.6,7.3-0.6,11.2c0,3.7,0,7.9,0.3,11.5l8.7-9l2,2c1.7,1.7,3.7,3.4,5.3,4.8c2,1.7,3.7,3.1,5.6,4.5
				c7.6,5.9,16,11,24.4,15.4c17.1,9,35.1,15.4,53.4,21.1c18.3,5.6,36.5,10.4,54.5,16.3c18,5.9,35.4,12.6,51.7,21.9L648.5,639.5z"/>
		</g>
	</g>
</g>
</svg>
