<?xml version="1.0" encoding="utf-8"?>
<!-- Generator: Adobe Illustrator 26.2.1, SVG Export Plug-In . SVG Version: 6.00 Build 0)  -->
<svg version="1.1" id="Layer_1" xmlns="http://www.w3.org/2000/svg" xmlns:xlink="http://www.w3.org/1999/xlink" x="0px" y="0px"
	 viewBox="0 0 1920 1080" style="enable-background:new 0 0 1920 1080;" xml:space="preserve">
<style type="text/css">
	.st0{fill:#E8F0EC;stroke:#7B6F6F;stroke-width:0.4036;}
	.st1{fill-opacity:0.5;stroke:#000000;stroke-width:1.6146;stroke-opacity:0;}
	.st2{fill:#A020F0;fill-opacity:0.5;}
</style>
<g id="regions-layer">
	<path class="st0" d="M559.9,335.7l62.7-34.8l12.2,23.2l-33.9,18.6l3,20.5l0.3,5l-3.2,0.9l-5.5-4.5L593,366l-12.6-18.7l-8.7,6.2
		l6.5,9.2l4.8,8.5l7.5,13.1l-0.8,1l-0.3,1l-0.8,1.4l-7,9.1l-4.8-3.2l-3-2.2l-8.1-5l-3.3-2.2l-4.4-3.6l-0.8-1l-2.2-1l-3.8-3.6
		l-10.2-9.6l-4.8-6.8l-1.1-1.8l-4.1-7.8l-2.2-5l4.9-2.4l1.8-0.9l4.8-7.8l6.7-0.4l2.6-0.4l3.7,1h1.9L559.9,335.7z"/>
	<path class="st0" d="M601,342.8l59.4-32.6l7.5,1.4l5.9,1.4l2.2,5.5l0.3,1.8l1.5,6.8l-0.8,2.2l-1.3,2l-8.4-2.8l-52,26.5l3.8,17.9
		l-0.7,16.4l-27.2-6.2l-0.9,1.2l-7.5-13.3l12.5-6.2l5.5,4.5l3.2-0.9l-0.3-5L601,342.8z"/>
	<path class="st0" d="M505.5,258.9l5.5,1.3l2.7,0.6l2.1,0.2l3,0.4l2.4,0.1l1.5-0.1l1.6-0.3l5.6-2.2l1.5-0.4l1.6-0.7l0.8-0.7l0.5-1.1
		l0.9-2.6l0.3-2.2l1.9-8.7l0.9-2.2l1-2.4l0.3-0.5l0.9-0.7l2.5-1l8.9-2.2l2.2-1.4l2.6-1.4l3.1-3.6l-16-24.8l3.1-10.4l21.2,25.3
		l0.8,0.4l1.4,1.4l3.3,4.1l1.1,1.6l1.3,1.7l3,4.6l-0.1,0.3l-0.7,1.9l4.2,5.8l-20.3,36.4v-0.4l-6.6-5.5l-4.1-1.3l-12,1.9l-13.9,6.7
		l-11.4-3l-3.8-4.9l-4.6-8.9L505.5,258.9z"/>
	<path class="st0" d="M514.5,273.7l11.4,3l13.9-6.7l12-1.9l4.1,1.3l6.5,5.5v0.4l-3.6,15.2l-1.1,6.8l-0.4,6.2l-0.2,5.7l2.6,9.1
		l-4.7,14.4L553,329l-7.2-12.8l-1.3-2.2l-8.1-8.7l-7-10.1l-1.4-2.2l-3-5.5l-2.1-3.2L514.5,273.7z"/>
	<path class="st0" d="M313.7,309.1l0.5,1.9l-6.8,1.7h-1.9l-1.1,1l-0.8-2.8l-1.1-3.2l-2.2-8.2l-0.8-2.2l-1.9-7.8l-1.4-6.4l-0.8-3.2
		l-1.1-3.6l-1.1-4.1l-1.1-2.8l-0.3-1.8l-0.3-2.8l-1.1-4.6l-1.4-5l-0.8-1.4l10.4-3.2l0.5,2l0.3,1.6l0.8,3.1l0.4,1.6l0.9,3.5l0.3,1.4
		l0.5,2l0.2,0.9l0.7,2.7l0.5,1.8l0.7,2.4l1,4.1l0.9,3.3l1.1,4.1l0.7,2.2l0.5,2.2l1.4,5l0.8,2.8l1,3.6l0.5,2.2l0.3,1.4l0.4,1.9
		L313.7,309.1z"/>
	<path class="st0" d="M332.2,280.3v1.8l-3.3,2.2l-3,1.4l-7.8,4.6l-8.1,4.1l-1.4-5l-0.5-2.2l-0.7-2.2l-1.1-4.1l-0.9-3.3l-1-4.1
		l-0.7-2.4l-0.5-1.8l-0.7-2.7l-0.2-0.9l-0.5-2l-0.3-1.4l-0.9-3.5l-0.4-1.6l-0.8-3.1l-0.3-1.6l8.3-2.5l1.1,1.8l0.8,4.1v1.4l3.3-1
		l0.3,2.2l0.5,2.1l1,3.9l0.3,1.8l1.9-0.4l6.7-1.4l6.7-0.9v1.8l1.1,5l0.3,4.1l0.3,1.8l0.2,2.6L332.2,280.3z"/>
	<path class="st0" d="M361.2,307.3l2.2,3.2h-1.1l-1.9,0.4l-6.7,1.4l-8.1,1.4l-6.3,1.8l-2.6,0.4l0.5-2.1l-2.4-0.1l-2.5-31.6v-1.8
		l-0.1-1.1l-0.2-2.6l-0.3-1.8l-0.3-4.1l-1.1-5V264l0.3-0.1l4.1-0.9l0.8,2.2l0.3,4.1l0.3,1.4l1.9-0.4l8.1-1.4l3.3-0.4l3.7-0.4h1.1
		l0.3,2.8l0.8,4.1l0.8,3.6l0.3,4.1l0.8,3.2l0.3,3.2l0.3,2.8l1.1,3.6l0.3,3.6l1.1,3.6L361.2,307.3z"/>
	<path class="st0" d="M554.8,496.4l-1.1,1.8l-0.8,2.8v1.8l-1.1,1.8l-1.1,4.1l3.7,1.4l4.1,2.2l-2.6,4.1l-7-2.2l-0.3,1l-0.8,2.8
		l-0.8,2.8l-1.1,3.2l-1.1,2.8l-0.8,3.2l-1.1,2.2l-0.8,3.2l-0.3,1l-0.8,2.2l-0.3,1.4l-1.1,2.8v1l-1.1,2.2l-0.3,2.8l-0.3,1.4l-1.1,2.2
		l-1.4,5l-3.3-1.4l-3-1.4H528h-3.3l-4.5-0.4l3-3.6l2.6-3.6l2.2-2.8l-3-1.8l5.6-7.3l-2.6-2.2l2.6-3.6l4.8-6l1.5-4.1l1.8-7l-5.6-1.8
		l0.8-1l1.5-4.1l2.1,0.5l1.2,0.3l4.1-12.3l-2.2-2.8l0.3-2.4l0.1-0.4l0.4-1.3l1,0.3l8.1,2.2l5.7,2l-0.4,2l-0.3,0.4L554.8,496.4z"/>
	<path class="st0" d="M479.6,505.9l-1.1,0.4l-3.7,1.8l-3.3,2.8l-0.8,1l-2.6,2.2l-2.2,1.8l-1.5,1l-0.3,1l-3,2.2l-1.1,1l-2.6,2.2
		l-0.8,1l-1.4,1.8H454l-1.1,1.4l-1.9,1.8l-2.2,2.2l-4.1-1.8l3.3-3.2l-4.8-5l-3-3.6l-4.1-3.6l-3-3.2l-3.3-3.6l-3-3.2l-3.4-3.6l-3-3.6
		l3.3-2.8l3.3-3.2l3.3-3.2l3.7,3.6l3.3,4.1l3.3,3.2l3.7-2.2l4.1-3.2l3.7-2.8l3.3-2.8l4.1-3.2l3.3-2.2l3,3.2l2.2,2.8l3.7,3.6l3.3,4.1
		l3.3,2.8l5.2,5.5h-1.1l-2.2,1.4L479.6,505.9z"/>
	<path class="st0" d="M322.1,470.9l0.1,0.6l-0.7,0.3l-0.8,0.5l-0.5,0.3l-0.5,0.6l-1.1,3.2l-4.1-2.2l-4.7-2.2l-0.3,0.9l-0.8,1.4
		l-0.3,3.2l-0.7,2.4l-0.1,0.4l-1.1,4.1l-0.8,2.8l2.2,0.4l3.7,2.2l4.5,2.2l-3.3,6.4l-1.3,2.7l-1.3-1.2l-7.4-0.6l-9.3-1l-3.4-0.5
		l0.3-3.4l-2.5-0.6l-4.2,10.5l-2.9-1.7l1-5.2l-2-0.3l-2.1,6.1l-2.2,2.6l-1.6-2.6l-2.1,0.7l0.2,2.8l-8.7,2.2l-35.6-0.4l-24.5-5
		l-25.2-6.5l-30-7.7l-17.4-9.6l1.5-2.2l1.4-0.2l3.4-0.6l11.1-0.4l5.9-15.1l1.1-6l0.8-4.6l-7.8-2.2l-1.3-0.3l-3.3-1.1l-4.8,3.3
		l-11.1,7.7l-17.6,7.2l-9.7,3.6l-5.6-8.2l30.1-25.6h3h3.3l17,1l16.7,1.4l11.1,1l16.4,1.8l11.1,1.4l6.7-0.9l2,0.5l17.7,22l6.5,5.7
		l7.1,3.2l8.2,1.9l8.3,0.7l2.2,0.1l3-0.3l2.4-0.7l2-9.8l0.3-1.8l1.5-4.5h0.8l3.7,1.4h2.2l2.6,1l-3-5l-1.3-1.4l1.2-0.1l1.4,0.4
		l-0.8-0.7l-0.9-1.6l-0.5-1.1l-0.5-5.7l5.5,1.3l2.3,0.5l2.6,1.4l4.5,1l3.7,1l4.4,1.4l4.1,1l3.3,1l4.1,1.4l3.7,1l0.9,0.1l2.1,0.1
		l0.8-0.7l3.3,1.8l2.2,1l1.9,1l-2.7,5.8l-0.5,2.5l-0.3,2.4L322.1,470.9z"/>
	<path class="st0" d="M442,436.9l-4.1,3.2l-1.9,1.4l-1.5,1.4l-2.2,0.4l-1.9-1.8l-2.6,1.8l-9.2,4.6l-8.6,0.4l-1.1-2.8l-0.8-4.6
		l0.8-2.2l-4.5-0.4l-4.4-1l-3-1.8l-1.1-1l-2.6-3.2l-1.1-1l-0.8-2.8l-0.1-1.1l-0.2-2.1l5.2-2.2l2.6-3.2l10.4-8.2l11.1-7.8l0.4-0.3
		l1.9-1.5l1.1,1.8l0.2,0.3l1.3,2l4,8.5l0.3,1.1l2.3,9.6l0.4,1.1l1.5,1.8l4.1,4.6l6.3,5.9L442,436.9z"/>
	<path class="st0" d="M632.7,545.1l-1.4,1l-1.9,1l-4.5,2.8l-3.3,1.8l-2.6,1.8l-2.6,1.4l-3.7,2.2l-2.6,1.8l-3.3,2.2l-3.3,1.8
		l-4.1-4.6l-0.9-1.1l-1.3-1.6l-2.9-3.1l-2.6-2.9l-4.5-4.6l-2.3-2.7l-1.2-1.5l-2.3-2.7l1.5-1.8l4.5-3.2l4.1-2.8l3-2.2l3-1.8l1.1-1
		l1.4-1.4l1.1-1l1.9-1l2.6-2.2l1.4-1l5.8,7l4.9,5.9l2.1,1.9l3.6,3.9l0.8,0.5l2.1,1.9l1.9,1.1l1.4,0.9l4.5,2.2L632.7,545.1z"/>
	<path class="st0" d="M728.3,667.3l-5.9,3.6l-7,4.1l-6.3,4.1l-6.3,3.6l-7.8,4.1l-3.7-1.8l-4.5-2.8l-3.3-2.2l-3-1.4l-2.2-1.4
		l-0.9-0.6l-1.8-1.2l-0.8-0.4l-2.1-1.1l-2.7-1.6l-3.6-1.9l9.3-7.8l3-2.2l3.3-2.8l1.5-1.4l2.2-1.4l3-2.2l3-2.2l1.9-1.8l1.9-1.4l1.1-1
		l2.2-1.8l2.6-2.2l2.6-1.8l5.9,3.6l1.5,2.2l2.2,2.8l2.2,2.2l1.9,2.2l2.2,2.8l1.1,1.4l3,3.2l2.2,3.2L728.3,667.3z"/>
	<path class="st0" d="M703.8,640.4l-2.6,1.8l-2.6,2.2l-2.2,1.8l-1.1,1l-1.9,1.4l-1.9,1.8l-7.5-9.6l-1.9-1.8l-1.5-2.2l-10.8,8.7
		l-11.1,8.7l1.1,1.4l-7.8,6.8l-3.3-2.2l-3.3-2.2l-1.9-1l-1.5-1l-2.2-1.4l-1.1-0.4l-3.3-1.8l1.1-1.4l3-2.2l4.8-3.6l3.7-3.2l1.5-1.4
		l0.3-0.3l3-2.5l2.7-2.2l4-3.2l-1.9-2.2l-2.2-2.2l-1.1-1l-1.5-1.8l-2.2-2.8l-2.6-2.2l-4-4.3l0.8-4.6l2.4,0.5l7.9,1.9l4.1,1l4.1,0.4
		l4.8,1.4l4.8,1h3.3l10,2.2l8.1,1l4.1,1l4.1,0.4l5.2,0.4l14.8,3.2l-5.2,3.6l-8.1,7.3l-3.7,2.8l-0.8,0.4L703.8,640.4z"/>
	<path class="st0" d="M582.5,536.5l-1.5,1.8l-3.3,1.8l-2.6,2.2l-2.6,1.8l-1.9,1l-2.2,1.8l-1.1,1l-2.6-3.6l-3.3-3.2l-1.5-1.8l0.3-2.2
		l-1.1-0.4l1.5-2.8l2.6,1.4l2.6-2.8l3.3-1.8l6.3-2.8l2.2,2.8l2.2,3.2L582.5,536.5z"/>
	<path class="st0" d="M490,483.9l-1.9,2.2l-0.8,1l-1.9,2.8l-2.2,3.6l-1.9,2.2l-2.6,2.8l-3.3-2.8l-3.3-4.1l-3.7-3.6l-2.2-2.8
		l10.8-9.1l0.8-0.4l5.2-2.8l5.2,1.8l2.2,1.4l3.7,3.6l-3.3,3.2L490,483.9z"/>
	<path class="st0" d="M696,786.1l-0.7,1.3l-2.1,4.3l-1.3,2.6l-5.3,10.6l-0.3,0.6l-1.4,2.8l-1.1,2.2l-0.2,0.4l-3.3,6.5l-1.6,3.3
		l-16.4-22.4l-1.1-1.4l-0.3-1.4l-0.8-1l-1.1-1.4l-17-23.8l-2-2.7l3.3-3.6l1.9,0.4l1.5,0.4l5.9,1.8l11.1,4.1l7-18.7l17.1,18.3
		l1.9,2.2l0.3,0.4l2.2,1.8l1.9,2.2l0.8,1l1.5,3.6v0.5L696,786.1z"/>
	<path class="st0" d="M394.1,243.4l-0.8,4.6l-1.1,4.1l-0.3,3.6l-0.3,2.8v3.2l-0.3,3.2l-0.3,3.2v3.6l-0.8,3.2l-0.3,4.1v1.4v4.1
		l-0.5,2.9l-0.5,3v1.4l-0.3,1.4l-3.7,2.2l-1.2,0.9l-2.2,2.2l-2.1,2.8l-2.2,3.2l-1.9,4.6l-3,12.8l-3-4.1l-2.2-3.2l-3.3-4.1l-2.2-3.2
		l-0.8-4.6l-1.1-3.6l-0.3-3.6l-1.1-3.6l-0.3-2.8l-0.3-3.2l-0.8-3.2l-0.3-4.1l-0.8-3.6l-0.8-4.1l-0.3-2.8l7.4-1.8v-1.4l-1.9-3.6v-1.8
		l1.9-1h2.6l-0.3-1.8l-0.8-3.6l-0.3-2.2l-0.3-2.8l-0.3-2.8l3.7-1h3.3l3.3-1l15.9-1.8l5.6-0.4L394.1,243.4z"/>
	<path class="st0" d="M707.9,505.7l1-0.6l1.9-5l0.7-1.9l2.6-0.6l1.4-0.3l2.6,4.6l4.1,1.8l1.3-1.8l2-2.7l33,28.8l35.9,13.3l3.2,5.1
		l9,5.9l10.6,5.7h9l7.7,7.3l7.6-6.4L785.6,609l-3.3,1.4l-2.2,1.8l-4.5-5l-5.8-4.3l-0.4-0.3l-10.4-5.9l-0.3-0.2l-7.5-4.4l-5.6-4.1
		l-1.5-1l-0.7-0.4l-3.5-2.4l-3.5-2.4l-1.8-1.2l6.6-7L710.1,510L707.9,505.7z"/>
	<path class="st0" d="M760.2,683.7l1.1,3.2l3.5,12.8l2.6,7.3l1.9,3.2l2.2,4.1l-1.9,1h-0.8l-1.4,1l-3.3,1.8l-4.8,3.2l-3.7-6.8
		l-3.7-6.8l-4.4-6.7l-2.1-4.6h-0.3l-1.5-2.8l-1.9-3.4l-1.9-3l-1.5-2.8l-1.6-2.8l-2.1-3.5l-2-3.4l-2.1-3.4l-2.6-3.6l5.2-3.2l1.5-1
		l4.6-2.8l2.2-1.4l2.2-2.2l4.1-2.2l2.2,2.8l2.6,2.8l1.5,2.2l5.2,18.3L760.2,683.7z"/>
	<path class="st0" d="M808.9,735.4l1.1-0.4l-0.8-2.8l3.3-2.8l2.2-1.8l4.5-2.8l5.6-4.1l2.5-1.6l1.2-0.7l4.1,5.5l3.7-2.8l15.9-9
		l11.5-6.5l3.7-1.8l3-2.2l3-1.8l2.6-1.4l4.1-2.2l2.2-1.8l5.2-2.8l7.8-4.6l5.9-3.6l10-6l2.2-0.6l8.6,17.1l8.9,19.2l0.3,4.6l7.5-5
		l6.4,12.7l-8.4,36.1l-1.4,10.5l-3.3,1l-3.7,8.2l-4.1-1.4l-7.8,7.3l-7,6.4l-4.5-5l1.9,10.5l-3.3,6.8l1.5,3.6l-3.3,1.8l-1.5,0.4
		l-10.4-1.8l-13.8-8.2l-2.2-1.3l0.8-2.2l1.1-3.6l1.1-2.4l1.3-1.5l-0.5-0.3l0.4-1.8l-0.3-1.8l-0.3-0.4l-5.3,1.6l5.3-1.6l1.2-4.9
		l-7.8-6l-22.8-8.6l-3.8,1.9l-2.9,3.3l-2.6-2.2h-1.9h-1.5l-1.5-1l-1.1-1l-3.3-3.6l-1.2-1.6l-4-5.2l-2.2-3.6l-2.2-3.2l-1.8-4.1
		L808.9,735.4z M844.2,767.8l-0.4,0.7l-0.3,0.9l0.3-0.9L844.2,767.8z"/>
	<path class="st0" d="M379.3,496.7l-1.9,3.2l-1.5,3.6l-0.8,1l-4.1-2.2L367,500l-4.4-2.1l-4.1-2.5l-4.9-2.1l-2.1-1.1l-1.9-1l-4.4-2.2
		l-4.8-1.8l0.8-1.4l1.5-3.2l1.9-3.2l1.5-3.6l1.5-2.8l1.5-3.2l4.8,2.2l4.1,2.2l4.4,1.8l4.5,2.2l4.1,1.8l4.4,2.8l4.1,1.8l-1.5,2.8
		l4.5,2.8L381,493L379.3,496.7z"/>
	<path class="st0" d="M394.5,488.9l2.2,1.4l-0.3,6.8l-5.6-2.7l-8.6-4.2l-4.5-2.8l1.5-2.8l-4.1-1.8l-4.4-2.8l-4.1-1.8l-4.5-2.2
		l1.5-3.2l1.5-3.2l1.5-3.2l4.4,2.2l4.8,2.2l4.1,2.2l4.1,2.2h1.1l1.9,3.2l2.6,4.1l1.5,1.4l5.2,2.8l1.5,0.4l1.9,1.4h-2.6L394.5,488.9z
		"/>
	<path class="st0" d="M547.1,191.6L544,202l16,24.8l-3.1,3.6l-2.6,1.4l-2.2,1.4l-8.9,2.2l-2.5,1l-0.9,0.7l-0.3,0.5l-0.5,1.2
		l-21.8-18.5L492,234.8l-0.5-5.8l-0.3-4.6l-0.3-3.2l-0.8-1.8l-10.4,1l-3.3-0.4l-2.2,0.4h-3.7l-5.5-0.4l-1.2-1l-0.9-0.7l-1-0.6
		l-3.3-4.6l-1.9,1l0.3-2.2l-0.1-0.6l-0.7-6.2l3-1l4.1,1.8l1.4-0.4l2.7-0.9l13.1-6.3l2.4-1.2l1.5-0.7l2.2-0.4l7.8-3.2l4.8-4.6l1-1.1
		l1.5-1.7l3.7-4.1l0.3-0.4l11.6-11.1l2.7-2.6l10-9.5l5.2,5.5l5.9-1.4l11.9,10.1l-5.2,3.2l-8.6,10.1l4.1,2.8L547.1,191.6z"/>
	<path class="st0" d="M332.9,382.9l0.7,2.1h-2.7l-4.1-1l-3.7-1.4l-4.5-1l-3-1.4l-4.5-1l-4.5-1l-3-1l-1.5,2.2l-3.3,3.6l-2.6,4.1
		l-1.9,3.2l-4.1,6.4l-2.2,4.1l-0.3,2.8l-1.4-0.4l-4.8-2.8l-4.4-2.8l-4.8-2.8l-2.1-1.6l-0.9-0.6l-1-0.6l-2.3-1.5l-0.4-0.2l-2.1-1.2
		l5.3-5.5l1.8-1.9l1.4-1.6l0.7-1.3l2.2-3l1.3-1.4l1.3-4.4l2-6.7l0.5-3.5v-1v-0.9l0.4,0.2l0.3-1.2l0.7-1.6l-1.4-0.9v-1.4l0.2-5.5
		l0.1-4l-1-1.4l-0.7-1.1l1.6,0.4l4.1,1.4l4.8,1.4l2.2,0.6l2.3,0.7l4.8,1.4l2.6,1.4l1.9,0.4l9.2,3.2l1.5,0.4l3.3,1l1.1-0.4l4.5,1.8
		l3.7,1l0.2,0.9l0.3,1.2l0.4,2.4l1,4.4l0.4,1.8l0.7,2.2l1.1,3.6l0.9,3.5l0.4,1.5l0.5,2.2L332.9,382.9z"/>
	<path class="st0" d="M481.2,468.4l-5.6,1.4l-3.7,0.4l-6.7,1l-1.9,0.4l-6.7,2.2l-5.6,1.4l-3,0.4l-2.2,1h-1.5l-3.3,1.4l-4.5,0.4
		l-0.8,0.4l-3.7,1l-1.2,0.2l-1.3,0.2l-5.9,1.4l-6.7-3.6l-1.9-1v-6.4l1.5-2.2l3.3-5.9l6.7-1.8l2.6-3.2l2.6,1l-4-1.9l4.5-13.3l2.1-0.4
		l1.4-1.4l1.9-1.4l4.1-3.2l2.2,1l12.1,2l5.7,1.8l3,0.7l1.2,0.6l13.9,7.6l4.1,2.6l3.7,2.5l7.8,7.3l-1.9,1.8l-2.6,2.2l-3,0.4
		L481.2,468.4z"/>
	<path class="st0" d="M666.4,670.5l-4.5,7.8l-6.3,5.5l-6.7,5.5l-6.3,5l-7.5,5.5l-3-1l-4.1-5l-4.5-4.6l-7.5-7.3l1.1-1.4l8.1-8.7
		l3.3-3.2l3.7-2.8l1.9-1.4l1.4-1.2l4.5-3.7l3.4-2.9l1.9,1l3.3,2.2l3.3,2.2l2.6,1.4l3,1.8l1.9,1l1,0.6l2,1.2l1.1,0.9L666.4,670.5z"/>
	<path class="st0" d="M663.8,770.2l-20.4-6.8L640,767l-2.6-3.2l-1.9-3l-0.7-1.1l-2.1-3.1l-1.8-2.4l-3.6-5.6l-14-19.2L593.1,701
		l-1.4-2.2l-3.7-5.7l-5-7.1l-3.4-4.6l-5.6-7.3l-1.9-2.2l4.8-1.8l-4.5-10.1h-8.9l-1.4-2l-0.4-0.4l-7.1-12.3l-2.4-4l-5.4-8.7l-2.2-4.6
		l3.7-3.6l3.3-2.8l3.7-3.6l2.2,2.8l3,3.2l2.6,2.8l2.6,2.8l1.5,1.4l3.3,3.6l3.3,3.2l2.2,2.2l2.2,2.2l2.2,2.8l2.6,1.8l0.9-1l3-2.8
		l3-2.2l11.1-8.7l4.1,2.2l7.8,4.6l-19.5,17l5.7,6l-0.8,1l17.8,19.2l7.5,7.3l4.5,4.6l4.1,5l3,1l-0.3,12.8l5,5.6l1.5,1.7l12.3,13.3
		l17.1,18.3L663.8,770.2z"/>
	<path class="st0" d="M677.1,823.1l-20.4-12.8l-9.7-5l-9.5-5l-0.8-16l7.7-11.4l14.5,20.5l1.1,1.4l0.8,1l0.3,1.4l1.1,1.4l16.4,22.4
		l4.1,5L677.1,823.1z"/>
	<path class="st0" d="M755.9,723.1l-3.7,1.8l-4.1,2.8l-4.1,2.8l-3.3,1.8l-4.1,2.2l-3.7,2.2l-4.1,2.8l-2.2-3.2l-1.9-3.6l-1.9-2.8
		l-1.9-3.2l-2-3.6l-1.9-2.8l-0.5-1.4l-1.1-2l-1.3-2.1l3.7-2.2l1.9-1l2.6-1.4l3.7-2.2l3.7-2.2l3-1.8l1.4-1l3.7-1.8l1.1-1l3.3-1.8
		l1.5-1l1.4-1.4l2.2,4.6l4.3,6.8l3.7,6.8l3.7,6.8L755.9,723.1z"/>
	<path class="st0" d="M674.1,489.5l24.7-23.9l3.7,2.8l3.3-3.2l4.8,2.2l-1.5,4.1l11.7,7.1l2.6,1.6l3.7,2.2l-1.5,5.5l-0.3,10.9l-2,2.8
		l-1.3,1.8l-4.1-1.8l-2.6-4.6l-1.4,0.3l-2.6,0.6l-0.7,1.9l-1.9,5l-5.2,3.2l-7.7-6.4l-1.6-1.4l-4.4-0.7l-4.1-0.6l-0.8-1.8l-3-4.6
		l-6.7-3.2L674.1,489.5z"/>
	<path class="st0" d="M540.7,421.7l-2.2,3.6l-2,2l-2.1,2.1l-1.3,1.4l-4.3,4.6l-3.7,2.2l-2.2,1.8l-9.2,6.4l-9.7,3.2l0.3-3.2l3.7-7.3
		l-0.8-0.4l-1.9-2.2l-4.8,1h-1.4l-1.5,0.4l-5.5-6.3l-2.2,1.8l-1.9-2.8l-0.8-1.8l-0.8-3.2l-2.2-4.5l-2.3-1.4l-0.3,4.1l-4.4-2.2
		l-3.7-2.2l1.1-1.4l2.6-2.8l0.8-1l3.3,1.8l15.1,1l3.7,0.4l1.1,1.4l-1-1.4l-3-7.3l3.3-1.4l10,2.8l14.7,4.1l8.1,2.2l1.5,0.4l5.2,1.4
		l4.5,1.4L540.7,421.7z"/>
	<path class="st0" d="M604.1,503.2l-2.2,2.2l-2.6,2.2l-1.6,1.9l-5.5-4.3l-4.7-2.9l-1.6-1.1l-2.2-1.5l-3.7-1.4l-11.9-3.6l-7-1.8l-3-1
		l-2.1-0.6l0.7-2l0.3-1l0.3-1.8l1.9-5h1.5l2.6,1l3.3,1.4l4.5,1.4l3.7,1.4l3.7,1l3.7,1.4l4.1,1.4l3-1l11.1,5.5l5.9,6.4L604.1,503.2z"
		/>
	<path class="st0" d="M384.1,437.3l-1.1,4.1l-0.3,6.8l-4.5-5l-3.7,7.3l-1.9,5l-3.3,6.4l-2.6,4.6l-1.5,3.2l-1.5,3.2l-1.5,3.2
		l-4.4-1.8l-4.1-2.2l-4.8-2.2l-1.5,3.2l-4.5-2.2l-4.4-2.2l-4.1-1.8l1.5-3.2l1.9-3.2l1.5-2.8l1.5-3.6l4.5,1.8l1.1-2.8l1.9-3.2
		l1.1-1.8l0.8-1l7,1.8l1.1-3.6v-2.2l0.3-1l0.8-3.2l0.3-2.8l0.8-3.2l0.8-2.2v-1.4l0.8-2.8l4.1,1.4l3.7,0.4l4.5,1.4l4.1,1h4.1h4.1
		l-0.8,1.8l-0.3,1L384.1,437.3z"/>
	<path class="st0" d="M783.4,761l1.5,3.6l-6.3,1.4l-4.8,2.2h-0.3l-5.6,1.8l-1.5,0.4l-5.6,2.8l-8.6,4.6l-4.1-6.8l-0.8-1.4l-1.1-1.4
		l-1.6-2l-1.6-3.4l-1.6-2.9l-1-1.7l3.7-1.4l1.1-0.4l5.2-1.4l8.6-3.2l9.3-2.8l-1.1-3.2l5.6-2.2l1.3,2.1l4.3,7l1.9,2.8l1.5,3.2
		L783.4,761z"/>
	<path class="st0" d="M447,535.1l-1.9,1.4l-5.9-1.8l-6.3-2.8l-2.2-1l-3.3-2.8l-5.2-2.8l-4.5-1.4l-4.8-2.2l-1.9-1.4l-1.5-1.4l-3-3.2
		l-0.9-0.9l-2.5-2.8l3.7-3.2l3.3-3.2l3.7-3.2l3-2.8l3.7-3.2l3,3.6l3.3,3.6l3,3.2l3.3,3.6l3,3.2l4.1,3.6l3,3.6l4.8,5l-3.3,3.2
		l4.1,1.8l-0.8,1.8L447,535.1z"/>
	<path class="st0" d="M743.7,656.7l-2.2,2.2l-2.2,1.4l-4.5,2.8l-1.4,1l-5.2,3.2l-2.2-3.2l-2.2-3.2l-3-3.2l-1.1-1.4l-2.2-2.8
		l-1.9-2.2l-2.2-2.2l-2.2-2.8l-1.5-2.2l-5.9-3.6l1.1-1l0.8-0.4l3.7-2.8l8.1-7.3l5.2-3.6l2.6,1.8l2.2,1.8l0.3,0.4l3,2.8l2.2,2.2
		l3,2.2l2.2,2.8l2.2,3.2l2.2,3.2l1.1,1.8l0.3,0.6l3.7,6.2L743.7,656.7z"/>
	<path class="st0" d="M786,628.4l-3.3,1.4l-3,1l-3-5l-2.2,4.6l0.8,6l-8.1-0.9l6.3,4.1l-1.6,1l-2.4,1.4l-4.8-1.4l-2.2,2.2l1.5,3.2
		l-1.4,0.4l-4.8,2.8l-4.1,2.2l-2.2,1.4l-3.3,1.8l-3.7-6.2l-0.3-0.6l-1.1-1.8l-2.2-3.2l-2.2-3.2l-2.2-2.8l-3-2.2l-2.2-2.2l-3-2.8
		l-0.3-0.4l-2.2-1.8l-2.6-1.8l4.1-3.6l3.7-4.1l0.8-2.2l2.6-5.5l0.8-1l-3.3-7.3l0.8-1h2.6l3.3,1.4l4.5-1.8l1.1-1.8l0.8-1l5.2-4.6
		l1.9-0.4l7.5,4.4l0.3,0.2l10.4,5.9l0.4,0.3l5.8,4.3l2.6,7.8l2.6,1.8l1.9,2.2l4.5,8.2L786,628.4z"/>
	<path class="st0" d="M726.8,736.4l2.2,3.2l-6.7,3.2l-2.6,1.8l-3.7,2.2l-3.3,1.8l-3.3,1.8l-3,1.8l-1.5,1l-3.3,3.2l-2.2,2.2l-3.7,3.6
		l-1.1,1.4l-0.8,0.4l-1.1,1l-2.2,2.2l-2.6,2.2l-17.1-18.3L653.7,733l1.1-1.4l5.2-4.1l15.9,16.5l0.8-1l9.7-5.5l1.9-0.9l3-1.8l2.6-1.4
		l1.1-0.4l3.3-1.8l3-1.8l3.3-1.8l6.3-3.6l6.3-3.6l1.9,2.8l2.2,3.6l1.9,3.2l1.9,2.8L726.8,736.4z"/>
	<path class="st0" d="M630.3,604.6l4.1,3.6l-9.7,0.4h-4.1h-4.5h-4.1h-3.7h-8.6l2.2-4.1l1.1-1.4l1.9-3.6h3l-2.2-8.7l-1.9-5.5
		l-0.8-3.2l-1.9-1.8l-3.3-3.6l-3-3.2l1.1-1.4l1.1-1.4l1.4-1.8l1.3-1.8l1.3-1.9l1.9-2.2l2.2,1.4l4.5,5.5l2.2,2.2l2.2,2.2l3,2.8l3.7,5
		l-2.2,1.8l-3.7,3.2l2.2,2.2l1.9,2.2l1.1,1.4l1.1,1l3,3.2l1.5,2.2L630.3,604.6z"/>
	<path class="st0" d="M629,613.3l-2.6,2.2l-1.5,0.4l-0.8,1.8l-3,1.8l-0.8,1l-1.9,1.4l-1.9,2.8l-3,1.8l-0.8,1l-1.5,1.4l-2.2,1.4
		l-4.1,4.1l-4.1-2.2l-2.6-1.8l-1.9-1l-3.3-2.2l7.8-13.7l-1.1-1v-3.6h8.6h3.7h4.1h4.5h4.1l9.7-0.4l-3,2.8L629,613.3z"/>
	<path class="st0" d="M422.7,250.7l0.3,4.6l-6.3,10.5l-3.7,6l-3.7,5l-3.3,5l-1.1,1.4l-0.8,1.4l-1.4,1.8l-2.2,1l-7,3.2l-1.8,1
		l-3.4,1.8l0.3-1.4v-1.4l0.5-3l0.5-2.9v-4.1v-1.4l0.3-4.1l0.8-3.2v-3.6l0.3-3.2l0.3-3.2v-3.2l0.3-2.8l0.3-3.6l1.1-4.1l0.8-4.6
		l-0.3-2.2l7-1.4l4.1-1h4.4l4.1-1l3.7-0.4l2.2-0.4l1.4,10.1l-0.3,1.4l2.2-1L422.7,250.7z"/>
	<path class="st0" d="M696.8,688.4l-8.9,5.5l-8.9,5l-3,1.8l-1.5-2.8l-26,15.5l-0.8,1l-5.2,4.6l-1.1,1l-1.5-1.7l-5-5.6l0.3-10.5V700
		l7.5-5.5l6.3-5l6.7-5.5l6.3-5.5l4.5-7.8l3.6,1.9l2.7,1.6l2.1,1.1l0.8,0.4l1.8,1.2l0.9,0.6l2.2,1.4l3,1.4l3.3,2.2l4.5,2.8l3.7,1.8
		L696.8,688.4z"/>
	<path class="st0" d="M817.2,747.3l-1.9,3.2l-0.8,1.5l-0.4,0.9l-1.1,0.4l0.8,1l-2.6,1.4l-2.4-0.3l-0.9-0.1l-2.6-1.8l-3-1.8l-3.7-2.8
		l-2.2-2.2l-1.1-1l-1.5-2.2l-3.3-3.2l-5.2-4.1l-4.1-3.6l-2.2-4.1l-1.1-1.4l-0.8-1.8l4.1-1.4l4.1-1l1.4-0.6l1.9-0.7l7-1.8l3.3-1.4
		l2.5-1l0.9,2.2l3,6.8l3.7,9.1l8.7,11L817.2,747.3z"/>
	<path class="st0" d="M634.9,324.2L622.7,301l-30-11.2l2.5-0.7l-6.6-44l7.2,1.3l9.2,1.8l2.1,3.2l6.8,10.5l4.1,4.6l5.2,4.1l5.9,5.5
		l1.9,1.4l5.6,5.5v3.6l-1.9,2.2l1.4,0.7l0.5,0.7l0.5,0.5l0.9,0.3l0.8,0.4l0.4,0.7l0.3,0.5l0.2,0.6l0.1,0.4l0.8,0.3l0.3,0.1l0.3,0.4
		l0.1,0.3v0.6v0.3l7.9,4.3l0.8,1l7,7.3l2.7,1.7L634.9,324.2z"/>
	<path class="st0" d="M599.9,608.7l0.1,3.6l1.1,1l-7.8,13.7l-3.3-1.8l-3.3-1.8l-2.2-1.4l-1.1-1l-1.9-1l-1.9-1.4l-1.5-1l-0.8-0.4
		l-1.4-1l-4.5-2.8l-3.7-1.8l-3-2.2l-4.8-2.8l-0.8-0.4l1.9-2.2l2.6-2.8l2.6-2.8l2.2-1.8l2.2-2.2l6.3-0.4l2.9-0.4l3.3-4.5l5.9-7.3
		l4.5-6l1.4-2.2l3,3.2l3.3,3.6l1.9,1.8l0.8,3.2l1.9,5.5l2.2,8.7h-3l-1.9,3.6l-1.1,1.4L599.9,608.7z"/>
	<path class="st0" d="M718.5,622.5l4.1,2.8l-14.8-3.2l-5.2-0.4l-4.1-0.4l-4.1-1l-8.1-1l-10-2.2h-3.3l-4.8-1l-4.8-1.4l-4.1-0.4
		l-4.1-1l-7.8-1.8l-2.6-0.4l-3-1l-7.5-1.8l2.2-1.8l1.4-1l1.1-1.4l1.1-1l1.5-1.4l1.9-1.4l1.9-2.2l2.6-1.8l3.7-3.2l3-2.2l2.6-2.2
		l1.1-1l1.5-1l2.6-2.8l1.5,2.2l2.6,2.8l1.9,2.2l2.2,2.2l4.1-0.4l3.3-1.8l3,1.8l3.3,2.2l3.7,2.2l2.2,1.8l3.3,2.8l1.5,1.8l3,2.2
		l2.6,2.2l5.2,6.4l3.7,2.8L718.5,622.5z"/>
	<path class="st0" d="M560.1,606.9l-5.2,4.6l-1.5,1.2l-1.1,0.6l-0.8,0.4l-1.1,1l-4.1,3.6l-2.6,1.8l-2.5,1.8l-0.4-0.6l-0.4-0.7
		l-2.5-3.2l-2.1-2.4l-2.1-1.3l-17.4-7.5l0.4-1.2l2.1-6.8l0.8-1.4l0.4-1.8l0.3-1l1.9-4.6l1.5-4.1l4.8,2.8l2.6,1.4l0.8,0.4l3.3,2.2
		l2.6,1.4l1.1,1l3.3,1.8l3.3,1.8l3.7,2.2l3.3,1.8l3.3,2.2l1.5,1l1.9,1L560.1,606.9z"/>
	<path class="st0" d="M334.9,313.7l-8.1-1.3l-1.1-0.2l-0.8-0.2l-1.8-0.3l-3,0.7l-1.6,0.4l-1.2,0.3l-2.4,0.6l-0.4-2.1l-0.1-0.5
		l-0.5-1.9l-0.7-2.7l-0.4-1.9l-0.3-1.4l-0.5-2.2l-1-3.6l-0.8-2.8l8.1-4.1l7.8-4.6l3-1.4l3.3-2.2L334.9,313.7z"/>
	<path class="st0" d="M561.8,451.5l0.3,1.9l0.3,2.9l-1.4,2.5l-1.6,3l-1.6,4.4l-3.8,7.8l-1,1.9v3.2l2.2,0.4l4.1,1.8l-1.9,5l-0.3,1.8
		l-0.3,1l-0.7,2l-5.7-2l-8.1-2.2l-1-0.3l-7.8-2l-4.1-1.3l-3.5-0.7l-7.2-1.5l-6.3-1.8l-1.4-1l-7.5-7.7l2.2-1.4l1.4-1.8l4.8-4.1
		l0.8-1.4l7.5-3.6l3-1.8l1.1-1l3-1.4l-2.2-5l5.6-2.2l1.1-1l-6.3-8.2l3.7-2.2l4.3-4.6l1.3-1.4l2.1-2.1l2-2l2.2-3.6l4.1-1.4l8.8,2.5
		l4.3,1.2l5.2,0.4l0.8-1l3.3,1.8l1.5,1.4l-2.2,2.8l-2.7,4.2l-0.5,0.9l-1,3.4l-0.8,6.3l-0.1,4.3l0.1,1.4L561.8,451.5z"/>
	<path class="st0" d="M753.3,651.3l4.1-2.2l4.8-2.8l1.5-0.4l-1.5-3.2l2.2-2.2l4.8,1.4l2.4-1.4l1.6-1l-6.3-4.1l8.1,0.9l-0.8-6
		l2.2-4.6l3,5l3-1l3.3-1.4l1.1-1l-4.5-8.2l-1.9-2.2l-2.6-1.8l-2.6-7.8l4.5,5l4.5,5.9l3,4.1l8.6,17.8l11.5,19.2l2.2,4.6l2.5,8v1.1
		l-0.2,1.4l-0.4,1.6l-0.5,2l-1,2l-1.4,2.4l-4.7,6.3l-1,1.3l-1.9,3.9l-1.1,2.6l-2.6-1.4l-1.9-3.2l-1.1-1.4l-1.9-1.8l-3.2-4.7
		l-3.8-5.8l-0.8-4.1l-3-5.5l-5.2-3.6l-6.7-5.9l-3.5-0.9l-2.1-0.5l-8.9-1.4l-4.5-3.6L753.3,651.3z"/>
	<path class="st0" d="M439.2,428.4l-1,1.6l-0.3,1.8l-4.1-4.6l-1.5-1.8l-0.4-1.1l-2.2-9.3l-0.2-0.4l-0.3-1.1l-4-8.5l-1.3-2l-0.2-0.3
		l-1.1-1.8l-4.8-8.2l-1-0.7l-1.2-1.1l-0.8-0.4l1.1-0.4l1.1-0.4l2.6-2.8l8.1-4.1l5.9-1.8l4.2-1.2l3.6,3l6.8,7.4l3,1.8l2.2,1.8
		l-1.1,2.2v2.2l-0.8,1.8l-2.1,6.5l-0.3,1.2l-1.1,1.4l-0.3,1.4l-1.9,5l-0.3,1L439.2,428.4z"/>
	<path class="st0" d="M585.2,553.9l-3,2.2l-3,2.8l-8.1,7.8l-8.1,6.8l-3,2.8l-3,2.8l-2.5-2.8l-0.9-1l-1.1-1.4l-3-2.8l-1.1-3.6
		l-0.3-3.2l1.4-1.8l1.5-1.8l3.3-3.2l2.2-1.8l4.5-3.6l2.2-1l0.8-1l1.4-1l1.9-1.4l1.1-1l2.2-1.8l1.9-1l2.6-1.8l2.6-2.2l3.3-1.8
		l2.3,2.7l1.2,1.5l2.3,2.7l4.5,4.6l-3,1.8L585.2,553.9z"/>
	<path class="st0" d="M523.6,585.4l-1.5,4.1l-1.9,4.6l-3.3-3.2l-3-2.8l-3-1.8l-4.1-3.2l-11.5-11l-3.3-2.8l-1.4-1l-2.3-2.1L487,565
		l-3.7-2.8l3.3-4.1l3.7,2.8l1.5,1.8l2.2,1.4l4.8,3.6l4.1,2.8l2.6,1.8l3,2.2l5.9-7.3l2.6-3.2l7.5-10.1h3.3h1.1l3,1.4l3.3,1.4
		l-1.9,4.6l-1.4,3.6l-0.8,2.8l-0.8,1.4l-1.9,4.1l-0.8,2.2l-1.9,4.6l-1.4,3.2L523.6,585.4z"/>
	<path class="st0" d="M685.6,655l-2.2,1.4l-1.4,1.4l-3.3,2.8l-3,2.2l-9.3,7.8l-2.5-1.5l-1.1-0.9l-2-1.2l-1-0.6l-1.9-1l-3-1.8
		l-2.6-1.4l7.8-6.8l-1.1-1.4l11.1-8.7l10.8-8.7l1.5,2.2l1.9,1.8l7.5,9.6l-3,2.2L685.6,655z"/>
	<path class="st0" d="M715.5,717l1.1,2l0.5,1.4l-6.3,3.6l-6.3,3.6l-3.3,1.8l-3,1.8l-3.3,1.8l-1.1,0.4l-2.6,1.4l-3,1.8l-1.9,0.9
		l-9.7,5.5l-0.8,1l-15.9-16.5l0.8-1l6.3-4.6l2.6-2.2l3.3-1.8l-0.8-1.8l7.5-4.1l5.6-3.2l5.6-3.6l6.3-3.2l6.7-4.1l1.5,2.2l1.1,1.8
		l0.7,1l0.9,1.6l0.5,0.7l1.2,2.1l0.7,1l1.4,2.4l0.4,0.7l1.2,2.1l0.7,1.1L715.5,717z"/>
	<path class="st0" d="M516.7,519.1l-2.2,2.8l-0.8,1l-2.2,2.8l-3.3,2.2l-3.3,3.2v1l-2.6,2.8l-5.2-4.1l-4.1-3.2l-4.1-2.2l-3.7-3.2
		l-3.7-2.8l-4.1-2.8l-4.1-3.2l-2.6-1.4l0.8-1l3.3-2.8l3.7-1.8l1.1-0.4l1.1-0.4l2.2-1.4l1.9,1.4l4.8-1l1.1-0.4l4.1-1.4l5.2-0.4l1.1-1
		l7.8,6.4l3.3,2.8l4.1,1.8l3.7,1L516.7,519.1z"/>
	<path class="st0" d="M492.1,235l25.1-14.4l21.8,18.5l-0.4,1.1l-0.9,2.2l-1.9,8.7l-0.3,2.2l-0.9,2.6l-0.5,1.1l-0.8,0.7l-1.6,0.7
		l-1.5,0.4l-5.6,2.2l-1.6,0.3l-1.5,0.1l-2.4-0.1l-3-0.4l-2.1-0.2l-2.7-0.6l-5.5-1.3l-0.1-0.3l-2.2-2.5l-1.1-1.3l-4.1-6l-1.1-1.8
		l-2.6-3.2l-1.8-1.9l-0.3-5L492.1,235z"/>
	<path class="st0" d="M361.5,375.4l-1.1,4.5l-0.3,2.1l-0.4,2l-0.2,1.2l-1.2,6.8l-0.3,2l-0.1,0.3l-1.3,9.5l-0.8,4.1l-1.1,2.2
		l-5.2,7.3l-4.1,5.9l-1.9-1l-1.1-5l-1.4-4.1l-0.8-1l-0.7-3.1l-0.4-1.9l-0.3-1.4l-0.7-2.2l-0.3-1.2l-0.5-2.4l-0.8-3.7l-0.5-1.9
		l-0.5-2.7l-1-4.4l-0.8-2.5l-0.7-2.1l-0.5-2.4l-0.5-2.2l-0.4-1.5l-0.9-3.5l-1.1-3.6l-0.7-2.2l-0.4-1.8l-1-4.4l-0.4-2.4l12.1,3.6
		l0.8,0.2l3.7,1.4l9.7,2.2l3.1,0.9l3.3,1l1.9,0.5l1.9,0.4l-0.3,1.4l-0.1,0.3l-0.2,0.6l-0.8,2.9L361.5,375.4z"/>
	<path class="st0" d="M770.7,740.4l1.9,3.2l-5.6,2.2l1.1,3.2l-9.3,2.8l-8.6,3.2l-5.2,1.4l-1.1,0.4l-3.7,1.4l-0.5-1l-1.3-2.2l-1-1.4
		l-0.9-1.3l-1.9-2.8l-1.1-1.4l-0.8-1.4l-1.3-2.6l-0.9-1.6l-1.9-3.2l4.1-2.8l3.7-2.2l4.1-2.2l3.3-1.8l4.1-2.8l4.1-2.8l3.7-1.8
		l3.3-1.8l3.3,5.5l3,4.6l3.3,5l0.8,1.8L770.7,740.4z"/>
	<path class="st0" d="M448.9,493l-4.1,3.2l-3.7,2.2l-3.3-3.2l-3.3-4.1l-3.7-3.6l-3-3.6l-4.1-2.2l5.9-1.4l1.3-0.2l1.2-0.2l3.7-1
		l0.8-0.4l4.5-0.4l3.3-1.4h1.5l2.2-1l3-0.4l5.6-1.4l6.7-2.2l1.9-0.4l6.7-1l3.7-0.4l5.6-1.4l7-1l-0.3,2.2l3.3,2.2l-3,2.8l-5.2-1.8
		l-5.2,2.8l-0.8,0.4l-10.8,9.1l-3-3.2l-3.3,2.2l-4.1,3.2l-3.3,2.8L448.9,493z"/>
	<path class="st0" d="M598.9,569l-1.5,1.8l-1.1,1.4l-1.1,1.4l-1.5,2.2l-4.5,6l-5.9,7.3l-3.3,4.6l-3,0.4l-6.3,0.4l-0.3-1l-3-2.8
		l-2.6-3.2l-0.8-0.4l-1.9-2.2l-2.6-3.2l-2.6-2.8l3-2.8l3-2.8l8.1-6.8l8.1-7.8l3-2.8l3-2.2l3.3-2.2l3-1.8l2.6,2.9l2.9,3.1l1.3,1.6
		l0.9,1.1l4.1,4.6l-1.9,2.2l-1.3,1.9L598.9,569z"/>
	<path class="st0" d="M496.8,416.3l-15.1-1l-3.3-1.8l-0.8,1l-2.6,2.8l-1.1,1.4l-2.2,2.2l-3,2.2l-1.1,1l-3.7,5.9l-2.2,1l-2.2,1
		l-8.1,2.2l-2.6-0.4h-1.9l-1.5,0.4l-1.1,3.6l-6.3-5.9l0.3-1.8l1.1-1.4l6.3-11.9l0.3-1l1.9-5l0.3-1.4l1.1-1.4l0.3-1.2l1.9-6.6
		l0.8-1.8v-2.2l1.1-2.2l3,1.8l2.6,1l4.1,1.4l6.7,1.8l4.1,1.4l6.7,1.8l3.3,0.4l5.2,1l4.8,1.4l2.2,1l4.7,1.4l-3.3,1.3l3,7.3
		L496.8,416.3z"/>
	<path class="st0" d="M384.1,475.6l-4.1-2.2l-4.1-2.2l-4.8-2.2l-4.4-2.2l2.6-4.6l3.3-6.4l1.9-5l3.7-7.3l4.5,5l0.3-6.8l1.1-4.1
		l1.1-4.1l0.3-1l2.6-1.8l2.2,0.4l3,0.4l2.6,3.2l1.1,1l3,1.8l4.4,1l4.5,0.4l-0.8,2.2l0.8,4.6l1.1,2.8l-1.9,3.2l-0.3,3.6l-8.1,3.6
		l-9.2-10.1l-0.8-15.9l-3,1.4l-2.6,9.6l3.7,11.9l3.3,3.6l1.1,1.4l-3,20.1l8.6,5l2.6-2.8l1.9-1.8l8.9-1.8l3.7-10.5l4.7-7.1l0.4,0.6
		l-3.3,6l-1.5,2.2v6.4l-2.2,2.8l-1.4,1l-2.2-1l-5.2,1.8l-4.8,4.6l-1.1,1h-1.9l-5.2-2.8l-1.5-1.4l-2.6-4.1l-1.9-3.2L384.1,475.6z"/>
	<path class="st0" d="M811.2,755.4l-1.3,0.2l-6.5,1.2l-3.3,1.4l-3.3,1.8l-4.8,1.8l-7,2.8l-1.5-3.6l-1.9-2.2l-1.5-3.2l-1.9-2.8
		l-4.3-7l-1.3-2.1l-1.9-3.2l-1.1-2.2l-0.8-1.8l-3.3-5l-3-4.6l-3.3-5.5l4.8-3.2l3.3-1.8l1.4-1h0.8l1.9-1l2.6,5l1.1,2.2l1.9,3.2
		l0.8,1.8l1.1,1.4l2.2,4.1l4.1,3.6l5.2,4.1l3.3,3.2l1.5,2.2l1.1,1l2.2,2.2l3.7,2.8l3,1.8l2.6,1.8l0.9,0.1L811.2,755.4z"/>
	<path class="st0" d="M634.5,536l4.1,5l-1.9,1.4l-3,1.8l-4.5-2.2l-1.4-0.9l-1.9-1.1l-2.1-1.9l-0.8-0.5l-3.6-3.9l-2.1-1.9l-4.9-5.9
		l-5.8-7l-2.2-3.6l-2.6-2.2l-2.6-2.2l-1.6-1.3l1.6-1.9l2.6-2.2l2.2-2.2l2.2-1.8l3.7,3.6l4.1,4.1l2.6,3.2l1.9,3.2l2.6,2.2l0.8,1.4
		l1.4,1.8l2.2,3.2l1.1,1.4l0.8,1l3.3,4.1L634.5,536z"/>
	<path class="st0" d="M707.9,505.7l2.2,4.6l31.1,63.8l-6.6,7l-6.1-4.2l-2.3-1.6l-1-0.6l-4.8-2.8l-3.3-5l-3.3-2.8l-4.5-4.1l-3.7-3.2
		l-5.2-5.5l1.9-3.2l1.5-5.5l-2.6-6.4l-1.1-1.8l-1.1-1l-4.1-5l-0.3-1l-0.8-1.4l0.8-6.8l-0.3-4.6l-0.8-1.8l-3.7-6.4l-10.8-11.9
		l-2.6-2.8l-2.2-2.2h1.5l6.7,3.2l3,4.6l0.8,1.8l4.1,0.6l4.4,0.7l1.6,1.4l7.7,6.4L707.9,505.7z"/>
	<path class="st0" d="M645.6,459.3l-3.3-1.8l-3,1.4l1.5,2.8l4.8,7.8l-5.2,1l-2.4,2.9l-0.2,0.3l-0.3,0.3l-0.8,1l-0.7,0.9l-0.7,0.7
		l-5.6,6.7l-3.7,2.2l-1.4-1.8l-2.6,2.8l-7.5-8.2l-2.6,2.2l-11.1-7.3l-3.7-2.2l-3.3-1.8l0.8-1.4l-9.2-6.4l2.2-2.8l2.2-2.8l1.9-1.8
		l1.9-1l3.3-2.8l7.8-6l9.2-8.7l8.9,1h1.9l1.4-1l1.1-1l9.7,9.6l1.9,2.8l12.9,15.1L645.6,459.3z"/>
	<path class="st0" d="M642.2,655.9l1.5,1l-3.4,2.9l-4.5,3.7l-1.4,1.2l-1.9,1.4l-3.7,2.8l-3.3,3.2l-8.1,8.7l-1.1,1.4L598.6,663l0.8-1
		l-5.7-6l19.5-17l12.2,7.1l1.1,1l3,1.8l3.3,1.8l1.9,1.2l1.1,0.6l3.3,1.8l1.1,0.4L642.2,655.9z"/>
	<path class="st0" d="M367.8,345.7l-0.4,3.1l-0.7,4.1l-0.8,5.1l-0.4,1.5l-0.5,1.9l-1.3,5l-0.7,2.5l-1.9-0.4l-1.9-0.5l-3.3-1
		l-3.1-0.9l-9.7-2.2l-3.7-1.4l-0.8-0.2l-12.1-3.6l-0.3-1.2l-0.2-0.9l1.9,0.4l-0.8-2.2l-1.1-4.1v-1.4l0.8-3.2l0.8-3.6l1.5-4.1
		l1.5-4.1l1.1-3.6l0.8-2.8l1.1-3.6l0.8-2.8l1.1-3.2l1.1-2.2l2.6-0.4l6.3-1.8l8.1-1.4l6.7-1.4l1.9-0.4h1.1l3.3,4.1l2.2,3.2l3,4.1
		l-0.8,2.8l-0.3,3.6l-0.4,2.7l-0.5,3.6l-0.5,3.2l-0.8,4.2L367.8,345.7z"/>
	<path class="st0" d="M517,482.6l-3.3,2.2l-3.3,3.2l-0.8,3.2l-1.1,1.8l-1.9,1l-10,4.6l-3.3,1.4l-1.1,0.4l-3.7,1.8h-1.1l-3.3,1.8
		l-5.2-5.5l2.6-2.8l1.9-2.2l2.2-3.6l1.9-2.8l0.8-1l1.9-2.2l0.8-1l3.3-3.2l-3.7-3.6l-2.2-1.4l3-2.8l-3.3-2.2l0.3-2.2l3-0.4l2.6-2.2
		l1.9-1.8l7.8,7.8l7.5,7.7l1.4,1l6.3,1.8L517,482.6z"/>
	<path class="st0" d="M662.5,584.1l-2.6,2.8l-1.5,1l-1.1,1l-2.6,2.2l-3,2.2l-3.7,3.2l-2.6,1.8l-1.9,2.2l-1.9,1.4l-1.5,1.4l-1.1,1
		l-1.1,1.4l-1.4,1l-2.2,1.8l-4.1-3.6l-4.5-5l-1.5-2.2l-3-3.2l-1.1-1L619,592l-1.9-2.2l-2.2-2.2l3.7-3.2l2.2-1.8l-3.7-5l-3-2.8
		l-2.2-2.2l-2.2-2.2l-4.5-5.5l-2.2-1.4l3.3-1.8l3.3-2.2l2.6-1.8l3.7-2.2l2.6-1.4l2.6-1.8l3.3-1.8l4.5-2.8l1.9-1l1.5-1l1.1-1l9.7,5
		l2.7,1l2.9,0.9l8.6,2.2l2.6,0.7l4.1,1.1l-1.9,1.4l0.8,2.2l0.8,2.8l3,9.6l0.3,7.3L662.5,584.1z"/>
	<path class="st0" d="M287.9,404.3l0.3-2.8l2.2-4.1l4.1-6.4l1.9-3.2l2.6-4.1l3.3-3.6l1.5-2.2l3,1l4.5,1l4.5,1l3,1.4l4.5,1l3.7,1.4
		l4.1,1h2.7l0.8,2.5l1,4.4l0.5,2.7l0.5,1.9l0.8,3.7l0.5,2.4l0.3,1.2l0.7,2.2l0.3,1.4l0.4,1.9l0.7,3.1l0.8,1l1.4,4.1l1.1,5l-2.6-1
		l-4.8-1.4l-4.8-2.2l-3.3-2.2l-1.4-0.4l-4.5-1.4l-3.7-0.4l-3.7-1.4l-4.1-1l-4.1-1.4l-3.7-1l-3.7-1.4l-3.7-1l-3.3-1L287.9,404.3z"/>
	<path class="st0" d="M596.7,629.2l1.9,1l2.6,1.8l-11.1,8.7l-3,2.2l-3,2.8l-0.9,1l-2.6-1.8l-2.2-2.8l-2.2-2.2l-2.2-2.2l-3.3-3.2
		l-3.3-3.6l-1.5-1.4l-2.6-2.8l-2.6-2.8l-3-3.2l-2.2-2.8l9.4-8.2l3,2.2l3.7,1.8l4.5,2.8l1.4,1l0.8,0.4l1.4,1l1.9,1.4l1.9,1l1.1,1
		l2.2,1.4l3.3,1.8l3.3,1.8L596.7,629.2z"/>
	<path class="st0" d="M430.7,487.6l-3.3,3.2l-3.3,3.2l-3.3,2.8l-3.7,3.2l-3,2.8l-3.7,3.2l-3.3,3.2l-3-3.6l-6.3-6.4l-1-1.3l-0.4-0.5
		l0.3-6.8l-2.2-1.4h2.6h2.6l-1.9-1.4l0.3-0.4l1.1-1l4.8-4.6l5.2-1.8l2.2,1l1.4-1l2.2-2.8l1.9,1l6.7,3.6l4.1,2.2L430.7,487.6z"/>
	<path class="st0" d="M592.8,289.7l30,11.2l-62.7,34.8l-5.2-3.2l4.7-14.4L557,309l0.2-5.7l0.4-6.2l1.1-6.8l3.6-15.2l20.3-36.4
		l4.1,5.7l2.1,0.4l6.5,44.1L592.8,289.7z"/>
	<path class="st0" d="M715.5,572.6l-4.1,1.4l-5.9,1l-5.9,1l-4.5,0.7l-3.3,0.5l-5.2,6.8l-2.6,2.8l-2.6,2.8l-3.3,1.8l-3.3,1.8
		l-4.1,0.4l-2.2-2.2l-1.9-2.2l-2.6-2.8l-1.5-2.2l4.5-5.5l-0.3-7.3l-3-9.6l-0.8-2.8l-0.8-2.2l1.9-1.4l8,0.7l8.8,0.6l4-0.1l5.3,0.1
		h3.3l4,1l3.2,1.4l6.7,3.2l3.7,3.5l5.2,3.3l4.5,2.8l4.8,2.8l-4.8-1L715.5,572.6z"/>
	<path class="st0" d="M749.3,592.8l-5.2,4.6l-0.8,1l-1.1,1.8l-4.5,1.8l-3.3-1.4h-2.6l-0.8,1l3.3,7.3l-0.8,1l-2.6,5.5l-0.8,2.2
		l-3.7,4.1l-4.1,3.6l-4.1-2.8l-8.9-4.6l-3.7-2.8l-5.2-6.4l-2.6-2.2l-3-2.2l-1.5-1.8l-3.3-2.8l-2.2-1.8l-3.7-2.2l-3.3-2.2l-3-1.8
		l3.3-1.8l2.6-2.8l2.6-2.8l5.2-6.8l3.3-0.5l4.5-0.7l5.6-0.9l6.3-1l4.1-1.4l4.8,1l4.8,1l1,0.6l2.3,1.6l7.9,5.3l3.5,2.4l3.5,2.4
		l0.7,0.4l1.5,1l5.6,4.1L749.3,592.8z"/>
	<path class="st0" d="M593,366l-10,4.9l-4.8-8.2l-6.5-9.2l8.7-6.2L593,366z"/>
	<path class="st0" d="M403.7,360.8l-0.8,1.8l-3.3,6.8l-5.2,9.1l-1.9-0.6l-3.7-1.2l-3.6-1.1l-6.8-2.1l-2.4-0.9l-0.3-0.1l-2.6-0.7
		l-5.6-1.4l-2.1-0.6l-0.9-0.4l-1-0.3l-0.7-0.2l0.7-2.5l1.3-5l0.5-1.9l0.4-1.5l0.8-5.1l0.7-4.1l0.4-3.1h0.8l1.1,0.4l8.6,1.4l4.8,1.4
		l4.1,0.4l4.8,1.4h3.3l3.3,1l4.4,1.4l3.7,1.8L403.7,360.8z"/>
	<path class="st0" d="M481.9,564.7l1.1-1.7l0.3-0.4l3.7,2.8l1.4,1.1l2.3,2.1l1.4,1l3.3,2.8l11.5,11l4,3.2l3,1.8l3,2.8l3.3,3.2
		l-0.3,1l-0.3,1.8l-0.8,1.4l-2.2,6.8l-0.4,1.2l-0.7-0.3l-12.5-5.3l-3.5-1.1l-1.4-0.4l-1.2-0.4l-1.4-1l-2.5-1.7l-3.4-2.9l-3.2-2.6
		l-1.6-1.5l-0.9-1.1l-1.2-1.6l-0.8-1.9l-3.1-9.8l-0.3-5.2l1.5-2.2L481.9,564.7z M519.8,596.8l-0.8,1.4l-2.2,6.8l-0.4,1.3l0.3-1.3
		l2.2-6.8L519.8,596.8l0.2-1.8l0.3-1l-3.3-3.2l-3-2.8l-3-1.8l-4.1-3.1l4.2,3.1l3,1.8l3,2.8l3.3,3.2l-0.3,1L519.8,596.8z"/>
	<path class="st0" d="M746.5,768.3l1.1,1.4l-3.3,1.8l-19.3,11l5.6,11.4v3.2l-5.2-5l-2.2-2.8l-3-2.8l-2.2-1.8l-1.9-2.2l-3.3-2.2
		l-3.3-1.8l-2-1.6l-2.4-2l-0.7-0.7l-0.9-1.1l-4.5-5l-1.4-2l-3-2.1l1.1-1.4l3.7-3.6l2.2-2.2l3.3-3.2l1.5-1l3-1.8l3.3-1.8l3.3-1.8
		l3.7-2.2l2.6-1.8l6.7-3.2l1.9,3.2l0.9,1.6l1.3,2.6l0.8,1.4l1.1,1.4l1.9,2.8l0.9,1.3l1,1.4l1.3,2.2l0.5,1l1,1.7l1.6,2.9l1.5,3.2
		L746.5,768.3z"/>
	<path class="st0" d="M375.7,416.7l-1.5,3.2l-2.6,5.5l-1.9,2.8l-3.7-0.4l-4.1-1.4l-3.1-0.4l-4-0.5l-7-1.4l-2.6-0.4l4.1-5.9l5.2-7.3
		l1.1-2.2l0.8-4.1l0.8,0.4l0.8,0.4l7.4,2.2l14,2.8l-1.9,3.2L375.7,416.7z"/>
	<path class="st0" d="M654.1,815.4l-0.4,0.2l-3.8,3.3l-1.3-1.7l-0.7-0.9l-1.9,0.9l-12.3,5.5l-1.5-3.2l-2.7,1.2l1.5,4.6l2.3,7
		l1.1,1.3l6,6.7l0.7,0.6l3.7,3.2l14.5,15.1l-2.6,2.2l-11.9,4.1l-2.3-4.9l-4.3,1.5l3.2,6.6L630,871l-6.7,8.2l-40.5,12.3l-5.2,7.8
		l2.6,33.8L569.5,945l-106.9-94.6l-12.9-2.8l-21.2-19.2l-0.5-0.7l-0.5-1.2l0.8-2.7l2.2-2.8l0.7-0.6l0.4-0.3l0.4-0.3l0.4-0.2l0.4-0.2
		l0.4-0.2l0.4-0.2h0.5l13.7,3.2l34.5,30.2l3,1.8l27.7-35l0.9-1.2l1.2-1.5l6.5,1.4l-1.2-17.4l1.8-2.9l1.4-1.8l0.4-1.4l0.3-0.9
		l1.5-58.7v-0.6l-1.2-0.2l-4-0.6l-0.4-0.1l1.1-8.3h3.7l-0.3,6l0.3-0.1l12.6-2.2l27.4,28.4l4.1,9.1l12.5,31.9l2.5,1.6l0.5-1.4l4,1.9
		l-13.9-34.5l0.8-4.5l0.3-3.1l-1.4-2.8l-4.3-3.7l-17-34.9l1.1-0.2l2.2,1.3l4.9,4l6.1,4.4l4.3,3.9l3.8,3.9l2.2,5.9l-0.2,4.3l2.7,2.1
		l0.7,0.5l0.8,1.2l2.2,3.2l4.2-3.3l-20.7-32.3l0.4-0.7l0.8-1.2l0.8-1.9l1.2-1.7l8.6-6.4l11.6-4.1l-7.6,1.2l-4.8,1.9l-2.7,2.2
		l-4.6,2.2l-0.4-2.5l-3.6-0.4l-3.5-21.9l-2.4-5.8l-4.5-7.2l6.3-7.3l2.3-0.3l5.6,7.8l-1.1,1l-3,8.7l5.2-6.4l0.3-0.4l1.9,2.2l5.6,7.3
		l3.4,4.6l5,7.1l3.6,5.6l1.4,2.2l20.3,28.5l14,19.2l3.6,5.6l1.8,2.4l11.7,16.4l-7.7,11.4l0.8,16l9.5,5l9.7,5L654.1,815.4z"/>
	<path class="st0" d="M552.6,663.4l-7.2,3l-9.2,5.5l-4.9-18.5l-2.5-9.4l2.4-2.5l6-6.4l2.4-2.5l3.1-3l0.8-0.9l1.2-0.9l2.2,4.6
		l5.4,8.7l2.4,4l7.1,12.3l0.4,0.4l1.4,2l-2.6-0.9l-7.8,4.1L552.6,663.4z"/>
	<path class="st0" d="M639.6,434.1l30.2-53l1.3,6.4l16.7,5.5l16.7,15.1l7,8.7l1.5,11.9l0.8,5.9l-4.1,11.9l-3.3,4.6l-6.7,13.7l-0.8,1
		l-1.5-6.4l-3-7.8l-4.1-6.8l-10.4-5.9l-6.7,0.4h-14.8l-10.8-1l-3-1.8L639.6,434.1z"/>
	<path class="st0" d="M454.9,180.8l41.7,10l-2.1,1.9l-7.8,3.2l-2.2,0.4l-1.5,0.7l-2.4,1.2l-13.1,6.3l-2.7,0.9l-1.4,0.4l-4.1-1.8
		l-3,1v-1.8l-0.8-7.8l-0.1-2.2l-0.1-2.4l-0.2-4.7L454.9,180.8z"/>
	<path class="st0" d="M556,169.4l-2.6,2.2l-11.9-10.1l-5.9,1.4l-5.2-5.5l-10,9.5l-2.2,2.1l-7.1-5l-2.1,2.6l-3.2-1.6l-6.4,1.1l-6,5.8
		l-3.8,5.9l-21.3-10.2l-7.5-0.1l-7-2.4v-0.3v-1.5l-0.3-10l-0.3-3.2l-0.2-2.4l-0.9-10.5l-0.3-5.5l-1.1-11.9l-0.3-5.5v-2.2l-0.3-4.6
		l-0.3-4.1l-0.3-6.8V95l1.9,1.8l5.2,5l7.8,6l2.2-1l5.6-3.6l4.4-1.8l7,2.2l4.1,1.4l4.8,1.4l12.6,4.1l19.2,9.6l7,4.1l9.2,13.7
		l14.8,16.5l4.1,13.3L556,169.4z"/>
	<path class="st0" d="M422.6,324.3l0.8-1.8l2.6-4.6l1.9-3.2l0.8-1.8l0.8-1.8h5.6l5.6-1.8l5.6-1.4l2.3-1.2l8-3.9l5.9-1.8l11.1-5.5h3
		h2.6l6.3,4.9l3,2.4l4.4,4.6l4.8,5l11.9,8.2l4.5-2.2l2.1,0.9l-2.7,8.8l2.3,3.1h-0.3l-15.6,6l-7.6,1.7l-4.6,1.1l-1.9,0.4l-3.3,1.4
		l-7.5,1l-15.1,2.8l-1.1-1l-1.5-1.8l-6.7-7.3l-4.4-3.2l-3.3-2.2l-1.9,1.8l-2.1,2l-4.6,4.4l-3.3-2.8l1.4-3.2l-2.2-4.6L422.6,324.3z"
		/>
	<path class="st0" d="M481.8,564.7l-1.8,2.4l-1.5,2.2l0.1,5.3l-3.8,1.1l-4.1,0.4l-6.7,0.7l-1.4,0.2l-5.9,1v-6.8l2.6-3.2l-3-5l2.6-1
		l-0.3-4.6l-3.3,1.4L444.3,546l-0.3-0.4l-1.1-1.8h-1.5l-2.2,1l-18.9-7.8l-6.9,3.1l-2-4.1l-1.4-3.2l3.3-3.6l1-1l-1.1-6.4l4.8,2.2
		l4.5,1.4l5.2,2.8l3.3,2.8l2.2,1l6.3,2.8l5.9,1.8l1.9-1.4l1.1-1.8l0.8-1.8l3.3,1.8l3.7,2.2l4.1,3.2l4.1,2.8l3.7,3.2l3.7,2.8l4.1,3.2
		l3.3,2.8l4.1,2.2l3.7,2.8l-3.3,4.1L483,563L481.8,564.7z"/>
	<path class="st0" d="M276.4,444.5l1.5-6.4l1.1-3.2l1.1-4.1l0.1-0.3l1.8-4.2l0.3-2.2l1.1-1l0.4-4.6l4.1,1.4l3.7,1l3,0.4l7.5,3.2
		l4.4,1.4l4.1,1l3.3,1.4l4.1,1.4l3.7,0.4v0.4l-0.3,2.2l2.9-0.5l1.1,0.4l1,0.4l0.7,0.3l0.8,0.3l0.8,0.4l4.8,2.2l1.4,0.4l1.3,0.5
		l-1.3,3.1l-4.5,8.7l-1.1,2.2l-1.9,3.2l-1.5,3.6l-1.9-1l-2.2-1l-3.3-1.8l-0.8,0.7l-2.1-0.1l-0.9-0.1l-3.7-1l-4.1-1.4l-3.3-1l-4.1-1
		l-4.5-1.4l-3.6-0.9l-4.5-1l-2.6-1.4l-2.3-0.5L276.4,444.5z"/>
	<path class="st0" d="M514.4,567.6l-5.9,7.3l-3-2.2l-2.6-1.8l-4.1-2.8l-4.8-3.6l-2.2-1.4l-1.5-1.8l-3.7-2.8l3-3.2l3.3-3.6l4.1,0.4
		l3,0.4l4.8,0.4h1.5h1.9l4.1,0.4h3.7l4.1,0.4l4.5,0.4l-7.5,10.1L514.4,567.6z"/>
	<path class="st0" d="M420.5,403.1l-11.1,7.8l-10.4,8.2l-2.6,3.2l-5.2,2.2l-2.2-1.8l-5.2-9.1l-0.3-1.4l-4.1-2.2l1.9-3.6l2.2-4.6
		l3.3-6l4.1-8.2v-1l1.5-1.4l1.5-4.1l0.8-2.2l4.1,1.8l4.1-2.8l1.4-1.4l3-1.8l2.6,2.2l0.8,1.4l1.9,1.8l2.2,2.8l0.3,4.6l0.3,1.4
		l-0.3,1.8l0.8,0.4l1.2,1.1l1,0.7l4.8,8.2L420.5,403.1z"/>
	<path class="st0" d="M591.4,453.7l-1.9,1.8l-2.2,2.8l-2.2,2.8l-2.2,2.8l-2.2,3.2l-2.6-2.2l-4.5,2.8l-2.2-0.4l-3-0.4l-4.1-0.4
		l-2.5-0.3l-1.9-1.7l0.9-2.8l1.6-3l0.5-1.9l-0.4-2.5l-0.9-2.2l-0.7-1.6l-0.1-1.4l0.1-4.3l0.8-6.3l1-3.4l0.5-0.9l2.7-4.2l2.2-2.8
		l-1.5-1.4l-3.3-1.8l3.3-3.6l5.6-15.1l8.9-8.2l7-9.1l0.8-1.4l0.3-1l0.8-1l0.8-1.4l2.6,4.1l1.4,1.8l1.9,2.2l6,9.2l16.2,25l3.1,4
		l2.2,2.9l2.6,2.2l-1.1,1l-1.4,1h-1.9l-8.9-1l-9.2,8.7l-7.8,6l-3.3,2.8L591.4,453.7z"/>
	<path class="st0" d="M357.4,497.5l-1.9,3.2l-1.5,2.8l-1.9,3.6L351,509l-0.3,1l-3,6l-1.5,1.4l-2.2-4.6l-1.9,1.8l-2.2-1.4l-1.1-1.4
		l-3.7-1.8l-4.5-3l-8.2-4.7l-2,0.1l-3-1.1l0.5-1.3l-3.5-1.6l-3.3,2.9l1.3-2.7l3.3-6.4l-4.4-2.2l-3.7-2.2l-2.2-0.4l0.8-2.8l1.1-4.1
		l0.1-0.4l0.7-2.4l0.3-3.2l0.8-1.4l0.3-1l4.8,2.2l4.1,2.2l1.1-3.1l0.5-0.6l0.5-0.3l0.8-0.5l0.7-0.3l-0.1-0.6l-0.1-2l0.3-2.4l0.5-2.5
		l2.7-5.8l1.5-3.6l1.9-3.2l1.1-2.2l1.9,1l3.7,1.4l5.2,2.2l-1.5,3.6l-1.5,2.8l-1.9,3.2l-1.5,3.2l4.1,1.8l4.4,2.2l4.5,2.2l-1.5,2.8
		l-1.5,3.6l-1.9,3.2l-1.5,3.2l-0.8,1.4l4.8,1.8l4.4,2.2l1.9,1l2.1,1.1l4.9,2.1l-0.8,1.4L357.4,497.5z"/>
	<path class="st0" d="M453.8,165.2l7,2.4l7.5,0.1l21.3,10.2l3.8-5.9l6-5.8l6.4-1.1l3.2,1.6l2.1-2.6l7.1,5l-0.5,0.5l-11.6,11.1
		l-0.3,0.4l-3.7,4.1l-1.5,1.7l-1,1.1l-2.7,2.6l-41.7-10l0.3-3.6l-1.1-3.6l0.3-1.8l-0.8-3.6L453.8,165.2z"/>
	<path class="st0" d="M561.8,525.1l-0.8,1.4l-1.5,1.8l-0.3,1l-1.9,2.8l-1.5,3.2l-1.9,2.8l-1.5,1.8l-0.8,1.4l-1.5,2.8l-1.1,1.8
		l-1.9,2.8l-3.3,5.5l-1.9,2.8l-1.9,2.8l-1.5-0.4l-3.7-1.8l1.4-5l1.1-2.2l0.3-1.4l0.3-2.8l1.1-2.2v-1l1.1-2.8l0.3-1.4l0.8-2.2l0.3-1
		l0.8-3.2l1.1-2.2l0.8-3.2l1.1-2.8l1.1-3.2l0.8-2.8l0.8-2.8l0.3-1l7,2.2l8.6,4.6l-2.2,3.2L561.8,525.1z"/>
	<path class="st0" d="M565.9,532.4l-2.6,2.8l-2.6-1.4l-1.5,2.8l1.1,0.4l-0.3,2.2l1.5,1.8l3.3,3.2l2.6,3.6l-1.9,1.4l-1.4,1l-0.8,1
		l-2.2,1l-4.5,3.6l-2.2,1.8l-3.3,3.2l-1.5,1.8l-1.4,1.8l-2.6-2.2l-1.5-1l-1.4-0.4l-2.2-1.4l1.9-2.8l1.9-2.8l3.3-5.5l1.9-2.8l1.1-1.8
		l1.5-2.8l0.8-1.4l1.5-1.8l1.9-2.8l1.5-3.2l1.9-2.8l0.3-1l1.5-1.8l0.8-1.4l0.3-1l2.2-3.2l11.1,6.8l-6.3,2.8L565.9,532.4z"/>
	<path class="st0" d="M409.6,519.1l1.4,1.4l1.9,1.4l1,6.4l-13.7-5l-4.8-2.2l-5.2-2.2l-1.8-1.3l-1.9-1.4l-0.8-1.1l-2.1-2.6l-4.1-5
		l-4.5-2.8l0.8-1l1.5-3.6l1.9-3.2l1.5-3.6l1.5-2.8l8.6,4.2l5.6,2.7l0.3,0.6l1,1.3l6.3,6.4l3,3.6l-3.7,3.2L409.6,519.1z"/>
	<path class="st0" d="M458.4,344.4l-3,3.6l-2.6,3.2l-1.1,1.4l-0.9,0.7l-1.8,1.5l-1.4,1l-6.4,4.1l-2.6,5.5l-1.1,2.2l-4.5,5.5l2.2,1.4
		l-1.5,2.2l3.7,2.9l-4.2,1.2l-5.9,1.8l-8.1,4.1l-2.6,2.8l-1.1,0.4l-1.1,0.4l0.3-1.8l-0.3-1.4l-0.3-4.6l-2.2-2.8l-1.9-1.8l-0.8-1.4
		l-2.4-2.1l-2.9,1.8l-1.4,1.4l-4.1,2.8l-4.1-1.8l5.2-9.1l3.2-7l0.8-1.8l3-6l2.2-4.1l3.3-6.4l1.1-1.8l2.2-4.6l5.2-9.6v-1l1.9-3.2
		l7.4,3.2l2.2,4.6l-1.4,3.2l3.3,2.8l4.6-4.4l2.1-2l1.9-1.8l3.3,2.2l4.4,3.2l6.7,7.3L458.4,344.4z"/>
	<path class="st0" d="M591.2,383.1l27.2,6.2l0.7-16.4l-3.8-17.9l52-26.5l8.4,2.8l-3.5,5.2l-1.1,2.8l-2.2,3.6l-1.9,4.1l-0.3,3.6
		l0.3,6.4l2.2,3.2l2.2,5l-1.9,6l-1.1,3.2l1.3,6.4l-30.2,53h-1.4l-6.7-1.4l-3,1l-1.4,1l-2.6-2.2l-2.2-2.9l-3.1-4l-16.2-25l-6-9.2
		l-1.9-2.2l-1.4-1.8L591.2,383.1z"/>
	<path class="st0" d="M393.8,381.1l-1.5,4.1l-1.4,1.4v1l-4.1,8.2l-3.3,6l-2.2,4.6l-1.9,3.6l-14-2.8L358,405l-0.8-0.4l-0.8-0.4
		l1.3-9.5l0.1-0.3l0.3-2l1.2-6.8l0.2-1.2l0.4-2l0.3-2.1l1.1-4.5l0.1-1l0.8-2.9l0.2-0.6l0.1-0.3l0.3-1.4l0.7,0.2l1,0.3l0.9,0.4
		l2.1,0.6l5.6,1.4l2.6,0.7l0.3,0.1l2.4,0.9l6.8,2.1l3.6,1.1l3.7,1.2l1.9,0.6L393.8,381.1z"/>
	<path class="st0" d="M285.6,412l-1.9,6.4l-0.3,4.6l-1.2,0.9l-0.3,2.2l-1.8,4.2l-0.1,0.3l-1.1,4.1l-1.1,3.2l-1.4,6.4l0.5,5.7
		l0.5,1.1l0.9,1.7l0.8,0.6l-1.4-0.4l-1.2,0.1l1.3,1.4l2.9,5l-2.6-1h-2.2l-3.7-1.4h-0.8h-5.2l-4.1-1.8l-3.7-1l-3.7-1l-4.5-1.4
		l-5.9-1.4l-5.6-1l-5.2-1.4l-3.4-1.1l-2.2-0.7l-2.5-1.3l-1.2-0.5l-8.6-3.2l-5.6-1.4l-6.7,0.9l-11.1-1.4l-16.4-1.8l-11.1-1l-16.7-1.4
		l-17-1h-3.3h-3l1.9-1.8l38.5,1.4l2.2-4.1l6.7-13.3l4.1-3.7l20.8-19.5l4.1,0.4l13.4,0.4l0.8-9.1l-14.8-5l-11.9,1.8l-12.9,12.7v-12.3
		l-33.4,5.5l-2.7,0.4l-1-5v-1.4L172,371l12.6-16.9l11.1-6.8l14,6.8l4.8,2.8l34.8-4.1v-10.9l16.2,5.5l-8.9-14.7l13.7,5.2l1.4,1.6
		l0.8,1l1.8,0.4l4,1l0.7,1.1l1,1.4l-0.1,4l-0.2,5.5v1.4l1.4,0.9l-0.7,1.6l-0.3,1.2l-0.4-0.2v0.9v1l-0.5,3.5l-2,6.7l-1.3,4.4
		l-1.3,1.4l-2.2,3l-0.7,1.3l-1.4,1.6l-1.8,1.9l-5.3,5.5l2.1,1.2l0.4,0.2l2.3,1.5l1,0.6l0.9,0.6l2.1,1.6l4.8,2.8l4.4,2.8l4.8,2.8
		l1.4,0.4L285.6,412z"/>
	<path class="st0" d="M400.3,523.2l13.7,5l-1,1l-3.3,3.6l3.5,7.3l-12.7,5.6l-10.8-4.6l10-10.5l-2.2-2.2l-4.5,2.4l-7.7,4.1l-5.6,1
		l4.1-4.1l-4.8,1l0.8-3.6l-3.3,1l4.1-6l3.3-1.4l-4.4-1.4l-15.3,6.8l1.1-2.2l-10-1.4l-8.9-6.8l1.5-1.4l3-6l0.3-1l1.1-1.8l1.9-3.6
		l1.5-2.8l1.9-3.2l0.3-0.9l0.8-1.4l4.1,2.5l4.4,2.1l4.1,2.2l4.1,2.2l4.5,2.8l4.1,5l2.1,2.6l0.9,1.1l1.9,1.5l1.8,1.3l5.2,2.2
		L400.3,523.2z"/>
	<path class="st0" d="M283.7,418.5l1.9-6.4l2.2-7.8l4.1,1.4l3.3,1l3.7,1l3.7,1.4l3.7,1l4.1,1.4l4.1,1l3.7,1.4l3.7,0.4l4.5,1.4
		l1.4,0.4l3.3,2.2l4.8,2.2l4.8,1.4l2.6,1l1.9,1l-1.3,1.9l-0.9,1.7l-1.5,1.8l-1.5,1.4l-0.8,1.4l-3.5,5.6l-1.3-0.5l-1.4-0.4l-4.8-2.2
		l-0.8-0.4l-0.8-0.3l-0.7-0.3l-1-0.4l-1.1-0.4l-2.9,0.5l0.3-2.2v-0.4l-3.7-0.4l-4.1-1.4l-3.3-1.4l-4.1-1l-4.5-1.4l-7.4-3.2l-3-0.4
		l-3.7-1L283.7,418.5z"/>
	<path class="st0" d="M499.3,543.9l-3.3,3.6l-3,4.1l-3.3,3.6l-3,3.2l-3.7-2.8l-4.1-2.2l-3.3-2.8l-4.1-3.2l-3.7-2.8l-3.7-3.2
		l-4.1-2.8l-4.1-3.2l-3.7-2.2l-3.3-1.8l2.2-2.2l1.9-1.8l1.1-1.4h1.1l1.4-1.8l0.8-1l2.6-2.2l1.1-1l3-2.2l0.3-1l1.5-1l2.2-1.8l2.6-2.2
		l2.6,1.4l4.1,3.2l4.1,2.8l3.7,2.8l3.7,3.2l4.1,2.2l4.1,3.2l5.2,4.1l-1.1,4.6L499.3,543.9z"/>
	<path class="st0" d="M720.4,571.7l-4.5-2.8l-5.2-3.3l-3.7-3.5l-6.7-3.2l-3.2-1.4l-4-1h-3.3l-5.3-0.1l-4,0.1l-8.8-0.6l-2.7-0.7
		l5.9-0.4l-0.8-1.4l-1.9-11.4l-1.1-7.3l-0.8-4.1l-3.6-1.9l-4.5-2.8l-1.1,1.4l-4.5,2.2l-1.5,1l-1.1-1.8l-5.2-5.5l-5.6-5.9l-4.1-3.6
		l4.8-3.6l-2.2-2.2l-2.2-3.2l-2.2-3.2l-2.2-2.8l-2.2-3.2l-2.2-2.8l-4.3,2.9l-3.2,2.1l-1.9,1.8l-1.9,1l-1.5-1l-1.4-1.8l1.4-3.2
		l1.1-2.8l2.2-5.5l2.6-2.8l1.4,1.8l3.7-2.2l5.6-6.7l0.7-0.7l0.7-0.9l0.8-1l0.3-0.3l0.2-0.3l2.4-2.9l5.2-1l-4.8-7.8l-1.5-2.8l3-1.4
		l3.3,1.8l5.9,2.8l9.8,12.2l1.1,1.4l6.9,8.8l4.8,5l2.2,2.2l2.6,2.8l10.6,12l3.7,6.4l0.8,1.8l0.3,4.6l-0.8,6.8l0.8,1.4l0.3,1l4.1,5
		l1.1,1l1.1,1.8l2.6,6.4l-1.5,5.5l-1.9,3.2l5.2,5.5l3.7,3.2l4.5,4.1l3.3,2.8L720.4,571.7z"/>
	<path class="st0" d="M536.7,518.8l-1.5,4.1l-4.8,6l-2.6,3.6l2.6,2.2l-5.6,7.3l3,1.8l-2.2,2.8l-2.6,3.6l-3,3.6l-4.1-0.4h-3.7
		l-4.1-0.4h-1.9h-1.5l-4.8-0.4l-3-0.4l-4.1-0.4l3-4.1l3.3-3.6l1.9-4.6l1.1-4.6l2.6-2.8v-1l3.3-3.2l3.3-2.2l2.2-2.8l0.8-1l2.2-2.8
		l3.3-6l1.1-5l1.1-4.1l1.4-4.6l2.6-7.3l1.4-3.6l1.4-5l4.1,1.3l7.8,2l-0.4,1.3l-0.1,0.4l-0.3,2.4l2.2,2.8l-4.1,12.3l-1.2-0.3
		l-2.1-0.5l-1.5,4.1l-0.8,1l3.3,1l2.3,0.9L536.7,518.8z"/>
	<path class="st0" d="M457.9,252.1l-1.9,0.4l2.6,5.5l-1.3,2.5l-0.5,1.2l-0.3,1l-0.3,1.4l-0.7,1.5l-1,1.6l-0.3,0.6l-0.2,0.3l-3,4.8
		l-2.5,4.6l-0.9,1.4l5.5,2.9l-2,3l-1.6,3.3l-3.7,1.8l-5.2,1.4l1.8,2.8l-4.5,10.1l-3,6.8h-5.5l-0.7,1.7l-0.8,1.8l-0.8-3.2v-4.1
		l-0.8-10.1v-3.6l-0.3-3.6l-0.3-3v-3.2l-0.1-3v-0.9l-0.2-1.4l-8.1,2.8l-5.9,2.2l-4.5,1.8l-4.1,1l1.4-1.8l0.8-1.4l1.1-1.4l3.3-5
		l3.7-5l3.7-6l6.3-10.5l-0.3-4.6v-3.2h5.6l7.8-1.4h3.7l4.8-0.4l4.1-0.4h3h1.5h3.3l7.8-1.4v2.8l-1.9,3.6L457.9,252.1z"/>
	<path class="st0" d="M361.2,429.1v1.4l-0.8,2.2l-0.8,3.2l-0.3,2.8l-0.8,3.2l-0.3,1v2.2l-1.1,3.6l-7-1.8l-0.8,1l-1.1,1.8l-1.9,3.2
		l-1.1,2.8l-4.5-1.8l-5.2-2.2l-3.7-1.4l-1.9-1l4.5-8.7l1.3-3.1l3.5-5.6l0.8-1.4l1.5-1.4l1.5-1.8l0.9-1.7l1.3-1.9l2.6,0.4l7,1.4
		l4,0.5l3.1,0.4L361.2,429.1z"/>
	<path class="st0" d="M574.8,504.5l-2.6,3.2l-5.9,8.7l-0.3,1.4l-1.4,3.2l-8.6-4.6l2.6-4.1l-4.1-2.2l-3.7-1.4l1.1-4.1l1.1-1.8V501
		l0.8-2.8l1.1-1.8l0.3-2.2l0.3-0.4l0.4-2l2.1,0.6l3,1l7,1.8l11.9,3.6l-1.4,1.4l-1.9,2.2L574.8,504.5z"/>
	<path class="st0" d="M611.5,628.8l1.5-1.4l0.8-1l3-1.8l1.9-2.8l1.9-1.4l0.8-1l3-1.8l0.8-1.8l1.5-0.4l2.6-2.2l2.6-2.2l3-2.8l7.5,1.8
		l3,1l-0.8,4.6l4,4.3l2.6,2.2l2.2,2.8l1.5,1.8l1.1,1l2.2,2.2l1.9,2.2l-10,8.2l-1.5,1.4l-3.7,3.2l-4.8,3.6l-3,2.2l-1.1,1.4l-1.1-0.6
		l-1.9-1.2l-3.3-1.8l-3-1.8l-1.1-1l-7.4-4.3l-1.2-0.6l-3.6-2l-3.7-2.2l-4.1-2.2l4.1-4.1L611.5,628.8z"/>
	<path class="st0" d="M874.8,604.9l18.1,25.7l14.5,32.8l6.4,13.1l-2.2,0.6l-10,6l-5.9,3.6l-7.8,4.6l-5.2,2.8l-2.2,1.8l-4.1,2.2
		l-2.6,1.4l-3,1.8l-3,2.2l-3.7,1.8l-11.5,6.5l-15.9,9l-3.7,2.8l-4.1-5.5l-1.2,0.7l-2.5,1.6l-5.6,4.1l-4.5,2.8l-2.2,1.8l-3.3,2.8
		l0.8,2.8l-1.1,0.4l-3.7-9.1l-3-6.8l-3.4-9.2l-0.5-1.8l-0.1-1.4l0.1-3.7l0.4-2l1.3-4.7l1.1-2.6l1.9-3.9l1-1.3l4.7-6.3l1.4-2.4l1-2
		l0.5-2l0.4-1.6l0.2-1.4v-1.1l-2.5-8l-2.2-4.6l-11.5-19.2l-8.6-17.8l-3-4.1l-4.5-5.9l2.2-1.8l3.3-1.4l3.3,0.4l-3.2-0.5l55.9-50.4
		l18.3,23.9l2.6-1.4l2.6,3.6l-2.2,1.8l7,9.6L874.8,604.9z"/>
	<path class="st0" d="M427.1,311.5l0.8,3.2l-1.9,3.2l-2.6,4.6l-4.1-2.2l-3-1.8l-4.4-1.8l-4.1-1.4l-7-1.4l-4.4-0.4l-3-1.4h-1.9
		l-5.2-1l-7-3.2l-1.4,0.4l-1.1,0.4l-1.9,0.4l1.9-4.6l2.2-3.2l2.1-2.8l2.2-2.2l1.2-0.9l3.7-2.2l3.4-1.8l1.8-1l7-3.2l2.2-1l4.1-1
		l4.5-1.8l5.9-2.2l8.1-2.8l0.2,1.4v0.9l0.1,3v3.2l0.3,3l0.3,3.6v3.6l0.8,10.1V311.5z"/>
	<path class="st0" d="M877.1,786.1l-5.3,1.6l-8.2-3.5l-0.7,0.4l-1.5,1l-7.8,10.5l-3.3,2.2l-2.6,1l-0.3-1.8l1.9-1l-2.6-8.2l-1.3-0.6
		l-0.5-4.5l-1.4,1.1h-1.2h-0.7l-1.4-6.8l-0.1-0.4l-2.2-3.6l-2.6-3.6h1.5h1.9l2.6,2.2l2.9-3.3l3.8-1.9l22.8,8.6l7.8,6L877.1,786.1z"
		/>
	<path class="st0" d="M725.5,499.1l0.4-11l1.5-5.5l7.8,3.2v-6l0.8-1.4l-0.3-2.2l-3,0.4l-1.9-2.8l-1.9-2.8l-0.8-10.9l13.2-4l1.2,0.3
		l0.4,0.1l6.7,2.1l1.1,3.2l-1,0.1l-4.9,0.7l1.9,1.4v0.6v1.7v1.9l-0.1,1.8l1.5,1.5l-0.3,1l1.2,1.2l0.1,0.6l-0.3,1.7l0.1,0.3l2.2,4.2
		l-0.3,4.6l-0.3,2.8l5.6-1l-0.3-3.2l1.9-1.8l3,0.4l6.7,1l5.6,7.3l-2.6,3.2l2.6,2.2l2.6-1.8l3.7,2.2v1.8l20,0.4l1.1,18.3l18.2,0.4
		l2.9,3.3l6.1,7.2l3.7-3.6l4.5,4.1l-7,12.8l13.2,17.2l-7.6,6.4l-7.7-7.3h-9l-10.6-5.7l-9-5.9l-3.2-5.1L759,527.9L725.5,499.1z"/>
	<path class="st0" d="M727,813.7l-0.7-0.1l-1.6,0.3l-0.9,0.7l-0.8,1.1l-0.5,1l-0.8,1.2l-1.6,1l-3.4,0.3l-1.1,0.4l-0.5,0.7l-1.3,1.4
		l-1.2,1.5l-0.3,0.2l-3,2.2l-4.1,0.2l-6.9,0.3l-1.6-4.3l-3.5,0.3l-0.8,0.1l-0.7,0.6l-3.6,3.5h-1h-2.6l-1.5-1l-4.1-5l1.6-3.3l3.3-6.5
		l0.2-0.4l1.1-2.2l1.4-2.8l0.3-0.6l5.3-10.6l1.3-2.6l2.1-4.3l0.7-1.3l0.3-4.5v-0.5l-1.5-3.6l1.6,1.6l1.1,1.3l0.7,0.7l3,2.8l2.6,2.8
		l3.3,3.6l1.5,2.2l3,3.2l2,1.7l0.7,0.5h-2.2l1.5,1.4l1.9,1.8l12.5,11.7l1.2,1.1h-0.8L727,813.7z"/>
	<path class="st0" d="M556.1,617.5l-0.8,0.4l-3.7,3.6l-3.3,2.8l-3.7,3.6l-1.2,0.9l-0.9,0.9l-3.1,3l-2.4,2.5l-6,6.4l-2.4,2.5
		l-19.3-21l-1.8-0.4l-4-1.2l-0.4-0.1l-4.8-3l-0.3-0.2l-12.9-6.8l-6.9-6.4l-5.9-5.5l-2.6-2.2l-12.9-18.7l5.9-1l1.4-0.2l6.7-0.7
		l4.1-0.4l4-1.2l3.1,9.8l0.8,1.9l1.2,1.6l1,1.1l1.4,1.4l3.3,2.8l3.4,2.9l2.5,1.7l1.5,1l1.2,0.4l1.4,0.4l3.5,1.1l12.5,5.3l0.7,0.3
		l17.3,7.4l2.1,1.3l2.2,2.4l2.5,3.2l0.9,1.4l5.2-3.6l4.1-3.6l1.1-1l0.8-0.4l1.1-0.6l1.5-1.2l5.2-4.6l4.8,2.8l-3.3,2.8l-2.2,1.8
		L556.1,617.5z"/>
	<path class="st0" d="M271.6,457.3l-0.9,2.8l-1,3.6l-1.2,6.3l-0.8,3.5l-2.3,0.7l-1.4,0.1l-3.7,0.1l-8.4-0.7l-5.2-1.3l-10.1-3.7
		l-6.5-5.7l-17.8-22.1l3.6,0.9l9.7,3.7l2.6,1.3l5.4,1.7l5.2,1.4l5.7,1l5.8,1.3l4.6,1.4l3.6,0.9l3.7,1l4.2,1.9L271.6,457.3z"/>
	<path class="st0" d="M728.7,797.6l-11.9,1.4l-2.6-1l-0.7-0.5l-2-1.7l-3-3.2l-1.5-2.2l-3.3-3.6l-2.6-2.8l-3-2.8l-0.7-0.7l-0.9-1.1
		l-1.9-1.8l-0.8-1l-1.8-2.2l-2.3-1.9l-0.3-0.4l-1.9-2.2l2.6-2.2l2.2-2.2l1.1-1l0.8-0.4l3,2.1l1.4,2l4.5,5l0.9,1.1l0.7,0.7l2.4,2
		l2,1.6l3.3,1.8l3.3,2.2l1.9,2.2l2.2,1.8l3,2.8l2.2,2.8l5.2,5h-0.8L728.7,797.6z"/>
	<path class="st0" d="M568.5,596.8l-2.2,1.8l-2.6,2.8l-2.6,2.8l-1.9,2.2l-1.9-1l-1.4-1l-3.3-2.2l-3.3-1.8l-3.7-2.2l-3.3-1.8
		l-3.3-1.8l-1.1-1l-2.6-1.4L532,590l-0.8-0.4l-2.6-1.4l-4.8-2.8l0.8-1.8l1.4-3.2l1.9-4.6l0.8-2.2l1.9-4.1l0.8-1.4l0.8-2.8l1.4-3.6
		l1.9-4.6l3.7,1.8l1.5,0.4l2.2,1.4l1.4,0.4l1.5,1l2.6,2.2l0.3,3.2l1.1,3.6l3,2.8l1.1,1.4l0.9,1l2.5,2.8l2.6,2.8l2.6,3.2l1.9,2.2
		l0.8,0.4l2.6,3.2l3,2.8l0.3,1L568.5,596.8z"/>
	<path class="st0" d="M420.8,327.4v1l-5.2,9.6l-2.2,4.6l-1.1,1.8l-3.3,6.4l-2.2,4.1l-3.7-1.8l-4.4-1.4l-3.3-1h-3.3l-4.8-1.4
		l-4.1-0.4l-4.8-1.4l-8.6-1.4l-1.1-0.4H368l0.7-3.6l0.8-4.2l0.5-3.2l0.5-3.6l0.4-2.7l0.3-3.6l0.8-2.8l3-12.8l1.9-0.4l1.1-0.4
		l1.4-0.4l7,3.2l5.2,1h1.9l3,1.4l4.4,0.4l7,1.4l4.1,1.4l4.4,1.8l3,1.8l4.1,2.2l-0.8,1.8L420.8,327.4z"/>
	<path class="st0" d="M798.9,717.9l-3.3,1.4l-7,1.8l-1.9,0.7l-1.4,0.6l-4.1,1l-4.1,1.4l-1.9-3.2l-1.1-2.2l-2.6-5l-2.2-4.1l-1.9-3.2
		l-2.6-7.3l-3.3-12.8l-1.1-3.2l-1.1-3.2l-5.2-18.3l-1.5-2.2l-2.6-2.8l-2.2-2.8l3.3-1.8l4.5,3.6l8.9,1.4l2.1,0.5l3.5,0.9l6.7,5.9
		l5.2,3.6l3,5.5l0.8,4.1l3.8,5.8l3.2,4.7l1.9,1.8l1.1,1.4l1.9,3.2l2.6,1.4l-1.3,4.7l-0.4,2l-0.1,3.7l0.1,1.4l0.5,1.8l2.6,6.8
		L798.9,717.9z"/>
	<path class="st0" d="M524.8,449.2l2.2,5l-3,1.4l-1.1,1l-3,1.8l-7.5,3.6l-0.8,1.4l-4.8,4.1l-1.4,1.8l-2.2,1.4l-7.8-7.8l-7.8-7.3
		l-3.7-2.5l-4.1-2.6L466,443l-1.2-0.6l-3-0.7l-5.7-1.8l-12.1-2l1.1-3.6l1.4-0.4h1.9l2.6,0.4l8.1-2.2l2.2-1l2.2-1l3.7-6l1.2-0.7
		l3-2.2l2.2-2.2l3.6,2.2l4.5,2.2l0.3-4.1l2.2,1.4l2.2,4.6l0.9,3.3l0.8,1.8l1.8,2.7l2.2-1.8l5.6,6.4l1.5-0.4h1.4l4.8-1l1.9,2.2
		l0.8,0.4l-3.7,7.3l-0.3,3.2l9.7-3.2l9.2-6.4l2.2-1.8l6.3,8.2l-1.1,1L524.8,449.2z"/>
	<path class="st0" d="M526.4,492.2l-2.6,7.3l-1.5,4.6l-1.1,4.1l-1.1,5l-3.7-1l-4.1-1.8l-3.3-2.8l-7.8-6.4l-1.1,1l-5.2,0.4l-4.1,1.4
		l-1.1,0.4l-4.8,1L483,504h1.1l3.3-1.8h1.1l3.7-1.8l1.1-0.4l3.3-1.4l10-4.6l1.9-1l1.1-1.8l0.8-3.2l3.3-3.2l3.3-2.2l1.5-1.4l7.2,1.5
		l3.5,0.7l-1.4,5L526.4,492.2z"/>
	<path class="st0" d="M674.4,553.5l0.8,1.4l-5.9,0.4l2.7,0.7l-8-0.7l-4.1-1.1l-2.6-0.7l-8.6-2.2l-2.9-0.9l-2.7-1l-9.7-5l3-1.8
		l1.9-1.4l-4-5.1l-3.7-5.5l-3.3-4.1l-0.8-1l-1.1-1.4l-2.2-3.2l-1.4-1.8l-0.8-1.4l-2.6-2.2l-1.9-3.2l-2.6-3.2l-4.1-4.1l-3.7-3.6
		l2.2-2.2l2.2-2.2l3-2.2l3.3,3.2l1.4,1.8l1.5,1l1.9-1l1.9-1.8l3.2-2.1l4.3-2.9l2.2,2.8l2.2,3.2l2.2,2.8l2.2,3.2l2.2,3.2l2.2,2.2
		l-4.8,3.6l4.1,3.6l5.6,5.9l5.2,5.5l1.1,1.8l1.3-0.9l4.5-2.2l1.1-1.4l4.5,2.8l3.7,1.8l0.8,4.1l1.1,7.3L674.4,553.5z"/>
	<path class="st0" d="M604.5,515.5l2.2,3.6l-1.4,1l-2.6,2.2l-1.9,1l-1.1,1l-1.4,1.4l-1.1,1l-3,1.8l-3,2.2l-4.1,2.8l-4.5,3.2
		l-2.6-2.8l-2.2-3.2l-2.2-2.8l-11.1-6.8l1.4-3.2l0.3-1.4l5.9-8.7l2.6-3.2l1.9-2.2l1.9-2.2l1.4-1.4l3.7,1.4l2.2,1.5l1.6,1.1l4.7,2.9
		l5.5,4.3l1.6,1.3l2.6,2.2L604.5,515.5z"/>
	<path class="st0" d="M546.7,332.1l-6.7,0.4l-4.8,7.8l-1.8,0.9l-4.9,2.4l-1.9-3.2l-3.2-2.7l-1.6-1.4l-3.3-1.8l-3.3-3.2h0.3l-2.3-3.1
		l2.7-8.8l-2.1-0.9l-4.5,2.2l-11.9-8.2l-4.8-5l-4.4-4.6l-3-2.4l-6.3-4.9h-2.6h-3l-11.1,5.5l-5.9,1.8l-8,3.9l-2.3,1.2l-5.6,1.4
		l-5.6,1.8l3-6.8l4.5-10.1l-1.9-2.8l5.2-1.4l3.7-1.8l1.6-3.3l2-3l-5.6-2.8l0.9-1.4l2.5-4.6l3-4.8l0.2-0.3l0.3-0.6l1-1.6l0.7-1.5
		l0.3-1.4l0.3-1l0.5-1.2l1.3-2.5l-2.6-5.5l1.9-0.4l4.4-1.8l1.9-3.6v-2.8h2.2l1.5-0.1l16.7-1.3h1.4l6.7-0.4l1.9,1.8l2.6,3.2l1.1,1.8
		l4.1,6l1.1,1.3l2.2,2.5l0.7,1.2l4.6,8.9l12,15.5l2.1,3.2l3,5.5l1.4,2.2l7,10.1l8.1,8.7l1.3,2.2l7.2,12.8l1.9,3.6h-1.9l-3.7-1
		L546.7,332.1z"/>
	<path class="st0" d="M392.3,430.4l1.1,1l-3-0.4l-2.2-0.4l-2.6,1.8l0.8-1.8h-4.1h-4.1l-4.1-1l-4.5-1.4l1.9-2.8l2.6-5.5l1.5-3.2
		l1.9-3.6l1.9-3.2l4.1,2.2l0.3,1.4l5.2,9.1l2.2,1.8l0.2,2.1l0.1,1.1L392.3,430.4z"/>
	<path class="st0" d="M745.2,696.1l-1.5,1.4l-1.4,1l-3.2,1.7l-1.1,1l-3.7,1.8l-1.4,1l-3,1.8l-3.7,2.2l-3.7,2.2l-2.6,1.4l-1.9,1
		l-3.7,2.2l-0.7-1.1l-1.2-2.1l-0.4-0.7l-1.4-2.4l-0.7-1l-1.2-2.1l-0.5-0.7l-0.9-1.6l-0.7-1l-1.1-1.8l-1.5-2.2l-0.9-1.7l-1-1.6
		l-0.8-1.7l-1.1-1.8l-1.1-1.4l-2.2-1.4l-1.9-1.4l7.8-4.1l6.3-3.6l6.3-4.1l6.9-4.1l5.9-3.7l2.6,3.6l2.1,3.4l2,3.4l2.1,3.5l1.6,2.8
		l1.5,2.8l1.9,3l1.9,3.4L745.2,696.1z"/>
	<path class="st0" d="M701.9,694.6l1,1.6l0.9,1.7l-6.7,4.1l-6.3,3.2l-5.6,3.6l-5.6,3.2l-7.5,4.1l0.8,1.8l-3.3,1.8L667,722l-6.3,4.6
		l-0.8,1l-5.2,4.1l-1.1,1.4l-12.3-13.3l1.1-1l5.2-4.6l0.8-1l26-15.5l1.5,2.8l3-1.8l8.9-5l8.9-5.5l2.2,1.4l1.1,1.4l1.1,1.8
		L701.9,694.6z"/>
	<path class="st0" d="M698.9,465.6l-24.7,23.8l-4.9-4.9l-6.9-8.8l-1.1-1.4l-9.8-12.2L638.5,447l-1.9-2.8l-9.7-9.6l1.4-1l3-1l6.7,1.4
		h1.5l5.2,2.2l3,1.8l10.8,1h14.8l6.7-0.4l10.4,5.9l4.1,6.8l3,7.8L698.9,465.6z"/>
	<path class="st0" d="M618.5,494.4l-1.4,3.2l-3.3-3.2l-3,2.2l-2.2,2.2l-2.2,2.2l-5.9-6.4l-11.1-5.5l-3,1l-4.1-1.4l-3.7-1.4l-3.7-1
		l-3.7-1.4l-4.5-1.4l-3.3-1.4l-2.6-1h-1.4l-4.1-1.8l-2.2-0.4v-3.2l1-1.9l3.8-7.8l1.6-4.4l1.6-3l1.4-2.5l-0.3-2.9l-0.3-1.9l0.9,2.2
		l0.4,2.5l-0.5,1.9l-1.6,3l-0.9,2.8l1.9,1.7l2.5,0.3l4.1,0.4l3,0.4l2.2,0.4l4.5-2.8l2.6,2.2l2.2-3.2l2.2-2.8l9.2,6.4l-0.8,1.4
		l3.3,1.8l3.7,2.2l11.1,7.3l2.6-2.2l7.5,8.2l-2.2,5.5L618.5,494.4z"/>
</g>
<ellipse class="st1" cx="671" cy="603" rx="1.8" ry="1.7"/>
<ellipse class="st1" cx="600.3" cy="535.2" rx="1.8" ry="1.7"/>
<ellipse class="st1" cx="481.6" cy="481.2" rx="1.8" ry="1.7"/>
<ellipse class="st1" cx="592.1" cy="483.3" rx="1.8" ry="1.7"/>
<ellipse class="st1" cx="593.3" cy="631.7" rx="1.8" ry="1.7"/>
<ellipse class="st1" cx="659.9" cy="781" rx="1.8" ry="1.7"/>
<ellipse class="st1" cx="741.9" cy="594.4" rx="1.8" ry="1.7"/>
<ellipse class="st1" cx="714.6" cy="507.7" rx="1.8" ry="1.7"/>
<ellipse class="st1" cx="757.9" cy="671.7" rx="1.8" ry="1.7"/>
<ellipse class="st1" cx="459.3" cy="252" rx="1.8" ry="1.7"/>
<ellipse class="st1" cx="427.3" cy="274.8" rx="1.8" ry="1.7"/>
<ellipse class="st1" cx="456.2" cy="463" rx="1.8" ry="1.7"/>
<path class="st1" d="M643.9,654.5c1,0,1.8,0.7,1.8,1.7s-0.8,1.7-1.8,1.7s-1.8-0.7-1.8-1.7S642.9,654.5,643.9,654.5z"/>
<ellipse class="st1" cx="701.4" cy="537" rx="1.8" ry="1.7"/>
<ellipse class="st1" cx="515.7" cy="429.8" rx="1.8" ry="1.7"/>
<ellipse class="st1" cx="403.6" cy="497.9" rx="1.8" ry="1.7"/>
<ellipse class="st1" cx="713.6" cy="669.8" rx="1.8" ry="1.7"/>
<ellipse class="st1" cx="509.6" cy="465.5" rx="1.8" ry="1.7"/>
<ellipse class="st1" cx="746.5" cy="726.4" rx="1.8" ry="1.7"/>
<ellipse class="st1" cx="407.2" cy="324.6" rx="1.8" ry="1.7"/>
<ellipse class="st1" cx="671" cy="697.9" rx="1.8" ry="1.7"/>
<ellipse class="st1" cx="717" cy="768.1" rx="1.8" ry="1.7"/>
<ellipse class="st1" cx="440.3" cy="511.2" rx="1.8" ry="1.7"/>
<ellipse class="st1" cx="717.4" cy="770.2" rx="1.8" ry="1.7"/>
<ellipse class="st1" cx="585.5" cy="602.2" rx="1.8" ry="1.7"/>
<ellipse class="st1" cx="677.4" cy="615.1" rx="1.8" ry="1.7"/>
<ellipse class="st1" cx="567.2" cy="499.5" rx="1.8" ry="1.7"/>
<ellipse class="st1" cx="486.5" cy="543.5" rx="1.8" ry="1.7"/>
<ellipse class="st1" cx="549.3" cy="458.6" rx="1.8" ry="1.7"/>
<ellipse class="st1" cx="570.1" cy="577.2" rx="1.8" ry="1.7"/>
<ellipse class="st1" cx="893.5" cy="697.2" rx="1.8" ry="1.7"/>
<ellipse class="st1" cx="638.2" cy="645.6" rx="1.8" ry="1.7"/>
<ellipse class="st2" cx="497.5" cy="298.1" rx="8.8" ry="8.6"/>
<ellipse class="st1" cx="344" cy="378" rx="1.8" ry="1.7"/>
<ellipse class="st1" cx="610" cy="603.6" rx="1.8" ry="1.7"/>
<ellipse class="st1" cx="507.9" cy="575" rx="1.8" ry="1.7"/>
<ellipse class="st1" cx="613.1" cy="397.2" rx="1.8" ry="1.7"/>
<ellipse class="st2" cx="403" cy="500" rx="8.8" ry="8.6"/>
<ellipse class="st1" cx="632" cy="514.3" rx="1.8" ry="1.7"/>
<ellipse class="st1" cx="557" cy="554.6" rx="1.8" ry="1.7"/>
<ellipse class="st1" cx="370.5" cy="482.3" rx="1.8" ry="1.7"/>
<ellipse class="st1" cx="649.3" cy="658.9" rx="1.8" ry="1.7"/>
<ellipse class="st1" cx="706.8" cy="809.8" rx="1.8" ry="1.7"/>
<ellipse class="st1" cx="703.3" cy="810.1" rx="1.8" ry="1.7"/>
<ellipse class="st1" cx="529.1" cy="517.5" rx="1.8" ry="1.7"/>
<ellipse class="st1" cx="529.1" cy="517.5" rx="1.8" ry="1.7"/>
<ellipse class="st1" cx="697.3" cy="641.1" rx="1.8" ry="1.7"/>
<ellipse class="st1" cx="311.7" cy="456.7" rx="1.8" ry="1.7"/>
<ellipse class="st1" cx="328" cy="395" rx="1.8" ry="1.7"/>
<ellipse class="st1" cx="627.5" cy="571.8" rx="1.8" ry="1.7"/>
<ellipse class="st1" cx="403.7" cy="504.9" rx="1.8" ry="1.7"/>
<ellipse class="st1" cx="571.7" cy="340.8" rx="1.8" ry="1.7"/>
<ellipse class="st1" cx="614.4" cy="395.1" rx="1.8" ry="1.7"/>
<ellipse class="st1" cx="698" cy="701.6" rx="1.8" ry="1.7"/>
<ellipse class="st1" cx="794.1" cy="654.2" rx="1.8" ry="1.7"/>
<ellipse class="st1" cx="483.5" cy="458.5" rx="1.8" ry="1.7"/>
<ellipse class="st1" cx="396.4" cy="330.2" rx="1.8" ry="1.7"/>
<ellipse class="st1" cx="419.8" cy="336" rx="1.8" ry="1.7"/>
<ellipse class="st1" cx="746.6" cy="639.9" rx="1.8" ry="1.7"/>
<ellipse class="st1" cx="401.6" cy="259" rx="1.8" ry="1.7"/>
<ellipse class="st1" cx="438.4" cy="350.1" rx="1.8" ry="1.7"/>
<ellipse class="st1" cx="260.3" cy="442.6" rx="1.8" ry="1.7"/>
<ellipse class="st1" cx="313.4" cy="442.9" rx="1.8" ry="1.7"/>
<ellipse class="st1" cx="760.4" cy="726.9" rx="1.8" ry="1.7"/>
<ellipse class="st1" cx="668.7" cy="497.1" rx="1.8" ry="1.7"/>
<ellipse class="st1" cx="697.8" cy="702" rx="1.8" ry="1.7"/>
<ellipse class="st1" cx="478.6" cy="530.2" rx="1.8" ry="1.7"/>
<ellipse class="st1" cx="790.5" cy="637.3" rx="1.8" ry="1.7"/>
<ellipse class="st1" cx="380.7" cy="267.5" rx="1.8" ry="1.7"/>
<ellipse class="st1" cx="576.6" cy="472.2" rx="1.8" ry="1.7"/>
<ellipse class="st1" cx="750.9" cy="491.1" rx="1.8" ry="1.7"/>
<ellipse class="st1" cx="790.5" cy="637.3" rx="1.8" ry="1.7"/>
<ellipse class="st1" cx="376.7" cy="401.3" rx="1.8" ry="1.7"/>
<ellipse class="st1" cx="507.9" cy="575" rx="1.8" ry="1.7"/>
<ellipse class="st1" cx="576.5" cy="317.3" rx="1.8" ry="1.7"/>
<ellipse class="st1" cx="557" cy="554.6" rx="1.8" ry="1.7"/>
<ellipse class="st1" cx="529.1" cy="564.3" rx="1.8" ry="1.7"/>
<ellipse class="st1" cx="312.7" cy="442.6" rx="1.8" ry="1.7"/>
<ellipse class="st1" cx="394.6" cy="419.5" rx="1.8" ry="1.7"/>
</svg>
